SplineFontDB: 3.2
FontName: SeriousShannsItalic
FullName: Serious Shanns Italic
FamilyName: Serious Shanns Italic
Weight: Book
Copyright: https://github.com/kaBeech/serious-shanns/blob/main/LICENSE
Version: 6.0.0
ItalicAngle: -12.7
UnderlinePosition: 0
UnderlineWidth: 0
Ascent: 800
Descent: 200
InvalidEm: 0
sfntRevision: 0x00003333
LayerCount: 2
Layer: 0 0 "Back" 1
Layer: 1 0 "Fore" 0
XUID: [1021 45 630387186 1984481]
StyleMap: 0x0040
FSType: 4
OS2Version: 3
OS2_WeightWidthSlopeOnly: 0
OS2_UseTypoMetrics: 0
CreationTime: 1532631502
ModificationTime: 315532800
PfmFamily: 81
TTFWeight: 400
TTFWidth: 5
LineGap: 0
VLineGap: 0
Panose: 0 0 0 0 0 0 0 0 0 0
OS2TypoAscent: 613
OS2TypoAOffset: 0
OS2TypoDescent: -188
OS2TypoDOffset: 0
OS2TypoLinegap: 98
OS2WinAscent: 778
OS2WinAOffset: 0
OS2WinDescent: 308
OS2WinDOffset: 0
HheadAscent: 796
HheadAOffset: 0
HheadDescent: -317
HheadDOffset: 0
OS2SubXSize: 317
OS2SubYSize: 293
OS2SubXOff: 0
OS2SubYOff: 37
OS2SupXSize: 317
OS2SupYSize: 293
OS2SupXOff: 0
OS2SupYOff: 171
OS2StrikeYSize: 0
OS2StrikeYPos: 132
OS2CapHeight: 576
OS2XHeight: 485
OS2Vendor: 'NONE'
OS2CodePages: 00000001.00000000
OS2UnicodeRanges: 00000001.00000000.00000000.00000000
MarkAttachClasses: 1
DEI: 91125
LangName: 1033 "" "" "Normal" "" "" "Version 0.2.0"
Encoding: UnicodeBmp
Compacted: 1
UnicodeInterp: none
NameList: AGL For New Fonts
DisplaySize: -48
AntiAlias: 1
FitToEm: 0
WinInfo: 0 16 14
BeginPrivate: 8
BlueValues 32 [-40 -6 497 511 708 718 765 769]
OtherBlues 11 [-298 -287]
BlueScale 9 0.0291667
BlueShift 1 2
StdHW 4 [86]
StdVW 4 [58]
StemSnapH 19 [82 85 86 89 90 94]
StemSnapV 7 [58 68]
EndPrivate
BeginChars: 65537 123

StartChar: .notdef
Encoding: 65536 -1 0
Width: 650
GlyphClass: 1
Flags: W
HStem: -268 54<71 369> 695 54<281 579>
LayerCount: 2
Fore
SplineSet
9 -268 m 1
 243 749 l 1
 642 749 l 1
 407 -268 l 1
 9 -268 l 1
71 -214 m 1
 369 -214 l 1
 579 695 l 1
 281 695 l 1
 71 -214 l 1
EndSplineSet
Validated: 1
EndChar

StartChar: exclam
Encoding: 33 33 12
Width: 650
GlyphClass: 2
Flags: HMW
HStem: -24.001 152.997
VStem: 181.997 151
LayerCount: 2
Fore
SplineSet
469 738 m 0
 467.666992188 732 456.330078125 688.166015625 434.997070312 606.499023438 c 0
 413.6640625 524.83203125 397.6640625 458.33203125 386.997070312 406.999023438 c 0
 376.330078125 356.999023438 369.330078125 327.166015625 365.997070312 317.499023438 c 0
 362.6640625 307.83203125 358.6640625 292.33203125 353.997070312 270.999023438 c 0
 349.330078125 256.33203125 341.330078125 244.83203125 329.997070312 236.499023438 c 0
 319.50390625 228.783203125 308.439453125 224.92578125 296.802734375 224.92578125 c 0
 295.87109375 224.92578125 294.935546875 224.950195312 293.997070312 225 c 0
 281.330078125 225 271.997070312 229.333007812 265.997070312 238 c 0
 262.8203125 242.587890625 261.232421875 248.297851562 261.232421875 255.127929688 c 0
 261.232421875 261.200195312 262.487304688 268.157226562 264.997070312 276.000976562 c 0
 268.330078125 286.000976562 271.830078125 295.66796875 275.497070312 305.000976562 c 0
 279.1640625 314.333984375 281.997070312 322.166992188 283.997070312 328.5 c 0
 285.997070312 334.833007812 289.830078125 349.833007812 295.497070312 373.5 c 0
 301.1640625 397.166992188 307.6640625 427.666992188 314.997070312 465 c 0
 319.6640625 491 325.331054688 518.5 331.998046875 547.5 c 0
 338.665039062 576.5 344.498046875 600.666992188 349.498046875 620 c 0
 354.498046875 639.333007812 360.165039062 661.333007812 366.498046875 686 c 0
 372.831054688 710.666992188 376.998046875 727 378.998046875 735 c 0
 383.665039062 753 391.33203125 766.666992188 401.999023438 776 c 0
 412.666015625 785.333007812 424.333007812 790 437 790 c 0
 437.953125 790.047851562 438.88671875 790.071289062 439.801757812 790.071289062 c 0
 451.696289062 790.071289062 460.428710938 786.047851562 466 778 c 0
 469.599609375 772.799804688 471.400390625 765.919921875 471.400390625 757.360351562 c 0
 471.400390625 751.653320312 470.599609375 745.200195312 469 738 c 0
240.99609375 -24.0009765625 m 0
 237.661132812 -24.3818359375 234.456054688 -24.572265625 231.379882812 -24.572265625 c 0
 212.93359375 -24.572265625 199.140625 -17.7177734375 189.998046875 -4.0048828125 c 0
 182.88671875 6.662109375 179.331054688 18.810546875 179.331054688 32.4404296875 c 0
 179.331054688 39.2548828125 180.219726562 46.439453125 181.997070312 53.9951171875 c 0
 186.6640625 73.9951171875 198.6640625 91.328125 217.997070312 105.995117188 c 0
 237.330078125 120.662109375 256.997070312 128.329101562 276.997070312 128.99609375 c 0
 277.975585938 129.025390625 278.94140625 129.041015625 279.896484375 129.041015625 c 0
 300.408203125 129.041015625 315.44140625 122.192382812 324.997070312 108.497070312 c 0
 331.815429688 98.724609375 335.224609375 87.3251953125 335.224609375 74.298828125 c 0
 335.224609375 68.2197265625 334.482421875 61.7861328125 332.997070312 54.998046875 c 0
 328.330078125 33.6650390625 317.663085938 15.83203125 300.99609375 1.4990234375 c 0
 284.329101562 -12.833984375 264.329101562 -21.333984375 240.99609375 -24.0009765625 c 0
EndSplineSet
Validated: 524289
EndChar

StartChar: quotedbl
Encoding: 34 34 13
Width: 650
GlyphClass: 2
Flags: HMW
VStem: 172.996 306.002
LayerCount: 2
Fore
SplineSet
330 738 m 0
 324 710.666992188 313.165039062 665.830078125 297.498046875 603.497070312 c 0
 281.831054688 541.1640625 269.998046875 498.331054688 261.998046875 474.998046875 c 0
 257.331054688 461.665039062 249.6640625 451.665039062 238.997070312 444.998046875 c 0
 229.299804688 438.9375 219.87890625 435.907226562 210.733398438 435.907226562 c 0
 209.818359375 435.907226562 208.90625 435.9375 207.997070312 435.998046875 c 0
 195.330078125 436.665039062 185.163085938 440.83203125 177.49609375 448.499023438 c 0
 172.73046875 453.264648438 170.34765625 459.25390625 170.34765625 466.466796875 c 0
 170.34765625 470.857421875 171.23046875 475.701171875 172.99609375 480.999023438 c 0
 182.99609375 514.999023438 193.829101562 558.666015625 205.49609375 611.999023438 c 0
 217.163085938 665.33203125 226.330078125 709.33203125 232.997070312 743.999023438 c 0
 234.330078125 751.999023438 237.330078125 758.83203125 241.997070312 764.499023438 c 0
 246.6640625 770.166015625 251.997070312 774.333007812 257.997070312 777 c 0
 263.997070312 779.666992188 269.997070312 781.5 275.997070312 782.5 c 0
 281.997070312 783.5 287.997070312 783.666992188 293.997070312 783 c 0
 299.330078125 783 304.330078125 782.333007812 308.997070312 781 c 0
 313.6640625 779.666992188 317.831054688 777.5 321.498046875 774.5 c 0
 325.165039062 771.5 327.83203125 766.833007812 329.499023438 760.5 c 0
 331.166015625 754.166992188 331.333007812 746.666992188 330 738 c 0
478.998046875 737.99609375 m 0
 473.665039062 710.663085938 463.166992188 665.826171875 447.5 603.493164062 c 0
 431.833007812 541.16015625 419.666015625 498.327148438 410.999023438 474.994140625 c 0
 406.33203125 461.661132812 398.665039062 451.661132812 387.998046875 444.994140625 c 0
 378.30078125 438.93359375 368.879882812 435.903320312 359.734375 435.903320312 c 0
 358.819335938 435.903320312 357.907226562 435.93359375 356.998046875 435.994140625 c 0
 344.998046875 436.661132812 334.998046875 440.828125 326.998046875 448.495117188 c 0
 322.198242188 453.095703125 319.797851562 458.834960938 319.797851562 465.71484375 c 0
 319.797851562 470.301757812 320.865234375 475.395507812 322.998046875 480.995117188 c 0
 332.998046875 514.995117188 343.665039062 558.662109375 354.998046875 611.995117188 c 0
 366.331054688 665.328125 375.331054688 709.328125 381.998046875 743.995117188 c 0
 383.331054688 751.995117188 386.331054688 758.828125 390.998046875 764.495117188 c 0
 395.665039062 770.162109375 401.165039062 774.329101562 407.498046875 776.99609375 c 0
 413.831054688 779.663085938 419.831054688 781.49609375 425.498046875 782.49609375 c 0
 431.165039062 783.49609375 436.998046875 783.663085938 442.998046875 782.99609375 c 0
 448.998046875 782.99609375 454.165039062 782.329101562 458.498046875 780.99609375 c 0
 462.831054688 779.663085938 466.998046875 777.49609375 470.998046875 774.49609375 c 0
 474.998046875 771.49609375 477.831054688 766.829101562 479.498046875 760.49609375 c 0
 481.165039062 754.163085938 480.998046875 746.663085938 478.998046875 737.99609375 c 0
EndSplineSet
Validated: 524289
EndChar

StartChar: numbersign
Encoding: 35 35 14
Width: 650
GlyphClass: 2
Flags: HMW
HStem: 192 82<445.999 465 413 483.999> 445 84<312.993 452.998 346.998 419.993 346.998 545.999 346.998 511.999>
LayerCount: 2
Fore
SplineSet
144 42 m 0
 136 28 124.326171875 16.5 108.993164062 7.5 c 0
 98.3779296875 1.26953125 88.880859375 -1.845703125 80.501953125 -1.845703125 c 0
 76.7783203125 -1.845703125 73.275390625 -1.23046875 69.9931640625 0 c 0
 59.326171875 2.6669921875 52.826171875 11.1669921875 50.4931640625 25.5 c 0
 49.998046875 28.5400390625 49.7509765625 31.6474609375 49.7509765625 34.822265625 c 0
 49.7509765625 46.6162109375 53.1650390625 59.341796875 59.994140625 72.9990234375 c 0
 69.3271484375 90.9990234375 86.994140625 129.666015625 112.994140625 188.999023438 c 1
 84.994140625 188.999023438 l 2
 69.6611328125 188.999023438 58.6611328125 192.33203125 51.994140625 198.999023438 c 0
 45.3271484375 205.666015625 43.3271484375 214.666015625 45.994140625 225.999023438 c 0
 47.994140625 237.999023438 53.6611328125 247.999023438 62.994140625 255.999023438 c 0
 72.3271484375 263.999023438 84.994140625 268.666015625 100.994140625 269.999023438 c 0
 105.661132812 269.999023438 113.161132812 270.166015625 123.494140625 270.499023438 c 0
 133.827148438 270.83203125 141.66015625 270.999023438 146.993164062 270.999023438 c 1
 218.993164062 443.999023438 l 1
 213.66015625 443.999023438 206.66015625 443.83203125 197.993164062 443.499023438 c 0
 189.326171875 443.166015625 183.326171875 442.999023438 179.993164062 442.999023438 c 0
 178.765625 442.9453125 177.567382812 442.918945312 176.3984375 442.918945312 c 0
 162.955078125 442.918945312 153.3203125 446.4453125 147.494140625 453.499023438 c 0
 141.161132812 461.166015625 139.328125 470.666015625 141.995117188 481.999023438 c 0
 143.995117188 493.999023438 149.828125 504.166015625 159.495117188 512.499023438 c 0
 169.162109375 520.83203125 182.329101562 525.33203125 198.99609375 525.999023438 c 0
 210.99609375 526.666015625 228.99609375 526.999023438 252.99609375 526.999023438 c 1
 294.329101562 627.666015625 315.329101562 679.666015625 315.99609375 682.999023438 c 0
 324.663085938 699.666015625 334.99609375 711.333007812 346.99609375 718 c 0
 354.99609375 722.4453125 362.700195312 724.666992188 370.108398438 724.666992188 c 0
 373.811523438 724.666992188 377.440429688 724.112304688 380.99609375 723.000976562 c 0
 393.663085938 720.333984375 402.330078125 713.666992188 406.997070312 703 c 0
 408.8125 698.8515625 409.719726562 694.19921875 409.719726562 689.041992188 c 0
 409.719726562 680.939453125 407.479492188 671.591796875 402.998046875 661 c 2
 346.998046875 529 l 1
 452.998046875 529 l 1
 510.998046875 675 l 2
 519.665039062 692.333007812 529.998046875 704.333007812 541.998046875 711 c 0
 549.998046875 715.4453125 557.850585938 717.666992188 565.5546875 717.666992188 c 0
 569.40625 717.666992188 573.220703125 717.112304688 576.998046875 716.000976562 c 0
 590.331054688 713.333984375 599.331054688 706.666992188 603.998046875 696 c 0
 605.631835938 692.266601562 606.448242188 688.125 606.448242188 683.57421875 c 0
 606.448242188 675.124023438 603.631835938 665.266601562 597.998046875 654 c 0
 584.665039062 626 567.665039062 585 546.998046875 531 c 1
 556.998046875 531 l 2
 571.665039062 531 583.165039062 526.5 591.498046875 517.5 c 0
 598.21875 510.2421875 601.579101562 502.658203125 601.579101562 494.75 c 0
 601.579101562 492.852539062 601.384765625 490.935546875 600.998046875 489 c 0
 598.331054688 477 592.331054688 466.833007812 582.998046875 458.5 c 0
 573.665039062 450.166992188 561.33203125 445.666992188 545.999023438 445 c 2
 511.999023438 445 l 1
 445.999023438 274 l 1
 483.999023438 274 l 2
 498.666015625 274 507.833007812 270.5 511.5 263.5 c 0
 515.166992188 256.5 516 247.333007812 514 236 c 0
 507.333007812 206.666992188 491 192 465 192 c 2
 413 192 l 1
 383 116 362 64.6669921875 350 38 c 0
 341.333007812 24 330 13.1669921875 316 5.5 c 0
 306.799804688 0.4619140625 298.17578125 -2.0576171875 290.127929688 -2.0576171875 c 0
 285.928710938 -2.0576171875 281.885742188 -1.37109375 278 0 c 0
 267.333007812 2.6669921875 260.5 10.5 257.5 23.5 c 0
 256.728515625 26.8427734375 256.342773438 30.3076171875 256.342773438 33.892578125 c 0
 256.342773438 44.25 259.561523438 55.619140625 266 68 c 0
 278.666992188 94.6669921875 296 135.666992188 318 191 c 1
 305.333007812 191 286.5 190.833007812 261.5 190.5 c 0
 236.5 190.166992188 218.333007812 190 207 190 c 1
 177 118 156 68.6669921875 144 42 c 0
312.993164062 445 m 1
 241.994140625 273.999023438 l 1
 267.327148438 274.666015625 303.66015625 274.999023438 350.993164062 274.999023438 c 1
 373.66015625 329.666015625 396.66015625 386.333007812 419.993164062 445 c 1
 312.993164062 445 l 1
EndSplineSet
Validated: 524289
EndChar

StartChar: dollar
Encoding: 36 36 15
Width: 650
GlyphClass: 2
Flags: HMW
HStem: -28.9932 84.9932<195.001 232 206.001 232> 642.998 79.002
VStem: 191.001 82.999 450.502 93.998
LayerCount: 2
Fore
SplineSet
274 -99 m 0
 269.333007812 -113.666992188 261.333984375 -124.993164062 250.000976562 -132.993164062 c 0
 238.66796875 -140.993164062 226.66796875 -144.993164062 214.000976562 -144.993164062 c 0
 202.66796875 -144.993164062 195.000976562 -140.493164062 191.000976562 -131.493164062 c 0
 189.401367188 -127.893554688 188.600585938 -123.6796875 188.600585938 -118.853515625 c 0
 188.600585938 -111.61328125 190.401367188 -102.993164062 194.000976562 -92.9931640625 c 0
 198.66796875 -76.9931640625 204.000976562 -55.66015625 210.000976562 -28.9931640625 c 1
 206.000976562 -28.9931640625 l 2
 184.000976562 -28.9931640625 164.000976562 -25.9931640625 146.000976562 -19.9931640625 c 0
 128.000976562 -13.9931640625 113.000976562 -5.9931640625 101.000976562 4.0068359375 c 0
 89.0009765625 14.0068359375 79.333984375 24.673828125 72.0009765625 36.0068359375 c 0
 64.66796875 47.33984375 59.0009765625 59.6728515625 55.0009765625 73.005859375 c 0
 53.71875 79.9287109375 53.078125 86.3583984375 53.078125 92.2958984375 c 0
 53.078125 101.794921875 54.71875 110.03125 58.0009765625 117.005859375 c 0
 63.333984375 128.338867188 71.6669921875 136.671875 83 142.004882812 c 0
 91 145.337890625 97.5 147.670898438 102.5 149.00390625 c 0
 107.5 150.336914062 112.5 150.669921875 117.5 150.002929688 c 0
 122.5 149.3359375 127 146.668945312 131 142.001953125 c 0
 135 137.334960938 139 130.66796875 143 122.000976562 c 0
 151 101.333984375 161.5 85.1669921875 174.5 73.5 c 0
 187.5 61.8330078125 206 56 230 56 c 2
 232 56 l 1
 259.333007812 167.333007812 282.666015625 266.666015625 301.999023438 353.999023438 c 1
 298.666015625 353.999023438 293.499023438 354.666015625 286.499023438 355.999023438 c 0
 279.499023438 357.33203125 273.999023438 357.999023438 269.999023438 357.999023438 c 0
 248.666015625 360.666015625 229.999023438 366.999023438 213.999023438 376.999023438 c 0
 197.999023438 386.999023438 185.999023438 399.166015625 177.999023438 413.499023438 c 0
 169.999023438 427.83203125 164.666015625 442.83203125 161.999023438 458.499023438 c 0
 160.932617188 464.765625 160.3984375 471.05859375 160.3984375 477.37890625 c 0
 160.3984375 486.859375 161.598632812 496.399414062 163.999023438 505.999023438 c 0
 169.33203125 529.999023438 177.999023438 552.999023438 189.999023438 574.999023438 c 0
 201.999023438 596.999023438 217.166015625 617.499023438 235.499023438 636.499023438 c 0
 253.83203125 655.499023438 275.999023438 671.83203125 301.999023438 685.499023438 c 0
 327.999023438 699.166015625 355.999023438 708.666015625 385.999023438 713.999023438 c 1
 390.666015625 729.999023438 395.999023438 749.33203125 401.999023438 771.999023438 c 0
 411.33203125 808.666015625 427.999023438 826.999023438 451.999023438 826.999023438 c 0
 452.517578125 827.01171875 453.030273438 827.017578125 453.537109375 827.017578125 c 0
 474.2890625 827.017578125 484.666015625 816.641601562 484.666015625 795.888671875 c 0
 484.666015625 789.814453125 483.776367188 782.8515625 481.999023438 775 c 2
 468.999023438 722 l 1
 482.999023438 721.333007812 501.499023438 718 524.499023438 712 c 0
 547.499023438 706 564.33203125 700.333007812 574.999023438 695 c 0
 585.666015625 690.333007812 592.499023438 683 595.499023438 673 c 0
 596.672851562 669.086914062 597.259765625 665.071289062 597.259765625 660.954101562 c 0
 597.259765625 654.549804688 595.83984375 647.8984375 592.999023438 641 c 0
 590.33203125 633 586.499023438 626.833007812 581.499023438 622.5 c 0
 576.499023438 618.166992188 570.999023438 615.5 564.999023438 614.5 c 0
 558.999023438 613.5 553.33203125 613.333007812 547.999023438 614 c 0
 542.666015625 614.666992188 537.666015625 615.666992188 532.999023438 617 c 0
 527.666015625 618.333007812 521.166015625 621.166015625 513.499023438 625.499023438 c 0
 505.83203125 629.83203125 496.999023438 633.665039062 486.999023438 636.998046875 c 0
 476.999023438 640.331054688 464.666015625 642.331054688 449.999023438 642.998046875 c 1
 436.666015625 589.665039062 419.333007812 518.998046875 398 430.998046875 c 1
 425.333007812 426.998046875 449 419.831054688 469 409.498046875 c 0
 489 399.165039062 504.166992188 387.33203125 514.5 373.999023438 c 0
 524.833007812 360.666015625 532.5 345.333007812 537.5 328 c 0
 542.1875 311.749023438 544.53125 295.791992188 544.53125 280.126953125 c 0
 544.53125 266.818359375 542.955078125 247.967773438 537 225 c 0
 529.666992188 194.333007812 518.166992188 165.333007812 502.5 138 c 0
 486.833007812 110.666992188 468 87 446 67 c 0
 424 47 399.833007812 29.6669921875 373.5 15 c 0
 347.166992188 0.3330078125 319.666992188 -10.6669921875 291 -18 c 1
 281.666992188 -58 276 -85 274 -99 c 0
256.000976562 531.006835938 m 0
 254.66796875 524.911132812 254.000976562 519.034179688 254.000976562 513.374023438 c 0
 254.000976562 499.224609375 258.16796875 486.435546875 266.500976562 475.006835938 c 0
 278.16796875 459.006835938 296.66796875 447.673828125 322.000976562 441.006835938 c 1
 333.333984375 487.006835938 348.666992188 551.006835938 368 633.006835938 c 1
 339.333007812 624.33984375 314.833007812 611.33984375 294.5 594.006835938 c 0
 274.166992188 576.673828125 261.333984375 555.673828125 256.000976562 531.006835938 c 0
447.000976562 208.006835938 m 0
 449.372070312 219.267578125 450.557617188 229.73828125 450.557617188 239.418945312 c 0
 450.557617188 252.064453125 448.291015625 263.998046875 444.001953125 276.508789062 c 0
 440.001953125 288.17578125 432.168945312 299.008789062 420.501953125 309.008789062 c 0
 408.834960938 319.008789062 393.66796875 327.67578125 375.000976562 335.008789062 c 1
 367.66796875 305.67578125 357.000976562 261.508789062 343.000976562 202.508789062 c 0
 329.000976562 143.508789062 318.66796875 100.67578125 312.000976562 74.0087890625 c 1
 345.333984375 87.341796875 374.500976562 105.674804688 399.500976562 129.0078125 c 0
 424.500976562 152.340820312 440.333984375 178.673828125 447.000976562 208.006835938 c 0
EndSplineSet
Validated: 524289
EndChar

StartChar: percent
Encoding: 37 37 16
Width: 650
GlyphClass: 2
Flags: HMW
HStem: -28.001 76 170.999 74<429.667 442.667> 432 75<218 263.667> 632 73<287.333 291.333>
LayerCount: 2
Fore
SplineSet
229 432 m 0
 207 432 189.000976562 438.5 175.000976562 451.5 c 0
 161.000976562 464.5 152.16796875 480.833007812 148.500976562 500.5 c 0
 147.006835938 508.513671875 146.259765625 516.775390625 146.259765625 525.286132812 c 0
 146.259765625 537.665039062 147.83984375 550.569335938 151 564.000976562 c 0
 160.333007812 605.333984375 178.833007812 639.166992188 206.5 665.5 c 0
 234.166992188 691.833007812 267.666992188 705 307 705 c 0
 322.333007812 705 336 702.166992188 348 696.5 c 0
 360 690.833007812 370 682.333007812 378 671 c 0
 386 659.666992188 390.5 644.166992188 391.5 624.5 c 0
 391.620117188 622.139648438 391.6796875 619.734375 391.6796875 617.283203125 c 0
 391.6796875 599.307617188 388.453125 578.879882812 382 556 c 0
 370.666992188 515.333007812 352.666992188 484.5 328 463.5 c 0
 303.333007812 442.5 270.333007812 432 229 432 c 0
49.0009765625 19 m 0
 68.333984375 47.6669921875 113 107.833984375 183 199.500976562 c 0
 253 291.16796875 323.166992188 383.66796875 393.5 477.000976562 c 0
 463.833007812 570.333984375 512 637.000976562 538 677.000976562 c 0
 548 689.000976562 559.333007812 696.500976562 572 699.500976562 c 0
 575.931640625 700.431640625 579.702148438 700.897460938 583.3125 700.897460938 c 0
 591.333984375 700.897460938 598.563476562 698.598632812 605 694.000976562 c 0
 615 688.66796875 619.5 680.834960938 618.5 670.501953125 c 0
 617.5 660.168945312 611.333007812 647.668945312 600 633.001953125 c 0
 567.333007812 592.334960938 488.5 488.66796875 363.5 322.000976562 c 0
 238.5 155.333984375 155 42.6669921875 113 -16 c 0
 95.76953125 -39.630859375 79.6298828125 -51.4462890625 64.580078125 -51.4462890625 c 0
 59.25 -51.4462890625 54.0576171875 -49.9638671875 49.0009765625 -47 c 0
 38.0009765625 -40.666015625 32.5009765625 -32 32.5009765625 -21 c 0
 32.5009765625 -10 38.0009765625 3.333984375 49.0009765625 19 c 0
256 507 m 0
 271.333007812 507 284.333984375 512.33203125 295.000976562 522.999023438 c 0
 305.66796875 533.666015625 313.66796875 547.999023438 319.000976562 565.999023438 c 0
 321.842773438 576.736328125 323.264648438 586.126953125 323.264648438 594.171875 c 0
 323.264648438 603.109375 321.509765625 610.385742188 318.000976562 616 c 0
 311.333984375 626.666992188 299.666992188 632 283 632 c 0
 268.333007812 632 255.5 626.166992188 244.5 614.5 c 0
 233.5 602.833007812 225 587 219 567 c 0
 216.666015625 557.666015625 215.5 549.416015625 215.5 542.25 c 0
 215.5 535.083007812 216.666015625 529 219 524 c 0
 223.666992188 514 236 508.333007812 256 507 c 0
372.000976562 -28.0009765625 m 0
 350.000976562 -28.0009765625 332 -21.5009765625 318 -8.5009765625 c 0
 304 4.4990234375 295.166992188 20.83203125 291.5 40.4990234375 c 0
 290.005859375 48.5126953125 289.258789062 56.7744140625 289.258789062 65.28515625 c 0
 289.258789062 77.6640625 290.838867188 90.568359375 293.999023438 104 c 0
 303.33203125 145.333007812 321.83203125 179.166015625 349.499023438 205.499023438 c 0
 377.166015625 231.83203125 410.333007812 244.999023438 449 244.999023438 c 0
 464.333007812 244.999023438 478.166015625 242.33203125 490.499023438 236.999023438 c 0
 502.83203125 231.666015625 512.999023438 223.166015625 520.999023438 211.499023438 c 0
 528.999023438 199.83203125 533.499023438 184.165039062 534.499023438 164.498046875 c 0
 534.610351562 162.3125 534.666015625 160.088867188 534.666015625 157.825195312 c 0
 534.666015625 139.717773438 531.110351562 119.109375 523.999023438 95.998046875 c 0
 512.666015625 55.3310546875 494.833007812 24.3310546875 470.5 2.998046875 c 0
 446.904296875 -17.6884765625 415.317382812 -28.03125 375.737304688 -28.03125 c 0
 374.499023438 -28.03125 373.25390625 -28.021484375 372.000976562 -28.0009765625 c 0
399 47.9990234375 m 0
 399.838867188 47.9609375 400.669921875 47.94140625 401.49609375 47.94140625 c 0
 415.108398438 47.94140625 426.943359375 53.1279296875 437.000976562 63.4990234375 c 0
 447.66796875 74.4990234375 455.66796875 88.666015625 461.000976562 105.999023438 c 0
 463.752929688 116.522460938 465.12890625 125.768554688 465.12890625 133.736328125 c 0
 465.12890625 158.578125 451.752929688 170.999023438 425.000976562 170.999023438 c 0
 410.333984375 170.999023438 397.666992188 165.166015625 387 153.499023438 c 0
 376.333007812 141.83203125 368 126.33203125 362 106.999023438 c 0
 359.747070312 98.3095703125 358.620117188 90.513671875 358.620117188 83.6103515625 c 0
 358.620117188 76.2138671875 359.9140625 69.84375 362.5 64.4990234375 c 0
 367.5 54.166015625 379.666992188 48.666015625 399 47.9990234375 c 0
EndSplineSet
Validated: 524289
EndChar

StartChar: ampersand
Encoding: 38 38 17
Width: 650
GlyphClass: 2
Flags: HMW
HStem: -41.998 93.998<195.668 239.332> 645.001 79<420.334 420.667>
VStem: 413.003 89.9971 500 83.5<297 297>
LayerCount: 2
Fore
SplineSet
478 -35 m 0xe0
 471.482421875 -38.5849609375 465.083984375 -40.376953125 458.805664062 -40.376953125 c 0
 452.241210938 -40.376953125 445.806640625 -38.4169921875 439.501953125 -34.498046875 c 0
 427.168945312 -26.8310546875 418.3359375 -13.6640625 413.002929688 5.0029296875 c 0xe0
 412.3359375 8.3359375 410.8359375 18.3359375 408.502929688 35.0029296875 c 0
 406.169921875 51.669921875 404.002929688 63.669921875 402.002929688 71.0029296875 c 1
 400.002929688 68.3359375 395.002929688 62.6689453125 387.002929688 54.001953125 c 0
 379.002929688 45.3349609375 373.002929688 39.001953125 369.002929688 35.001953125 c 0
 365.002929688 31.001953125 358.502929688 25.001953125 349.502929688 17.001953125 c 0
 340.502929688 9.001953125 333.002929688 2.8349609375 327.002929688 -1.498046875 c 0
 321.002929688 -5.8310546875 313.169921875 -10.998046875 303.502929688 -16.998046875 c 0
 293.8359375 -22.998046875 284.668945312 -27.498046875 276.001953125 -30.498046875 c 0
 267.334960938 -33.498046875 257.501953125 -36.1650390625 246.501953125 -38.498046875 c 0
 235.501953125 -40.8310546875 224.334960938 -41.998046875 213.001953125 -41.998046875 c 0
 178.334960938 -41.998046875 148.66796875 -32.3310546875 124.000976562 -12.998046875 c 0
 99.333984375 6.3349609375 82.6669921875 31.66796875 74 63.0009765625 c 0
 69.4931640625 79.2939453125 67.240234375 96.30859375 67.240234375 114.04296875 c 0
 67.240234375 130.415039062 69.16015625 147.400390625 73 165.000976562 c 0
 101.666992188 291.000976562 170 376.66796875 278 422.000976562 c 1
 274.666992188 432.000976562 270.5 444.000976562 265.5 458.000976562 c 0
 260.5 472.000976562 257 481.833984375 255 487.500976562 c 0
 253 493.16796875 250.833007812 500.500976562 248.5 509.500976562 c 0
 246.166992188 518.500976562 245 526.333984375 245 533.000976562 c 0
 245 539.66796875 245.5 547.834960938 246.5 557.501953125 c 0
 247.5 567.168945312 249.333007812 577.668945312 252 589.001953125 c 0
 254.666992188 601.001953125 258.833984375 612.834960938 264.500976562 624.501953125 c 0
 270.16796875 636.168945312 278.000976562 648.168945312 288.000976562 660.501953125 c 0
 298.000976562 672.834960938 309.500976562 683.66796875 322.500976562 693.000976562 c 0
 335.500976562 702.333984375 351.500976562 709.833984375 370.500976562 715.500976562 c 0
 389.500976562 721.16796875 409.66796875 724.000976562 431.000976562 724.000976562 c 0
 449.000976562 724.000976562 466.000976562 721.000976562 482.000976562 715.000976562 c 0
 498.000976562 709.000976562 511.833984375 700.16796875 523.500976562 688.500976562 c 0
 535.16796875 676.833984375 543.000976562 661.500976562 547.000976562 642.500976562 c 0
 548.71484375 634.358398438 549.572265625 625.817382812 549.572265625 616.87890625 c 0
 549.572265625 604.9609375 548.048828125 592.333984375 545.000976562 579.000976562 c 0
 540.333984375 557.66796875 533.166992188 537.834960938 523.5 519.501953125 c 0
 513.833007812 501.168945312 503.833007812 485.8359375 493.5 473.502929688 c 0
 483.166992188 461.169921875 470.666992188 449.336914062 456 438.00390625 c 0
 441.333007812 426.670898438 428.333007812 417.670898438 417 411.00390625 c 0
 405.666992188 404.336914062 392.666992188 397.669921875 378 391.002929688 c 1
 384.666992188 370.3359375 396.666992188 339.668945312 414 299.001953125 c 0
 431.333007812 258.334960938 442.333007812 231.334960938 447 218.001953125 c 1
 453 227.334960938 460 238.16796875 468 250.500976562 c 0
 476 262.833984375 482.666992188 272.833984375 488 280.500976562 c 0
 493.333007812 288.16796875 497.333007812 293.66796875 500 297.000976562 c 0
 514.666992188 314.333984375 527.5 325.166992188 538.5 329.5 c 0
 542.833007812 331.20703125 547.139648438 332.060546875 551.420898438 332.060546875 c 0
 558.008789062 332.060546875 564.53515625 330.040039062 571 325.999023438 c 0
 579.4296875 321.181640625 583.645507812 312.694335938 583.645507812 300.534179688 c 0
 583.645507812 288.635742188 579.828125 271.743164062 564 248 c 0
 559.333007812 242 547 228.666992188 527 208 c 0
 507 187.333007812 489.666992188 168.333007812 475 151 c 1
 479 138.333007812 484.666992188 120.166015625 492 96.4990234375 c 0
 499.333007812 72.83203125 503.333007812 58.9990234375 504 54.9990234375 c 0
 506.509765625 47.4697265625 507.764648438 39.5712890625 507.764648438 31.302734375 c 0
 507.764648438 22.001953125 506.176757812 12.234375 503 1.9990234375 c 0
 497 -17.333984375 488.666992188 -29.6669921875 478 -35 c 0xe0
336.000976562 572.000976562 m 0
 334 563.665039062 333 554.913085938 333 545.744140625 c 0
 333 536.579101562 334 526.999023438 335.999023438 517.000976562 c 0
 339.999023438 497.000976562 346.33203125 479.333984375 354.999023438 464.000976562 c 1
 369.666015625 468.66796875 382.333007812 473.500976562 393 478.500976562 c 0
 403.666992188 483.500976562 414.166992188 490.000976562 424.5 498.000976562 c 0
 434.833007812 506.000976562 443.333007812 515.833984375 450 527.500976562 c 0
 456.666992188 539.16796875 461.666992188 553.000976562 465 569.000976562 c 0
 467.077148438 577.5390625 468.115234375 585.37890625 468.115234375 592.51953125 c 0
 468.115234375 606.006835938 464.41015625 617.000976562 457 625.500976562 c 0
 445.666992188 638.500976562 430.333984375 645.000976562 411.000976562 645.000976562 c 0
 372.333984375 645.000976562 347.333984375 620.66796875 336.000976562 572.000976562 c 0
167.999023438 174.000976562 m 0
 164.8515625 160.361328125 163.27734375 147.59765625 163.27734375 135.711914062 c 0
 163.27734375 117.389648438 167.017578125 101.15234375 174.498046875 87 c 0
 186.831054688 63.6669921875 206.998046875 52 234.998046875 52 c 0
 243.665039062 52 252.33203125 53 260.999023438 55 c 0
 269.666015625 57 277.333007812 59 284 61 c 0
 290.666992188 63 297.666992188 66.3330078125 305 71 c 0
 312.333007812 75.6669921875 318.166015625 79.5 322.499023438 82.5 c 0
 326.83203125 85.5 332.33203125 90.1669921875 338.999023438 96.5 c 0
 345.666015625 102.833007812 350.333007812 107.333007812 353 110 c 0
 355.666992188 112.666992188 360 117.5 366 124.5 c 0
 372 131.5 375.666992188 135.666992188 377 137 c 0
 372.333007812 163 367.666015625 183.333007812 362.999023438 198 c 0
 358.999023438 213.333007812 349.83203125 238.333007812 335.499023438 273 c 0
 321.166015625 307.666992188 310.999023438 333.333984375 304.999023438 350.000976562 c 1
 284.33203125 341.333984375 265.999023438 330.500976562 249.999023438 317.500976562 c 0
 233.999023438 304.500976562 220.666015625 290.16796875 209.999023438 274.500976562 c 0
 199.33203125 258.833984375 190.83203125 243.000976562 184.499023438 227.000976562 c 0
 178.166015625 211.000976562 172.666015625 193.333984375 167.999023438 174.000976562 c 0
EndSplineSet
Validated: 524289
EndChar

StartChar: quotesingle
Encoding: 39 39 18
Width: 650
GlyphClass: 2
Flags: HMW
HStem: 446.001 325.499
VStem: 250 152
LayerCount: 2
Fore
SplineSet
402 728 m 0
 396.666992188 701.333007812 387.001953125 660.16796875 373.001953125 604.500976562 c 0
 359.001953125 548.833984375 347.668945312 509.333984375 339.001953125 486.000976562 c 0
 334.334960938 472.000976562 326.66796875 461.66796875 316.000976562 455.000976562 c 0
 306.303710938 448.940429688 296.8828125 445.91015625 287.737304688 445.91015625 c 0
 286.822265625 445.91015625 285.91015625 445.940429688 285.000976562 446.000976562 c 0
 272.333984375 446.66796875 262.166992188 451.000976562 254.5 459.000976562 c 0
 249.734375 463.973632812 247.3515625 470.106445312 247.3515625 477.397460938 c 0
 247.3515625 481.8359375 248.234375 486.703125 250 492.000976562 c 0
 260 526.66796875 270 566.66796875 280 612.000976562 c 0
 290 657.333984375 298.333007812 697.666992188 305 733 c 0
 306.333007812 741 309.333007812 748 314 754 c 0
 318.666992188 760 324.166992188 764.166992188 330.5 766.5 c 0
 336.833007812 768.833007812 342.833007812 770.5 348.5 771.5 c 0
 354.166992188 772.5 360 772.666992188 366 772 c 0
 371.333007812 772 376.333007812 771.333007812 381 770 c 0
 385.666992188 768.666992188 390 766.5 394 763.5 c 0
 398 760.5 400.666992188 756 402 750 c 0
 403.333007812 744 403.333007812 736.666992188 402 728 c 0
EndSplineSet
Validated: 524289
EndChar

StartChar: parenleft
Encoding: 40 40 19
Width: 650
GlyphClass: 2
Flags: HMW
HStem: -130.998 83.998<259.331 306> 733.002 81<471 511.666>
LayerCount: 2
Fore
SplineSet
326 -93 m 0
 323.333007812 -103.666992188 317.165039062 -112.665039062 307.498046875 -119.998046875 c 0
 297.831054688 -127.331054688 288.6640625 -130.998046875 279.997070312 -130.998046875 c 0
 238.6640625 -130.998046875 204.831054688 -114.998046875 178.498046875 -82.998046875 c 0
 152.165039062 -50.998046875 134.998046875 -6.6650390625 126.998046875 50.001953125 c 0
 123.442382812 75.1875 121.665039062 102.083984375 121.665039062 130.693359375 c 0
 121.665039062 166.455078125 124.442382812 204.890625 129.998046875 246.001953125 c 0
 136.665039062 294.668945312 152.33203125 358.001953125 176.999023438 436.001953125 c 0
 201.666015625 514.001953125 228.666015625 578.334960938 257.999023438 629.001953125 c 0
 271.33203125 651.001953125 286.999023438 672.834960938 304.999023438 694.501953125 c 0
 322.999023438 716.168945312 342.666015625 736.001953125 363.999023438 754.001953125 c 0
 385.33203125 772.001953125 407.999023438 786.501953125 431.999023438 797.501953125 c 0
 455.999023438 808.501953125 478.33203125 814.001953125 498.999023438 814.001953125 c 0
 519.481445312 814.001953125 529.72265625 805.068359375 529.72265625 787.200195312 c 0
 529.72265625 782.96875 529.147460938 778.236328125 527.999023438 773.001953125 c 0
 524.666015625 759.001953125 518.333007812 748.834960938 509 742.501953125 c 0
 499.666992188 736.168945312 489.666992188 733.001953125 479 733.001953125 c 0
 463 733.001953125 446.833007812 728.001953125 430.5 718.001953125 c 0
 414.166992188 708.001953125 398.666992188 694.334960938 384 677.001953125 c 0
 369.333007812 659.668945312 355.833007812 640.668945312 343.5 620.001953125 c 0
 331.166992188 599.334960938 319.666992188 577.001953125 309 553.001953125 c 0
 293 518.334960938 276.5 470.66796875 259.5 410.000976562 c 0
 242.5 349.333984375 231 300.000976562 225 262.000976562 c 0
 220.090820312 228.727539062 217.63671875 196.235351562 217.63671875 164.5234375 c 0
 217.63671875 157.477539062 217.7578125 150.469726562 218 143.500976562 c 0
 219.333007812 105.16796875 223.5 72.16796875 230.5 44.5009765625 c 0
 237.5 16.833984375 247.166992188 -5.3330078125 259.5 -22 c 0
 271.833007812 -38.6669921875 285.333007812 -47 300 -47 c 0
 312 -47 320.333007812 -50.3330078125 325 -57 c 0
 327.512695312 -60.58984375 328.76953125 -65.7255859375 328.76953125 -72.408203125 c 0
 328.76953125 -78.1357421875 327.846679688 -85 326 -93 c 0
EndSplineSet
Validated: 524289
EndChar

StartChar: parenright
Encoding: 41 41 20
Width: 650
GlyphClass: 2
Flags: HMW
HStem: -131.005 84<165.664 172.665> 732.998 81.002<347.333 379.666>
VStem: 439.999 86.001
LayerCount: 2
Fore
SplineSet
476 246 m 0
 452 172 422.997070312 106.662109375 388.997070312 49.9951171875 c 0
 354.997070312 -6.671875 317.330078125 -51.0048828125 275.997070312 -83.0048828125 c 0
 234.6640625 -115.004882812 193.331054688 -131.004882812 151.998046875 -131.004882812 c 0
 143.331054688 -131.004882812 135.6640625 -127.337890625 128.997070312 -120.004882812 c 0
 122.330078125 -112.671875 120.330078125 -103.671875 122.997070312 -93.0048828125 c 0
 126.997070312 -75.671875 132.997070312 -63.671875 140.997070312 -57.0048828125 c 0
 148.997070312 -50.337890625 159.330078125 -47.0048828125 171.997070312 -47.0048828125 c 0
 186.6640625 -47.0048828125 203.831054688 -38.671875 223.498046875 -22.0048828125 c 0
 243.165039062 -5.337890625 262.998046875 16.8291015625 282.998046875 44.49609375 c 0
 302.998046875 72.1630859375 322.665039062 105.330078125 341.998046875 143.997070312 c 0
 361.331054688 182.6640625 376.998046875 221.997070312 388.998046875 261.997070312 c 0
 400.998046875 299.997070312 412.331054688 349.330078125 422.998046875 409.997070312 c 0
 433.665039062 470.6640625 439.33203125 518.331054688 439.999023438 552.998046875 c 0
 439.999023438 576.998046875 438.499023438 599.331054688 435.499023438 619.998046875 c 0
 432.499023438 640.665039062 427.83203125 659.665039062 421.499023438 676.998046875 c 0
 415.166015625 694.331054688 406.166015625 707.998046875 394.499023438 717.998046875 c 0
 382.83203125 727.998046875 368.999023438 732.998046875 352.999023438 732.998046875 c 0
 341.666015625 732.998046875 332.999023438 736.165039062 326.999023438 742.498046875 c 0
 322.844726562 746.8828125 320.768554688 753.104492188 320.768554688 761.1640625 c 0
 320.768554688 764.745117188 321.178710938 768.690429688 321.999023438 772.998046875 c 0
 323.999023438 781.665039062 326.999023438 788.83203125 330.999023438 794.499023438 c 0
 334.999023438 800.166015625 339.33203125 804.333007812 343.999023438 807 c 0
 348.666015625 809.666992188 352.999023438 811.5 356.999023438 812.5 c 0
 360.999023438 813.5 364.999023438 814 368.999023438 814 c 0
 390.33203125 814 410.33203125 808.5 428.999023438 797.5 c 0
 447.666015625 786.5 463.499023438 772 476.499023438 754 c 0
 489.499023438 736 500.33203125 716.166992188 508.999023438 694.5 c 0
 517.666015625 672.833007812 523.333007812 651 526 629 c 0
 528.038085938 611.791992188 529.056640625 593.0078125 529.056640625 572.647460938 c 0
 529.056640625 533.057617188 525.204101562 487.508789062 517.5 436 c 0
 505.833007812 358 492 294.666992188 476 246 c 0
EndSplineSet
Validated: 524289
EndChar

StartChar: asterisk
Encoding: 42 42 21
Width: 650
GlyphClass: 2
Flags: HMW
HStem: 292.998 103.999 305.999 77<382.998 426.998>
VStem: 231.997 86.001 331.998 86
LayerCount: 2
Fore
SplineSet
228 139 m 0x70
 224 131 218.498046875 124.999023438 211.498046875 120.999023438 c 0
 204.498046875 116.999023438 197.331054688 114.666015625 189.998046875 113.999023438 c 0
 182.665039062 113.33203125 175.998046875 113.83203125 169.998046875 115.499023438 c 0
 163.998046875 117.166015625 158.998046875 119.333007812 154.998046875 122 c 0
 150.331054688 125.333007812 146.6640625 130.166015625 143.997070312 136.499023438 c 0
 141.330078125 142.83203125 140.497070312 150.665039062 141.497070312 159.998046875 c 0
 142.497070312 169.331054688 146.6640625 178.998046875 153.997070312 188.998046875 c 2
 240.997070312 297.998046875 l 1
 188.997070312 294.665039062 150.997070312 292.998046875 126.997070312 292.998046875 c 0
 112.330078125 292.998046875 101.997070312 298.331054688 95.9970703125 308.998046875 c 0
 91.8427734375 316.3828125 89.7666015625 324.086914062 89.7666015625 332.110351562 c 0
 89.7666015625 335.676757812 90.1767578125 339.305664062 90.9970703125 342.998046875 c 0
 91.6640625 348.998046875 93.4970703125 355.165039062 96.4970703125 361.498046875 c 0
 99.4970703125 367.831054688 103.330078125 373.831054688 107.997070312 379.498046875 c 0
 112.6640625 385.165039062 118.6640625 389.665039062 125.997070312 392.998046875 c 0
 133.330078125 396.331054688 140.663085938 397.6640625 147.99609375 396.997070312 c 0xb0
 175.99609375 394.330078125 217.329101562 390.997070312 271.99609375 386.997070312 c 1
 256.663085938 435.6640625 243.330078125 472.997070312 231.997070312 498.997070312 c 0
 229.330078125 506.6640625 227.997070312 514.247070312 227.997070312 521.747070312 c 0
 227.997070312 529.247070312 229.330078125 536.663085938 231.997070312 543.997070312 c 0
 237.330078125 558.6640625 245.330078125 568.331054688 255.997070312 572.998046875 c 0
 262.6640625 576.998046875 270.1640625 579.165039062 278.497070312 579.498046875 c 0
 286.830078125 579.831054688 294.830078125 577.331054688 302.497070312 571.998046875 c 0
 310.1640625 566.665039062 315.331054688 558.665039062 317.998046875 547.998046875 c 0
 321.331054688 531.998046875 330.6640625 493.665039062 345.997070312 432.998046875 c 1
 381.330078125 478.331054688 408.663085938 516.331054688 427.99609375 546.998046875 c 0
 434.663085938 557.665039062 442.830078125 565.665039062 452.497070312 570.998046875 c 0
 462.1640625 576.331054688 470.831054688 578.831054688 478.498046875 578.498046875 c 0
 486.165039062 578.165039062 492.33203125 575.665039062 496.999023438 570.998046875 c 0
 502.33203125 567.665039062 506.165039062 562.33203125 508.498046875 554.999023438 c 0
 510.831054688 547.666015625 510.831054688 538.999023438 508.498046875 528.999023438 c 0
 506.165039062 518.999023438 500.998046875 509.33203125 492.998046875 499.999023438 c 0
 465.665039062 468.666015625 434.665039062 429.666015625 399.998046875 382.999023438 c 1
 453.998046875 382.999023438 493.331054688 386.666015625 517.998046875 393.999023438 c 0
 522.665039062 395.484375 526.977539062 396.2265625 530.935546875 396.2265625 c 0
 539.416992188 396.2265625 546.271484375 392.817382812 551.499023438 385.999023438 c 0
 557.580078125 378.068359375 560.620117188 369.717773438 560.620117188 360.948242188 c 0
 560.620117188 358.66015625 560.413085938 356.34375 559.999023438 353.999023438 c 0
 558.666015625 347.999023438 556.666015625 341.999023438 553.999023438 335.999023438 c 0
 551.33203125 329.999023438 547.83203125 323.999023438 543.499023438 317.999023438 c 0
 539.166015625 311.999023438 533.666015625 307.33203125 526.999023438 303.999023438 c 0
 520.33203125 300.666015625 513.665039062 299.999023438 506.998046875 301.999023438 c 0
 491.998046875 304.999023438 464.997070312 306.499023438 425.99609375 306.499023438 c 0
 412.997070312 306.499023438 398.6640625 306.33203125 382.998046875 305.999023438 c 1
 418.998046875 189.999023438 l 2
 420.512695312 183.029296875 421.270507812 176.438476562 421.270507812 170.2265625 c 0
 421.270507812 162.771484375 420.1796875 155.862304688 417.998046875 149.499023438 c 0
 413.998046875 137.83203125 407.331054688 129.33203125 397.998046875 123.999023438 c 0
 391.331054688 119.999023438 382.998046875 117.666015625 372.998046875 116.999023438 c 0
 362.998046875 116.33203125 353.831054688 118.33203125 345.498046875 122.999023438 c 0
 337.165039062 127.666015625 332.665039062 135.333007812 331.998046875 146 c 0
 330.665039062 172.666992188 323.33203125 211 309.999023438 261 c 1
 266.666015625 199.666992188 239.333007812 159 228 139 c 0x70
EndSplineSet
Validated: 524289
EndChar

StartChar: plus
Encoding: 43 43 22
Width: 650
GlyphClass: 2
Flags: HMW
HStem: 356.998 84.001<269.666 295.998>
LayerCount: 2
Fore
SplineSet
327 250 m 0
 323.666992188 234.666992188 317.999023438 223.831054688 309.999023438 217.498046875 c 0
 301.999023438 211.165039062 292.666015625 207.998046875 281.999023438 207.998046875 c 0
 260.448242188 207.998046875 249.671875 216.701171875 249.671875 234.108398438 c 0
 249.671875 238.778320312 250.448242188 244.075195312 251.999023438 249.998046875 c 2
 275.999023438 356.998046875 l 1
 263.33203125 356.998046875 246.499023438 356.831054688 225.499023438 356.498046875 c 0
 204.499023438 356.165039062 190.33203125 355.998046875 182.999023438 355.998046875 c 0
 167.666015625 355.998046875 157.166015625 360.165039062 151.499023438 368.498046875 c 0
 147.645507812 374.1640625 145.71875 380.678710938 145.71875 388.041015625 c 0
 145.71875 391.505859375 146.145507812 395.158203125 146.999023438 398.998046875 c 0
 148.999023438 411.665039062 154.666015625 422.33203125 163.999023438 430.999023438 c 0
 172.665039062 439.046875 184.206054688 443.0703125 198.620117188 443.0703125 c 0
 199.729492188 443.0703125 200.85546875 443.046875 201.999023438 442.999023438 c 0
 245.33203125 441.666015625 276.665039062 440.999023438 295.998046875 440.999023438 c 1
 303.998046875 474.33203125 311.331054688 510.33203125 317.998046875 548.999023438 c 0
 323.331054688 577.666015625 339.998046875 591.999023438 367.998046875 591.999023438 c 0
 380.665039062 592.666015625 390.33203125 589.999023438 396.999023438 583.999023438 c 0
 400.920898438 580.469726562 402.881835938 575.094726562 402.881835938 567.875 c 0
 402.881835938 562.8203125 401.920898438 556.862304688 399.999023438 549.999023438 c 0
 388.666015625 511.33203125 378.999023438 474.33203125 370.999023438 438.999023438 c 1
 472.999023438 438.999023438 l 2
 487.666015625 438.999023438 496.999023438 435.666015625 500.999023438 428.999023438 c 0
 504.999023438 422.33203125 506.33203125 413.33203125 504.999023438 401.999023438 c 0
 503.666015625 395.999023438 501.833007812 390.499023438 499.5 385.499023438 c 0
 497.166992188 380.499023438 494 375.666015625 490 370.999023438 c 0
 486 366.33203125 481 362.83203125 475 360.499023438 c 0
 469 358.166015625 462.333007812 357.333007812 455 358 c 0
 445.400390625 359.200195312 429.201171875 359.799804688 406.401367188 359.799804688 c 0
 391.201171875 359.799804688 373.067382812 359.533203125 352 359 c 1
 348 341 343.166992188 319.666992188 337.5 295 c 0
 331.833007812 270.333007812 328.333007812 255.333007812 327 250 c 0
EndSplineSet
Validated: 524289
EndChar

StartChar: comma
Encoding: 44 44 23
Width: 650
GlyphClass: 2
Flags: HMW
VStem: 196.501 254.999
LayerCount: 2
Fore
SplineSet
450 96 m 0
 436 63.3330078125 411.001953125 12.9990234375 375.001953125 -55.0009765625 c 0
 339.001953125 -123.000976562 313.668945312 -165.000976562 299.001953125 -181.000976562 c 0
 285.668945312 -195.000976562 270.668945312 -205.000976562 254.001953125 -211.000976562 c 0
 244.001953125 -214.600585938 235.44140625 -216.401367188 228.321289062 -216.401367188 c 0
 223.57421875 -216.401367188 219.467773438 -215.600585938 216.000976562 -214.000976562 c 0
 210.000976562 -212.000976562 205.000976562 -208.000976562 201.000976562 -202.000976562 c 0
 197.000976562 -196.000976562 195.500976562 -188.66796875 196.500976562 -180.000976562 c 0
 197.500976562 -171.333984375 202.000976562 -162.333984375 210.000976562 -153.000976562 c 0
 227.333984375 -133.000976562 255.166992188 -89.0009765625 293.5 -21.0009765625 c 0
 331.833007812 46.9990234375 356.666015625 94.33203125 367.999023438 120.999023438 c 0
 371.999023438 130.33203125 378.166015625 137.665039062 386.499023438 142.998046875 c 0
 394.83203125 148.331054688 402.83203125 150.998046875 410.499023438 150.998046875 c 0
 418.166015625 150.998046875 425.333007812 150.331054688 432 148.998046875 c 0
 440.666992188 145.665039062 447.166992188 139.33203125 451.5 129.999023438 c 0
 453.442382812 125.815429688 454.413085938 121.229492188 454.413085938 116.2421875 c 0
 454.413085938 110.103515625 452.942382812 103.356445312 450 96 c 0
EndSplineSet
Validated: 524289
EndChar

StartChar: hyphen
Encoding: 45 45 24
Width: 650
GlyphClass: 2
Flags: HMW
HStem: 243 87<216.333 222.001> 251 82<417.001 447.335>
VStem: 181.001 290.001
LayerCount: 2
Fore
SplineSet
230 330 m 0xa0
 265.333007812 330 307.501953125 330.5 356.501953125 331.5 c 0
 405.501953125 332.5 433.334960938 333 440.001953125 333 c 0
 454.668945312 333 464.001953125 329.5 468.001953125 322.5 c 0
 472.001953125 315.5 473.001953125 306.333007812 471.001953125 295 c 0
 464.334960938 265.666992188 447.66796875 251 421.000976562 251 c 0x60
 413.000976562 251 381.500976562 249.666992188 326.500976562 247 c 0
 271.500976562 244.333007812 233.000976562 243 211.000976562 243 c 0
 189.66796875 243 179.000976562 252.172851562 179.000976562 270.51953125 c 0
 179.000976562 275.106445312 179.66796875 280.266601562 181.000976562 286 c 0
 186.333984375 315.333007812 202.666992188 330 230 330 c 0xa0
EndSplineSet
Validated: 524289
EndChar

StartChar: period
Encoding: 46 46 25
Width: 650
GlyphClass: 2
Flags: HMW
HStem: -14 153.998
VStem: 250.001 151
LayerCount: 2
Fore
SplineSet
309 -14 m 0
 305.723632812 -14.3740234375 302.572265625 -14.5615234375 299.546875 -14.5615234375 c 0
 281.018554688 -14.5615234375 267.170898438 -7.5439453125 258.001953125 6.49609375 c 0
 250.890625 17.384765625 247.334960938 29.5341796875 247.334960938 42.94140625 c 0
 247.334960938 49.6455078125 248.223632812 56.6630859375 250.000976562 63.99609375 c 0
 254.66796875 84.6630859375 266.66796875 102.330078125 286.000976562 116.997070312 c 0
 305.333984375 131.6640625 325.000976562 139.331054688 345.000976562 139.998046875 c 0
 345.979492188 140.02734375 346.946289062 140.04296875 347.901367188 140.04296875 c 0
 368.426757812 140.04296875 383.626953125 133.194335938 393.500976562 119.499023438 c 0
 400.31640625 110.044921875 403.724609375 98.923828125 403.724609375 86.1337890625 c 0
 403.724609375 79.533203125 402.81640625 72.48828125 401.000976562 64.9990234375 c 0
 396.333984375 43.666015625 385.666992188 25.8330078125 369 11.5 c 0
 352.333007812 -2.8330078125 332.333007812 -11.3330078125 309 -14 c 0
EndSplineSet
Validated: 524289
EndChar

StartChar: slash
Encoding: 47 47 26
Width: 650
GlyphClass: 2
Flags: HMW
VStem: 9 95
LayerCount: 2
Fore
SplineSet
626 676 m 0
 602 642 537.501953125 558.498046875 432.501953125 425.498046875 c 0
 327.501953125 292.498046875 263.334960938 209.998046875 240.001953125 177.998046875 c 0
 225.334960938 157.331054688 201.16796875 122.331054688 167.500976562 72.998046875 c 0
 133.833984375 23.6650390625 112.666992188 -6.3349609375 104 -17.001953125 c 0
 90 -35.6689453125 74.5 -48.6689453125 57.5 -56.001953125 c 0
 49 -59.66796875 41.375 -61.501953125 34.625 -61.501953125 c 0
 27.875 -61.501953125 22 -59.66796875 17 -56.001953125 c 0
 11 -52.001953125 8 -44.0654296875 8 -32.1904296875 c 0
 8 -28.232421875 8.3330078125 -23.8359375 9 -19.0029296875 c 0
 11.6669921875 0.330078125 19.6669921875 17.9970703125 33 33.9970703125 c 0
 161 193.997070312 271.333007812 336.330078125 364 460.997070312 c 0
 422 537.6640625 484.666992188 624.331054688 552 720.998046875 c 0
 559.333007812 731.665039062 568 739.83203125 578 745.499023438 c 0
 588 751.166015625 597 753.833007812 605 753.5 c 0
 613 753.166992188 620.666992188 751.333984375 628 748.000976562 c 0
 638 742.000976562 643 732.66796875 643 720.000976562 c 0
 643 707.333984375 637.333007812 692.666992188 626 676 c 0
EndSplineSet
Validated: 524289
EndChar

StartChar: zero
Encoding: 48 48 27
Width: 650
GlyphClass: 2
Flags: HMW
HStem: -24 83.999<221.001 232.333> 636.999 81.001<407.333 408.667>
LayerCount: 2
Fore
SplineSet
223 -24 m 0
 194.333007812 -24 168.833984375 -18.333984375 146.500976562 -7.0009765625 c 0
 124.16796875 4.33203125 106.66796875 19.9990234375 94.0009765625 39.9990234375 c 0
 81.333984375 59.9990234375 73.5009765625 84.9990234375 70.5009765625 114.999023438 c 0
 69.771484375 122.295898438 69.40625 129.770507812 69.40625 137.422851562 c 0
 69.40625 161.23046875 72.9384765625 186.755859375 80.0009765625 213.999023438 c 0
 81.333984375 220.666015625 84.833984375 237.166015625 90.5009765625 263.499023438 c 0
 96.16796875 289.83203125 100.834960938 310.83203125 104.501953125 326.499023438 c 0
 108.168945312 342.166015625 113.668945312 363.833007812 121.001953125 391.5 c 0
 128.334960938 419.166992188 135.334960938 443 142.001953125 463 c 0
 148.668945312 483 157.001953125 504.5 167.001953125 527.5 c 0
 177.001953125 550.5 187.001953125 570.666992188 197.001953125 588 c 0
 222.334960938 630 255.16796875 662.166992188 295.500976562 684.5 c 0
 335.833984375 706.833007812 381.666992188 718 433 718 c 0
 458.333007812 718 480.833007812 713.333007812 500.5 704 c 0
 520.166992188 694.666992188 536.833984375 681 550.500976562 663 c 0
 564.16796875 645 573.334960938 621.666992188 578.001953125 593 c 0
 580.1796875 579.62109375 581.26953125 565.298828125 581.26953125 550.032226562 c 0
 581.26953125 532.586914062 579.846679688 513.91015625 577.002929688 494 c 0
 571.669921875 460.666992188 564.336914062 422.833984375 555.00390625 380.500976562 c 0
 545.670898438 338.16796875 534.670898438 295.500976562 522.00390625 252.500976562 c 0
 509.336914062 209.500976562 497.669921875 176.66796875 487.002929688 154.000976562 c 0
 476.3359375 131.333984375 465.668945312 111.333984375 455.001953125 94.0009765625 c 0
 444.334960938 76.66796875 433.66796875 61.66796875 423.000976562 49.0009765625 c 0
 412.333984375 36.333984375 400.833984375 25.6669921875 388.500976562 17 c 0
 376.16796875 8.3330078125 364.16796875 1.3330078125 352.500976562 -4 c 0
 340.833984375 -9.3330078125 327.833984375 -13.5 313.500976562 -16.5 c 0
 299.16796875 -19.5 285.16796875 -21.5 271.500976562 -22.5 c 0
 257.833984375 -23.5 241.666992188 -24 223 -24 c 0
174.000976562 229.999023438 m 0
 173.333984375 227.33203125 172.500976562 223.333007812 171.500976562 218 c 0
 170.500976562 212.666992188 169.66796875 209 169.000976562 207 c 1
 280.333984375 329 384.333984375 454.333007812 481.000976562 583 c 1
 473.66796875 600.333007812 463.000976562 613.666015625 449.000976562 622.999023438 c 0
 435.000976562 632.33203125 418.333984375 636.999023438 399.000976562 636.999023438 c 0
 364.333984375 636.999023438 335.000976562 626.666015625 311.000976562 605.999023438 c 0
 287.000976562 585.33203125 265.000976562 551.999023438 245.000976562 505.999023438 c 0
 237.000976562 489.33203125 229.500976562 469.83203125 222.500976562 447.499023438 c 0
 215.500976562 425.166015625 208.500976562 398.166015625 201.500976562 366.499023438 c 0
 194.500976562 334.83203125 189.833984375 312.499023438 187.500976562 299.499023438 c 0
 185.16796875 286.499023438 180.66796875 263.33203125 174.000976562 229.999023438 c 0
403.000976562 168 m 0
 407.000976562 176 414.66796875 197.999023438 426.000976562 233.999023438 c 0
 437.333984375 269.999023438 449.000976562 311.166015625 461.000976562 357.499023438 c 0
 473.000976562 403.83203125 482.333984375 448.33203125 489.000976562 490.999023438 c 1
 388.333984375 344.33203125 281.333984375 221.33203125 168.000976562 121.999023438 c 1
 175.333984375 80.666015625 200.000976562 59.9990234375 242.000976562 59.9990234375 c 0
 258.66796875 59.9990234375 274.000976562 61.4990234375 288.000976562 64.4990234375 c 0
 302.000976562 67.4990234375 315.833984375 72.83203125 329.500976562 80.4990234375 c 0
 343.16796875 88.166015625 356.000976562 99.3330078125 368.000976562 114 c 0
 380.000976562 128.666992188 391.66796875 146.666992188 403.000976562 168 c 0
EndSplineSet
Validated: 524289
EndChar

StartChar: one
Encoding: 49 49 28
Width: 650
GlyphClass: 2
Flags: HMW
HStem: -9 85.5 -5 89<143.666 144.331>
LayerCount: 2
Fore
SplineSet
552 38 m 0x80
 549.333007812 24.6669921875 543.497070312 13.5 534.497070312 4.5 c 0
 525.497070312 -4.5 511.6640625 -9 492.997070312 -9 c 0x80
 484.997070312 -9 429.997070312 -8.3330078125 327.997070312 -7 c 0
 225.997070312 -5.6669921875 159.6640625 -5 128.997070312 -5 c 0
 114.997070312 -5 105.830078125 -1 101.497070312 7 c 0
 98.814453125 11.9521484375 97.4736328125 17.7978515625 97.4736328125 24.5380859375 c 0
 97.4736328125 28.6865234375 97.9814453125 33.173828125 98.998046875 38 c 0
 101.665039062 51.3330078125 107.33203125 62.3330078125 115.999023438 71 c 0
 124.666015625 79.6669921875 136.333007812 84 151 84 c 0x40
 179 84 226.666992188 83.6669921875 294 83 c 1
 300 109.666992188 304.666992188 131 308 147 c 0
 308.666992188 152.333007812 312.5 170 319.5 200 c 0
 326.5 230 331.666992188 251.666992188 335 265 c 0
 338.333007812 278.333007812 344.833007812 303 354.5 339 c 0
 364.166992188 375 371.166992188 401.833007812 375.5 419.5 c 0
 379.833007812 437.166992188 387.166015625 465.166992188 397.499023438 503.5 c 0
 407.83203125 541.833007812 415.665039062 570 420.998046875 588 c 1
 365.665039062 546.666992188 326.33203125 522 302.999023438 514 c 0
 298.896484375 512.359375 294.952148438 511.5390625 291.165039062 511.5390625 c 0
 282.64453125 511.5390625 274.921875 515.692382812 267.999023438 524 c 0
 260.499023438 533 256.749023438 542 256.749023438 551 c 0
 256.749023438 554 257.166015625 557 257.999023438 560 c 0
 259.999023438 570.666992188 264.33203125 580.166992188 270.999023438 588.5 c 0
 277.666015625 596.833007812 287.666015625 605.333007812 300.999023438 614 c 0
 322.33203125 628.666992188 344.83203125 644.833984375 368.499023438 662.500976562 c 0
 392.166015625 680.16796875 409.499023438 693.000976562 420.499023438 701.000976562 c 0
 431.499023438 709.000976562 442.166015625 715.833984375 452.499023438 721.500976562 c 0
 462.83203125 727.16796875 471.665039062 730.000976562 478.998046875 730.000976562 c 0
 492.331054688 730.000976562 504.498046875 724.000976562 515.498046875 712.000976562 c 0
 524.805664062 701.846679688 529.459960938 693.125 529.459960938 685.834960938 c 0
 529.459960938 683.2109375 529.459960938 683.2109375 485.498046875 518.500976562 c 0
 460.498046875 424.833984375 446.331054688 370.000976562 442.998046875 354.000976562 c 0
 427.665039062 287.333984375 414.998046875 231.666992188 404.998046875 187 c 0
 398.998046875 162.333007812 391.665039062 126.333007812 382.998046875 79 c 1
 400.998046875 79 419.831054688 78.6669921875 439.498046875 78 c 0
 459.165039062 77.3330078125 475.33203125 76.8330078125 487.999023438 76.5 c 0
 500.666015625 76.1669921875 509.333007812 76 514 76 c 0
 531.333007812 76 542.5 72.5 547.5 65.5 c 0
 552.5 58.5 554 49.3330078125 552 38 c 0x80
EndSplineSet
Validated: 524289
EndChar

StartChar: two
Encoding: 50 50 29
Width: 650
GlyphClass: 2
Flags: HMW
HStem: -18.0049 84.0049 -12 89<433 469.501> 637.997 83.999<417.334 430.336>
LayerCount: 2
Fore
SplineSet
446 -12 m 0x60
 420 -12 387.501953125 -12.6728515625 348.501953125 -14.005859375 c 0
 309.501953125 -15.3388671875 274.834960938 -16.671875 244.501953125 -18.0048828125 c 0
 214.168945312 -19.337890625 183.501953125 -20.0048828125 152.501953125 -20.0048828125 c 0
 121.501953125 -20.0048828125 97.3349609375 -18.671875 80.001953125 -16.0048828125 c 0
 66.6689453125 -14.671875 58.8359375 -5.671875 56.5029296875 10.9951171875 c 0
 55.9765625 14.7587890625 55.712890625 18.8955078125 55.712890625 23.4072265625 c 0
 55.712890625 38.8740234375 58.8095703125 58.7373046875 65.0029296875 82.9951171875 c 0
 71.669921875 111.662109375 84.169921875 141.829101562 102.502929688 173.49609375 c 0
 120.8359375 205.163085938 144.668945312 235.49609375 174.001953125 264.49609375 c 0
 203.334960938 293.49609375 235.001953125 316.99609375 269.001953125 334.99609375 c 0
 345.001953125 374.99609375 394.334960938 402.99609375 417.001953125 418.99609375 c 0
 447.001953125 440.329101562 468.334960938 462.99609375 481.001953125 486.99609375 c 0
 487.668945312 500.99609375 493.3359375 518.329101562 498.002929688 538.99609375 c 0
 500.78515625 551.053710938 502.176757812 561.962890625 502.176757812 571.72265625 c 0
 502.176757812 590.021484375 497.28515625 604.279296875 487.502929688 614.497070312 c 0
 472.502929688 630.1640625 447.669921875 637.997070312 413.002929688 637.997070312 c 0
 389.002929688 637.997070312 364.002929688 629.997070312 338.002929688 613.997070312 c 0
 312.002929688 597.997070312 290.669921875 580.330078125 274.002929688 560.997070312 c 0
 266.002929688 552.330078125 259.169921875 545.497070312 253.502929688 540.497070312 c 0
 247.8359375 535.497070312 242.168945312 532.6640625 236.501953125 531.997070312 c 0
 230.834960938 531.330078125 225.834960938 531.663085938 221.501953125 532.99609375 c 0
 217.168945312 534.329101562 212.001953125 536.662109375 206.001953125 539.995117188 c 0
 196.668945312 545.995117188 192.001953125 554.662109375 192.001953125 565.995117188 c 0
 192.001953125 577.328125 198.001953125 591.995117188 210.001953125 609.995117188 c 0
 219.334960938 622.662109375 231.501953125 635.329101562 246.501953125 647.99609375 c 0
 261.501953125 660.663085938 278.501953125 672.663085938 297.501953125 683.99609375 c 0
 316.501953125 695.329101562 337.668945312 704.49609375 361.001953125 711.49609375 c 0
 384.334960938 718.49609375 406.66796875 721.99609375 428.000976562 721.99609375 c 0
 495.333984375 721.99609375 542.500976562 705.329101562 569.500976562 671.99609375 c 0
 586.721679688 650.736328125 595.331054688 622.697265625 595.331054688 587.877929688 c 0
 595.331054688 568.103515625 592.5546875 546.143554688 587.000976562 521.99609375 c 0
 574.333984375 466.663085938 551.000976562 422.330078125 517.000976562 388.997070312 c 0
 491.66796875 364.330078125 450.66796875 336.997070312 394.000976562 306.997070312 c 0
 380.000976562 298.997070312 355.66796875 286.6640625 321.000976562 269.997070312 c 0
 291.000976562 254.6640625 264.500976562 235.831054688 241.500976562 213.498046875 c 0
 218.500976562 191.165039062 200.333984375 168.33203125 187.000976562 144.999023438 c 0
 173.66796875 121.666015625 163.000976562 96.3330078125 155.000976562 69 c 1
 189.000976562 67 222.000976562 66 254.000976562 66 c 0xa0
 286.000976562 66 311.16796875 66.5 329.500976562 67.5 c 0
 347.833984375 68.5 369.000976562 70 393.000976562 72 c 2
 441.000976562 76 l 2
 441.66796875 76 444.66796875 76.1669921875 450.000976562 76.5 c 0
 455.333984375 76.8330078125 458.833984375 77 460.500976562 77 c 2
 469.500976562 77 l 2
 473.833984375 77 477.000976562 76.3330078125 479.000976562 75 c 0
 481.000976562 73.6669921875 483.16796875 72 485.500976562 70 c 0
 487.833984375 68 489.500976562 65.3330078125 490.500976562 62 c 0
 491.500976562 58.6669921875 491.66796875 54.6669921875 491.000976562 50 c 0
 490.333984375 42 488.166992188 33.5 484.5 24.5 c 0
 480.833007812 15.5 475.5 7.1669921875 468.5 -0.5 c 0
 461.5 -8.1669921875 454 -12 446 -12 c 0x60
EndSplineSet
Validated: 524289
EndChar

StartChar: three
Encoding: 51 51 30
Width: 650
GlyphClass: 2
Flags: HMW
HStem: -23.9941 84<251.666 275.333> 318.006 100<280.666 287.333> 638.006 83.998<391.001 405.999>
VStem: 422.5 100
LayerCount: 2
Fore
SplineSet
515 199 m 0
 499.666992188 130.333007812 467.666992188 76.005859375 419 36.005859375 c 0
 370.333007812 -3.994140625 310.666015625 -23.994140625 239.999023438 -23.994140625 c 0
 217.999023438 -23.994140625 197.166015625 -20.494140625 177.499023438 -13.494140625 c 0
 157.83203125 -6.494140625 140.999023438 2.505859375 126.999023438 13.505859375 c 0
 112.999023438 24.505859375 101.33203125 36.505859375 91.9990234375 49.505859375 c 0
 82.666015625 62.505859375 76.666015625 75.3388671875 73.9990234375 88.005859375 c 0
 72.666015625 94.138671875 71.9990234375 100.059570312 71.9990234375 105.765625 c 0
 71.9990234375 114.326171875 73.4990234375 122.405273438 76.4990234375 130.005859375 c 0
 81.4990234375 142.672851562 89.666015625 151.672851562 100.999023438 157.005859375 c 0
 110.654296875 161.603515625 119.278320312 163.90234375 126.872070312 163.90234375 c 0
 130.290039062 163.90234375 133.499023438 163.436523438 136.499023438 162.505859375 c 0
 146.166015625 159.505859375 154.333007812 151.005859375 161 137.005859375 c 0
 170.333007812 117.005859375 183.666015625 99.1728515625 200.999023438 83.505859375 c 0
 218.33203125 67.8388671875 239.33203125 60.005859375 263.999023438 60.005859375 c 0
 300.666015625 60.005859375 333.666015625 71.3388671875 362.999023438 94.005859375 c 0
 392.33203125 116.672851562 410.999023438 146.005859375 418.999023438 182.005859375 c 0
 422.110351562 196.673828125 423.666015625 210.0078125 423.666015625 222.008789062 c 0
 423.666015625 228.0078125 423.27734375 233.672851562 422.5 239.005859375 c 0
 420.166992188 255.005859375 413.666992188 269.005859375 403 281.005859375 c 0
 392.333007812 293.005859375 375.833007812 302.172851562 353.5 308.505859375 c 0
 331.166992188 314.838867188 303.666992188 318.005859375 271 318.005859375 c 0
 258.333007812 318.005859375 248.666015625 323.505859375 241.999023438 334.505859375 c 0
 237.553710938 341.83984375 235.33203125 349.692382812 235.33203125 358.0625 c 0
 235.33203125 362.248046875 235.88671875 366.561523438 236.998046875 371.005859375 c 0
 240.331054688 385.005859375 246.331054688 396.338867188 254.998046875 405.005859375 c 0
 263.665039062 413.672851562 274.33203125 418.005859375 286.999023438 418.005859375 c 0
 338.999023438 418.005859375 382.499023438 429.172851562 417.499023438 451.505859375 c 0
 452.499023438 473.838867188 474.33203125 506.338867188 482.999023438 549.005859375 c 0
 485.55859375 558.60546875 486.838867188 567.420898438 486.838867188 575.450195312 c 0
 486.838867188 592.513671875 481.05859375 606.032226562 469.499023438 616.005859375 c 0
 452.499023438 630.672851562 424.999023438 638.005859375 386.999023438 638.005859375 c 0
 379.666015625 638.005859375 372.499023438 637.172851562 365.499023438 635.505859375 c 0
 358.499023438 633.838867188 352.499023438 632.171875 347.499023438 630.504882812 c 0
 342.499023438 628.837890625 336.999023438 626.004882812 330.999023438 622.004882812 c 0
 324.999023438 618.004882812 320.166015625 614.671875 316.499023438 612.004882812 c 0
 312.83203125 609.337890625 307.999023438 605.004882812 301.999023438 599.004882812 c 2
 289.499023438 586.504882812 l 2
 287.166015625 584.171875 282.999023438 579.338867188 276.999023438 572.005859375 c 0
 263.666015625 557.338867188 251.499023438 548.671875 240.499023438 546.004882812 c 0
 237.356445312 545.243164062 234.25390625 544.862304688 231.192382812 544.862304688 c 0
 223.5390625 544.862304688 216.141601562 547.243164062 208.999023438 552.004882812 c 0
 200.288085938 556.982421875 195.93359375 565.0078125 195.93359375 576.083007812 c 0
 195.93359375 588.150390625 200.974609375 603.212890625 213.000976562 622.00390625 c 0
 222.333984375 635.336914062 233.000976562 647.50390625 245.000976562 658.50390625 c 0
 257.000976562 669.50390625 270.66796875 680.00390625 286.000976562 690.00390625 c 0
 301.333984375 700.00390625 319.000976562 707.836914062 339.000976562 713.50390625 c 0
 359.000976562 719.170898438 380.000976562 722.00390625 402.000976562 722.00390625 c 0
 473.333984375 722.00390625 523.333984375 706.00390625 552.000976562 674.00390625 c 0
 570.399414062 653.466796875 579.59765625 626.614257812 579.59765625 593.4453125 c 0
 579.59765625 574.932617188 576.732421875 554.452148438 571.000976562 532.00390625 c 0
 567.000976562 512.670898438 560.833984375 495.170898438 552.500976562 479.50390625 c 0
 544.16796875 463.836914062 534.66796875 450.50390625 524.000976562 439.50390625 c 0
 513.333984375 428.50390625 501.166992188 418.836914062 487.5 410.50390625 c 0
 473.833007812 402.170898438 460.5 395.670898438 447.5 391.00390625 c 0
 434.5 386.336914062 420.666992188 382.669921875 406 380.002929688 c 1
 430 374.002929688 450 366.669921875 466 358.002929688 c 0
 482 349.3359375 495 338.168945312 505 324.501953125 c 0
 515 310.834960938 520.833007812 293.66796875 522.5 273.000976562 c 0
 522.833007812 268.8671875 523 264.573242188 523 260.119140625 c 0
 523 242.305664062 520.333007812 221.932617188 515 199 c 0
EndSplineSet
Validated: 524289
EndChar

StartChar: four
Encoding: 52 52 31
Width: 650
GlyphClass: 2
Flags: HMW
HStem: -23.001 21G<370.334 383.001> 223.999 79.999
LayerCount: 2
Fore
SplineSet
431 55 m 0
 430.333007812 33.6669921875 424.500976562 15.33203125 413.500976562 -0.0009765625 c 0
 402.500976562 -15.333984375 390.000976562 -23.0009765625 376.000976562 -23.0009765625 c 0
 364.66796875 -23.0009765625 354.66796875 -18.16796875 346.000976562 -8.5009765625 c 0
 338.489257812 -0.123046875 334.733398438 8.380859375 334.733398438 17.0087890625 c 0
 334.733398438 23.4921875 340.611328125 48.0009765625 343.499023438 59.9990234375 c 0
 347.83203125 77.9990234375 353.999023438 103.83203125 361.999023438 137.499023438 c 0
 369.999023438 171.166015625 376.666015625 199.999023438 381.999023438 223.999023438 c 1
 368.74609375 224.15625 355.954101562 224.234375 343.623046875 224.234375 c 0
 251.12890625 224.234375 184.587890625 219.822265625 143.999023438 210.999023438 c 0
 133.999023438 208.999023438 125.166015625 209.33203125 117.499023438 211.999023438 c 0
 109.83203125 214.666015625 104.499023438 219.333007812 101.499023438 226 c 0
 98.4990234375 232.666992188 96.666015625 240.333984375 95.9990234375 249.000976562 c 0
 95.33203125 257.66796875 96.1650390625 266.66796875 98.498046875 276.000976562 c 0
 100.831054688 285.333984375 104.331054688 294.333984375 108.998046875 303.000976562 c 0
 119.665039062 321.66796875 143.498046875 352.16796875 180.498046875 394.500976562 c 0
 217.498046875 436.833984375 264.665039062 489.166992188 321.998046875 551.5 c 0
 379.331054688 613.833007812 420.331054688 659 444.998046875 687 c 0
 456.331054688 699.666992188 467.831054688 709.166992188 479.498046875 715.5 c 0
 491.165039062 721.833007812 501.33203125 725 509.999023438 725 c 0
 512.301757812 725.2421875 514.543945312 725.36328125 516.725585938 725.36328125 c 0
 526.543945312 725.36328125 535.134765625 722.909179688 542.499023438 718 c 0
 550.877929688 712.4140625 555.068359375 703.072265625 555.068359375 689.973632812 c 0
 555.068359375 684.974609375 553.942382812 656.916992188 539 579 c 0
 529.666992188 530.333007812 521.333984375 489.166015625 514.000976562 455.499023438 c 0
 506.66796875 421.83203125 495.66796875 370.999023438 481.000976562 302.999023438 c 1
 491.66796875 302.33203125 503.66796875 301.999023438 517.000976562 301.999023438 c 0
 531.66796875 301.999023438 541.000976562 298.499023438 545.000976562 291.499023438 c 0
 549.000976562 284.499023438 550.000976562 275.33203125 548.000976562 263.999023438 c 0
 541.333984375 234.666015625 524.666992188 219.999023438 498 219.999023438 c 0
 485.333007812 219.999023438 474 220.33203125 464 220.999023438 c 1
 442 123.666015625 431 68.3330078125 431 55 c 0
462.000976562 601.998046875 m 1
 340.000976562 472.665039062 254.666992188 372.331054688 206 300.998046875 c 1
 241.239257812 303.37890625 284.302734375 304.569335938 335.190429688 304.569335938 c 0
 355.541992188 304.569335938 377.145507812 304.37890625 400 303.998046875 c 1
 428.666992188 428.665039062 449.333984375 527.998046875 462.000976562 601.998046875 c 1
EndSplineSet
Validated: 524289
EndChar

StartChar: five
Encoding: 53 53 32
Width: 650
GlyphClass: 2
Flags: HMW
HStem: -18.001 83.998<231.998 238.331> 419.997 89.0029<356.332 419> 619 88.998<556.667 588.001> 630 79.998
LayerCount: 2
Fore
SplineSet
530 296 m 0xd0
 518.666992188 246.666992188 502.6640625 202.166015625 481.997070312 162.499023438 c 0
 461.330078125 122.83203125 437.497070312 89.83203125 410.497070312 63.4990234375 c 0
 383.497070312 37.166015625 353.830078125 16.9990234375 321.497070312 2.9990234375 c 0
 289.1640625 -11.0009765625 255.6640625 -18.0009765625 220.997070312 -18.0009765625 c 0
 193.6640625 -18.0009765625 169.1640625 -15.0009765625 147.497070312 -9.0009765625 c 0
 125.830078125 -3.0009765625 108.497070312 5.33203125 95.4970703125 15.9990234375 c 0
 82.4970703125 26.666015625 72.1640625 37.8330078125 64.4970703125 49.5 c 0
 56.830078125 61.1669921875 50.9970703125 73.333984375 46.9970703125 86.0009765625 c 0
 45.6640625 93.201171875 44.9970703125 99.8681640625 44.9970703125 106.000976562 c 0
 44.9970703125 115.201171875 46.4970703125 123.201171875 49.4970703125 130.000976562 c 0
 54.4970703125 141.333984375 63.330078125 150.000976562 75.9970703125 156.000976562 c 0
 83.9970703125 159.333984375 90.1640625 161.666992188 94.4970703125 163 c 0
 98.830078125 164.333007812 103.830078125 164.666015625 109.497070312 163.999023438 c 0
 115.1640625 163.33203125 119.831054688 160.665039062 123.498046875 155.998046875 c 0
 127.165039062 151.331054688 130.665039062 144.6640625 133.998046875 135.997070312 c 0
 151.331054688 89.9970703125 183.998046875 66.6640625 231.998046875 65.9970703125 c 0
 278.665039062 65.9970703125 320.165039062 85.830078125 356.498046875 125.497070312 c 0
 392.831054688 165.1640625 418.6640625 218.331054688 433.997070312 284.998046875 c 0
 438.211914062 303.6640625 440.319335938 320.59765625 440.319335938 335.796875 c 0
 440.319335938 354.252929688 437.211914062 370.153320312 430.997070312 383.497070312 c 0
 419.6640625 407.830078125 396.331054688 419.997070312 360.998046875 419.997070312 c 0
 351.665039062 419.997070312 342.498046875 419.497070312 333.498046875 418.497070312 c 0
 324.498046875 417.497070312 316.831054688 416.1640625 310.498046875 414.497070312 c 0
 304.165039062 412.830078125 296.998046875 410.330078125 288.998046875 406.997070312 c 0
 280.998046875 403.6640625 274.998046875 400.997070312 270.998046875 398.997070312 c 0
 266.998046875 396.997070312 261.331054688 393.330078125 253.998046875 387.997070312 c 0
 246.665039062 382.6640625 241.83203125 378.997070312 239.499023438 376.997070312 c 0
 237.166015625 374.997070312 232.166015625 370.830078125 224.499023438 364.497070312 c 0
 216.83203125 358.1640625 211.999023438 354.331054688 209.999023438 352.998046875 c 0
 203.999023438 348.331054688 197.166015625 344.331054688 189.499023438 340.998046875 c 0
 181.83203125 337.665039062 173.499023438 335.498046875 164.499023438 334.498046875 c 0
 155.499023438 333.498046875 147.33203125 334.998046875 139.999023438 338.998046875 c 0
 130.666015625 343.665039062 125.166015625 353.998046875 123.499023438 369.998046875 c 0
 123.060546875 374.208984375 122.840820312 378.673828125 122.840820312 383.392578125 c 0
 122.840820312 396.603515625 124.560546875 411.805664062 127.999023438 428.998046875 c 0
 132.666015625 452.331054688 137.999023438 474.831054688 143.999023438 496.498046875 c 0
 149.999023438 518.165039062 156.666015625 541.498046875 163.999023438 566.498046875 c 0
 171.33203125 591.498046875 175.999023438 608.665039062 177.999023438 617.998046875 c 1
 174.666015625 626.665039062 173.666015625 636.498046875 174.999023438 647.498046875 c 0
 176.33203125 658.498046875 179.33203125 668.665039062 183.999023438 677.998046875 c 0
 188.666015625 687.331054688 194.833007812 695.331054688 202.5 701.998046875 c 0
 210.166992188 708.665039062 218.333984375 711.998046875 227.000976562 711.998046875 c 0
 250.333984375 711.998046875 304.500976562 711.331054688 389.500976562 709.998046875 c 0xd0
 474.500976562 708.665039062 539.333984375 707.998046875 584.000976562 707.998046875 c 0
 592.000976562 707.998046875 597.66796875 704.331054688 601.000976562 696.998046875 c 0
 604.333984375 689.665039062 605.666992188 681.33203125 605 671.999023438 c 0
 604.333007812 662.666015625 602.666015625 653.999023438 599.999023438 645.999023438 c 0
 598.666015625 641.33203125 596.833007812 637.33203125 594.5 633.999023438 c 0
 592.166992188 630.666015625 589.333984375 628.166015625 586.000976562 626.499023438 c 0
 582.66796875 624.83203125 579.834960938 623.33203125 577.501953125 621.999023438 c 0
 575.168945312 620.666015625 571.668945312 619.833007812 567.001953125 619.5 c 0
 562.334960938 619.166992188 559.16796875 619 557.500976562 619 c 0xe0
 555.833984375 619 552.333984375 619.333007812 547.000976562 620 c 0
 541.66796875 620.666992188 538.66796875 621 538.000976562 621 c 0
 529.333984375 621 514.166992188 622 492.5 624 c 0
 470.833007812 626 451.333007812 627.5 434 628.5 c 0
 416.666992188 629.5 392.5 630 361.5 630 c 0
 330.5 630 298 629 264 627 c 1
 262 620.333007812 256.833007812 601 248.5 569 c 0
 240.166992188 537 234.166992188 513.833007812 230.5 499.5 c 0
 226.833007812 485.166992188 222.333007812 464.666992188 217 438 c 1
 239 458.666992188 266.333007812 475.666992188 299 489 c 0
 331.666992188 502.333007812 367 509 405 509 c 0
 433 509 456.666992188 503.5 476 492.5 c 0
 495.333007812 481.5 510 466.333007812 520 447 c 0
 530 427.666992188 535.833007812 405.166992188 537.5 379.5 c 0
 537.833007812 374.366210938 538 369.145507812 538 363.837890625 c 0
 538 342.611328125 535.333007812 319.999023438 530 296 c 0xd0
EndSplineSet
Validated: 524289
EndChar

StartChar: six
Encoding: 54 54 33
Width: 650
GlyphClass: 2
Flags: HMW
HStem: -21.9971 84.0049<266.665 270.333> 393.004 87.9961<348.333 423.333> 657 80.002
VStem: 88.999 82.9971 456.499 95
LayerCount: 2
Fore
SplineSet
540 246 m 0
 531.333007812 208.666992188 517.33203125 173.502929688 497.999023438 140.502929688 c 0
 478.666015625 107.502929688 456.499023438 79.169921875 431.499023438 55.5029296875 c 0
 406.499023438 31.8359375 378.499023438 13.0029296875 347.499023438 -0.9970703125 c 0
 316.499023438 -14.9970703125 285.666015625 -21.9970703125 254.999023438 -21.9970703125 c 0
 216.999023438 -21.9970703125 185.499023438 -14.1640625 160.499023438 1.5029296875 c 0
 135.499023438 17.169921875 117.166015625 39.8369140625 105.499023438 69.50390625 c 0
 94.462890625 97.56640625 88.9453125 130.848632812 88.9453125 169.349609375 c 0
 88.9453125 171.55078125 88.962890625 173.768554688 88.9990234375 176.00390625 c 0
 89.666015625 217.336914062 96.3330078125 263.669921875 109 315.002929688 c 0
 123 372.3359375 140.333007812 424.002929688 161 470.002929688 c 0
 181.666992188 516.002929688 204.5 554.669921875 229.5 586.002929688 c 0
 254.5 617.3359375 282.333007812 643.8359375 313 665.502929688 c 0
 343.666992188 687.169921875 375.333984375 703.669921875 408.000976562 715.002929688 c 0
 440.66796875 726.3359375 476.000976562 733.668945312 514.000976562 737.001953125 c 0
 516.793945312 737.255859375 519.484375 737.3828125 522.071289062 737.3828125 c 0
 533.072265625 737.3828125 542.21484375 735.088867188 549.500976562 730.500976562 c 0
 557.879882812 725.224609375 562.0703125 716.915039062 562.0703125 705.571289062 c 0
 562.0703125 701.477539062 562.0703125 691.969726562 545 676.5 c 0
 534.333007812 666.833007812 523.666015625 660.333007812 512.999023438 657 c 0
 505.666015625 655 494.499023438 652.333007812 479.499023438 649 c 0
 464.499023438 645.666992188 451.83203125 642.5 441.499023438 639.5 c 0
 431.166015625 636.5 418.499023438 632 403.499023438 626 c 0
 388.499023438 620 372.999023438 611.333007812 356.999023438 600 c 0
 340.999023438 588.666992188 324.666015625 575 307.999023438 559 c 0
 290.666015625 541.666992188 272.833007812 518 254.5 488 c 0
 236.166992188 458 222.666992188 431.333007812 214 408 c 1
 239.333007812 432.666992188 268.666015625 451 301.999023438 463 c 0
 335.33203125 475 370.999023438 481 408.999023438 481 c 0
 437.666015625 481 462.166015625 476.666992188 482.499023438 468 c 0
 502.83203125 459.333007812 518.999023438 445.666015625 530.999023438 426.999023438 c 0
 542.999023438 408.33203125 549.83203125 383.83203125 551.499023438 353.499023438 c 0
 551.751953125 348.90234375 551.877929688 344.178710938 551.877929688 339.330078125 c 0
 551.877929688 312.178710938 547.918945312 281.069335938 540 246 c 0
173.999023438 230.002929688 m 0
 172.498046875 218.997070312 171.74609375 207.899414062 171.74609375 196.708007812 c 0
 171.74609375 192.984375 171.830078125 189.250976562 171.99609375 185.506835938 c 0
 172.663085938 170.506835938 175.330078125 155.33984375 179.997070312 140.006835938 c 0
 184.6640625 124.673828125 190.831054688 111.340820312 198.498046875 100.0078125 c 0
 206.165039062 88.6748046875 216.665039062 79.5078125 229.998046875 72.5078125 c 0
 243.331054688 65.5078125 258.331054688 62.0078125 274.998046875 62.0078125 c 0
 297.665039062 62.0078125 321.33203125 70.6748046875 345.999023438 88.0078125 c 0
 370.666015625 105.340820312 391.999023438 127.173828125 409.999023438 153.506835938 c 0
 427.999023438 179.83984375 439.999023438 206.672851562 445.999023438 234.005859375 c 0
 453.013671875 263.977539062 456.520507812 289.375 456.520507812 310.196289062 c 0
 456.520507812 333.04296875 452.297851562 350.248046875 443.999023438 362.00390625 c 0
 435.999023438 373.336914062 425.666015625 381.336914062 412.999023438 386.00390625 c 0
 400.33203125 390.670898438 383.999023438 393.00390625 363.999023438 393.00390625 c 0
 332.666015625 393.00390625 301.499023438 384.336914062 270.499023438 367.00390625 c 0
 239.499023438 349.670898438 212.33203125 327.670898438 188.999023438 301.00390625 c 1
 181.666015625 272.336914062 176.666015625 248.669921875 173.999023438 230.002929688 c 0
EndSplineSet
Validated: 524289
EndChar

StartChar: seven
Encoding: 55 55 34
Width: 650
GlyphClass: 2
Flags: HMW
HStem: 622.497 90.5
LayerCount: 2
Fore
SplineSet
142 26 m 0
 130.666992188 8.6669921875 118.162109375 -4.3359375 104.495117188 -13.0029296875 c 0
 94.0439453125 -19.630859375 84.275390625 -22.9443359375 75.189453125 -22.9443359375 c 0
 72.3935546875 -22.9443359375 69.662109375 -22.630859375 66.9951171875 -22.0029296875 c 0
 54.328125 -18.669921875 46.828125 -10.669921875 44.4951171875 1.9970703125 c 0
 44.0537109375 4.3935546875 43.8330078125 6.837890625 43.8330078125 9.3291015625 c 0
 43.8330078125 20.0087890625 47.88671875 31.564453125 55.9951171875 43.9970703125 c 0
 103.328125 112.6640625 152.995117188 180.997070312 204.995117188 248.997070312 c 0
 256.995117188 316.997070312 299.495117188 371.1640625 332.495117188 411.497070312 c 0
 365.495117188 451.830078125 396.495117188 490.997070312 425.495117188 528.997070312 c 0
 454.495117188 566.997070312 475.328125 597.997070312 487.995117188 621.997070312 c 1
 458.903320312 623.087890625 428.622070312 623.633789062 397.149414062 623.633789062 c 0
 370.924804688 623.633789062 343.874023438 623.254882812 315.99609375 622.497070312 c 0
 254.663085938 620.830078125 213.99609375 617.330078125 193.99609375 611.997070312 c 0
 185.99609375 609.997070312 179.49609375 610.330078125 174.49609375 612.997070312 c 0
 169.49609375 615.6640625 165.829101562 619.6640625 163.49609375 624.997070312 c 0
 161.163085938 630.330078125 159.830078125 635.997070312 159.497070312 641.997070312 c 0
 159.1640625 647.997070312 159.331054688 653.997070312 159.998046875 659.997070312 c 0
 162.665039062 671.997070312 167.665039062 681.497070312 174.998046875 688.497070312 c 0
 182.331054688 695.497070312 193.998046875 700.6640625 209.998046875 703.997070312 c 0
 233.998046875 708.6640625 266.331054688 711.6640625 306.998046875 712.997070312 c 0
 327.33203125 713.6640625 346.83203125 713.997070312 365.498046875 713.997070312 c 0
 384.165039062 713.997070312 401.998046875 713.663085938 418.998046875 712.997070312 c 0
 452.998046875 711.6640625 486.165039062 710.331054688 518.498046875 708.998046875 c 0
 550.831054688 707.665039062 568.331054688 706.998046875 570.998046875 706.998046875 c 0
 577.665039062 706.998046875 583.665039062 705.498046875 588.998046875 702.498046875 c 0
 594.331054688 699.498046875 598.998046875 694.665039062 602.998046875 687.998046875 c 0
 606.998046875 681.331054688 607.831054688 672.6640625 605.498046875 661.997070312 c 0
 603.165039062 651.330078125 597.33203125 638.997070312 587.999023438 624.997070312 c 0
 574.666015625 604.997070312 551.999023438 574.830078125 519.999023438 534.497070312 c 0
 487.999023438 494.1640625 454.83203125 452.831054688 420.499023438 410.498046875 c 0
 386.166015625 368.165039062 343.333007812 311.83203125 292 241.499023438 c 0
 240.666992188 171.166015625 190.666992188 99.3330078125 142 26 c 0
EndSplineSet
Validated: 524289
EndChar

StartChar: eight
Encoding: 56 56 35
Width: 650
GlyphClass: 2
Flags: HMW
HStem: -27.9922 85.9971<255.667 260.333> 646.004 72.001<408.333 413.333>
VStem: 453.5 90.501
LayerCount: 2
Fore
SplineSet
539 204 m 0
 534.333007812 182.666992188 526.83203125 161.338867188 516.499023438 140.005859375 c 0
 506.166015625 118.672851562 492.499023438 97.83984375 475.499023438 77.5068359375 c 0
 458.499023438 57.173828125 439.166015625 39.3408203125 417.499023438 24.0078125 c 0
 395.83203125 8.6748046875 369.999023438 -3.8251953125 339.999023438 -13.4921875 c 0
 309.999023438 -23.1591796875 277.666015625 -27.9921875 242.999023438 -27.9921875 c 0
 211.666015625 -27.9921875 184.499023438 -23.3251953125 161.499023438 -13.9921875 c 0
 138.499023438 -4.6591796875 120.83203125 7.173828125 108.499023438 21.5068359375 c 0
 96.166015625 35.83984375 86.8330078125 53.0068359375 80.5 73.0068359375 c 0
 74.4833984375 92.0078125 71.474609375 111.159179688 71.474609375 130.4609375 c 0
 71.474609375 141.575195312 72.3037109375 165.397460938 79 196.005859375 c 0
 84.3330078125 218.672851562 95.3330078125 243.005859375 112 269.005859375 c 0
 128.666992188 295.005859375 149.666992188 319.005859375 175 341.005859375 c 0
 200.333007812 363.005859375 226.333007812 378.338867188 253 387.005859375 c 1
 223.666992188 403.672851562 203 425.505859375 191 452.505859375 c 0
 183.286132812 469.86328125 179.428710938 487.426757812 179.428710938 505.197265625 c 0
 179.428710938 515.069335938 180.619140625 525.005859375 183 535.005859375 c 0
 185 543.005859375 187.5 551.505859375 190.5 560.505859375 c 0
 193.5 569.505859375 198.333007812 580.172851562 205 592.505859375 c 0
 211.666992188 604.838867188 219.166992188 616.671875 227.5 628.004882812 c 0
 235.833007812 639.337890625 246.333007812 650.504882812 259 661.504882812 c 0
 271.666992188 672.504882812 285.5 682.171875 300.5 690.504882812 c 0
 315.5 698.837890625 333.333007812 705.504882812 354 710.504882812 c 0
 374.666992188 715.504882812 396.666992188 718.004882812 420 718.004882812 c 0
 444 718.004882812 465.166992188 715.504882812 483.5 710.504882812 c 0
 501.833007812 705.504882812 516.833007812 698.837890625 528.5 690.504882812 c 0
 540.166992188 682.171875 549.666992188 672.504882812 557 661.504882812 c 0
 564.333007812 650.504882812 569.666015625 639.337890625 572.999023438 628.004882812 c 0
 576.33203125 616.671875 578.33203125 604.671875 578.999023438 592.004882812 c 0
 579.265625 586.938476562 579.399414062 582.112304688 579.399414062 577.525390625 c 0
 579.399414062 570.64453125 579.098632812 564.3046875 578.499023438 558.50390625 c 0
 577.499023438 548.836914062 575.999023438 539.669921875 573.999023438 531.002929688 c 0
 571.999023438 523.002929688 569.166015625 515.002929688 565.499023438 507.002929688 c 0
 561.83203125 499.002929688 557.83203125 492.002929688 553.499023438 486.002929688 c 0
 549.166015625 480.002929688 543.666015625 473.669921875 536.999023438 467.002929688 c 0
 530.33203125 460.3359375 524.33203125 454.668945312 518.999023438 450.001953125 c 0
 513.666015625 445.334960938 506.833007812 440.001953125 498.5 434.001953125 c 0
 490.166992188 428.001953125 483.5 423.501953125 478.5 420.501953125 c 0
 473.5 417.501953125 466.833007812 413.334960938 458.5 408.001953125 c 0
 450.166992188 402.668945312 444.333984375 399.001953125 441.000976562 397.001953125 c 1
 461.66796875 386.334960938 479.16796875 374.334960938 493.500976562 361.001953125 c 0
 507.833984375 347.668945312 518.500976562 334.501953125 525.500976562 321.501953125 c 0
 532.500976562 308.501953125 537.500976562 294.668945312 540.500976562 280.001953125 c 0
 542.955078125 268.001953125 544.182617188 257.006835938 544.182617188 247.014648438 c 0
 544.182617188 244.793945312 544.122070312 242.623046875 544.000976562 240.500976562 c 0
 543.333984375 228.833984375 541.666992188 216.666992188 539 204 c 0
270.999023438 538.004882812 m 0
 269.600585938 532.235351562 268.901367188 526.637695312 268.901367188 521.211914062 c 0
 268.901367188 505.94921875 274.434570312 492.046875 285.500976562 479.504882812 c 0
 300.500976562 462.504882812 328.000976562 445.337890625 368.000976562 428.004882812 c 1
 396.66796875 439.337890625 423.16796875 454.670898438 447.500976562 474.00390625 c 0
 471.833984375 493.336914062 485.666992188 511.336914062 489 528.00390625 c 0
 490.713867188 536.00390625 491.571289062 543.942382812 491.571289062 551.819335938 c 0
 491.571289062 562.323242188 490.047851562 572.717773438 487 583.00390625 c 0
 481.666992188 601.00390625 471.5 616.00390625 456.5 628.00390625 c 0
 441.5 640.00390625 423.666992188 646.00390625 403 646.00390625 c 0
 374.333007812 646.00390625 346.666015625 634.836914062 319.999023438 612.50390625 c 0
 293.33203125 590.170898438 276.999023438 565.337890625 270.999023438 538.004882812 c 0
267.000976562 58.0048828125 m 0
 285.000976562 58.0048828125 303.666992188 60.8330078125 323 66.5 c 0
 342.333007812 72.1669921875 360.5 80.333984375 377.5 91.0009765625 c 0
 394.5 101.66796875 409.5 115.66796875 422.5 133.000976562 c 0
 435.5 150.333984375 444.333007812 168.666992188 449 188 c 0
 450.750976562 195.001953125 453.549804688 208.245117188 453.549804688 221.444335938 c 0
 453.549804688 230.415039062 452.200195312 240.600585938 449.5 252.001953125 c 0
 446.5 264.668945312 441.333007812 276.3359375 434 287.002929688 c 0
 426.666992188 297.669921875 415.666992188 308.836914062 401 320.50390625 c 0
 386.333007812 332.170898438 368 342.670898438 346 352.00390625 c 1
 298 339.336914062 256.666992188 317.336914062 222 286.00390625 c 0
 187.333007812 254.670898438 165.666015625 221.337890625 156.999023438 186.004882812 c 0
 154.701171875 176.557617188 153.551757812 167.453125 153.551757812 158.690429688 c 0
 153.551757812 144.573242188 156.534179688 131.344726562 162.499023438 119.004882812 c 0
 172.166015625 99.0048828125 186.333007812 83.837890625 205 73.5048828125 c 0
 223.666992188 63.171875 244.333984375 58.0048828125 267.000976562 58.0048828125 c 0
EndSplineSet
Validated: 524289
EndChar

StartChar: nine
Encoding: 57 57 36
Width: 650
GlyphClass: 2
Flags: HMW
HStem: -22 79.9961<127 127> 234.998 89<253.333 324.667> 654.995 84.0049<392.667 396.331>
LayerCount: 2
Fore
SplineSet
127 -22 m 0
 124.204101562 -22.25390625 121.504882812 -22.380859375 118.90234375 -22.380859375 c 0
 107.853515625 -22.380859375 98.55078125 -20.0908203125 90.9970703125 -15.50390625 c 0
 82.830078125 -10.544921875 78.7470703125 -2.90625 78.7470703125 7.412109375 c 0
 78.7470703125 14.451171875 79.5458984375 24.6025390625 95.998046875 38.9970703125 c 0
 106.665039062 48.330078125 117.33203125 54.6630859375 127.999023438 57.99609375 c 0
 135.33203125 59.99609375 146.999023438 62.6630859375 162.999023438 65.99609375 c 0
 178.999023438 69.3291015625 193.499023438 72.8291015625 206.499023438 76.49609375 c 0
 219.499023438 80.1630859375 234.33203125 84.99609375 250.999023438 90.99609375 c 0
 267.666015625 96.99609375 284.166015625 105.329101562 300.499023438 115.99609375 c 0
 316.83203125 126.663085938 332.999023438 139.330078125 348.999023438 153.997070312 c 0
 368.999023438 173.330078125 387.999023438 195.830078125 405.999023438 221.497070312 c 0
 423.999023438 247.1640625 437.33203125 270.331054688 445.999023438 290.998046875 c 1
 423.999023438 269.665039062 398.666015625 254.998046875 369.999023438 246.998046875 c 0
 341.33203125 238.998046875 306.999023438 234.998046875 266.999023438 234.998046875 c 0
 239.666015625 234.998046875 215.166015625 241.831054688 193.499023438 255.498046875 c 0
 171.83203125 269.165039062 154.999023438 287.33203125 142.999023438 309.999023438 c 0
 130.999023438 332.666015625 123.33203125 358.833007812 119.999023438 388.5 c 0
 118.887695312 398.387695312 118.333007812 408.33203125 118.333007812 418.331054688 c 0
 118.333007812 438.33203125 120.5546875 458.555664062 125 479.000976562 c 0
 133.666992188 516.333984375 147.5 551.166992188 166.5 583.5 c 0
 185.5 615.833007812 207.5 643.333007812 232.5 666 c 0
 257.5 688.666992188 285.333007812 706.5 316 719.5 c 0
 346.666992188 732.5 377.333984375 739 408.000976562 739 c 0
 484.000976562 739 533.500976562 708 556.500976562 646 c 0
 566.873046875 618.0390625 572.059570312 584.586914062 572.059570312 545.643554688 c 0
 572.059570312 498.234375 564.373046875 442.686523438 549.000976562 379 c 0
 536.333984375 325.666992188 519.166992188 277.5 497.5 234.5 c 0
 475.833007812 191.5 451.666015625 155 424.999023438 125 c 0
 398.33203125 95 368.499023438 69.3330078125 335.499023438 48 c 0
 302.499023438 26.6669921875 268.83203125 10.5 234.499023438 -0.5 c 0
 200.166015625 -11.5 164.333007812 -18.6669921875 127 -22 c 0
218.997070312 490.995117188 m 0
 213.267578125 466.268554688 210.403320312 444.237304688 210.403320312 424.8984375 c 0
 210.403320312 401.482421875 214.603515625 382.015625 223.000976562 366.498046875 c 0
 238.333984375 338.165039062 267.666992188 323.998046875 311 323.998046875 c 0
 338.333007812 323.998046875 366.666015625 330.665039062 395.999023438 343.998046875 c 0
 425.33203125 357.331054688 450.33203125 375.6640625 470.999023438 398.997070312 c 1
 476.33203125 418.330078125 482.33203125 447.663085938 488.999023438 486.99609375 c 0
 490.499023438 497.99609375 491.249023438 509.088867188 491.249023438 520.276367188 c 0
 491.249023438 524.005859375 491.166015625 527.74609375 490.999023438 531.49609375 c 0
 490.33203125 546.49609375 487.665039062 561.663085938 482.998046875 576.99609375 c 0
 478.331054688 592.329101562 472.1640625 605.662109375 464.497070312 616.995117188 c 0
 456.830078125 628.328125 446.330078125 637.495117188 432.997070312 644.495117188 c 0
 419.6640625 651.495117188 404.6640625 654.995117188 387.997070312 654.995117188 c 0
 364.6640625 654.995117188 341.1640625 646.995117188 317.497070312 630.995117188 c 0
 293.830078125 614.995117188 272.997070312 594.495117188 254.997070312 569.495117188 c 0
 236.997070312 544.495117188 224.997070312 518.328125 218.997070312 490.995117188 c 0
EndSplineSet
Validated: 524289
EndChar

StartChar: colon
Encoding: 58 58 37
Width: 650
GlyphClass: 2
Flags: HMW
VStem: 229.004 192.996
LayerCount: 2
Fore
SplineSet
422 417 m 0
 418.666992188 395 411.00390625 371.6640625 399.00390625 346.997070312 c 0
 393.00390625 333.6640625 384.00390625 323.497070312 372.00390625 316.497070312 c 0
 361.047851562 310.106445312 350.924804688 306.91015625 341.635742188 306.91015625 c 0
 340.750976562 306.91015625 339.874023438 306.939453125 339.00390625 306.997070312 c 0
 305.943359375 308.80078125 289.4140625 321.442382812 289.4140625 344.924804688 c 0
 289.4140625 347.486328125 289.610351562 350.177734375 290.00390625 352.997070312 c 0
 292.670898438 370.997070312 297.337890625 393.997070312 304.004882812 421.997070312 c 0
 306.004882812 430.6640625 310.004882812 437.831054688 316.004882812 443.498046875 c 0
 322.004882812 449.165039062 328.671875 453.33203125 336.004882812 455.999023438 c 0
 343.337890625 458.666015625 350.170898438 460.333007812 356.50390625 461 c 0
 362.836914062 461.666992188 369.336914062 462 376.00390625 462 c 0
 381.336914062 462 386.669921875 461.333007812 392.002929688 460 c 0
 397.3359375 458.666992188 402.668945312 456.5 408.001953125 453.5 c 0
 413.334960938 450.5 417.16796875 445.833007812 419.500976562 439.5 c 0
 421.833984375 433.166992188 422.666992188 425.666992188 422 417 c 0
361.00390625 149.997070312 m 0
 359.670898438 126.6640625 353.004882812 102.66015625 341.004882812 77.9931640625 c 0
 335.004882812 64.66015625 325.004882812 54.8271484375 311.004882812 48.494140625 c 0
 298.338867188 42.7646484375 287.037109375 39.8994140625 277.099609375 39.8994140625 c 0
 276.052734375 39.8994140625 275.021484375 39.931640625 274.004882812 39.9951171875 c 0
 261.337890625 40.662109375 250.170898438 44.8291015625 240.50390625 52.49609375 c 0
 232.494140625 58.8486328125 228.489257812 67.375 228.489257812 78.0751953125 c 0
 228.489257812 80.2890625 228.661132812 82.595703125 229.00390625 84.99609375 c 0
 231.670898438 98.99609375 233.337890625 107.829101562 234.004882812 111.49609375 c 0
 234.671875 115.163085938 236.504882812 121.99609375 239.504882812 131.99609375 c 0
 242.504882812 141.99609375 244.671875 149.663085938 246.004882812 154.99609375 c 0
 248.004882812 162.99609375 251.837890625 169.99609375 257.504882812 175.99609375 c 0
 263.171875 181.99609375 269.504882812 186.163085938 276.504882812 188.49609375 c 0
 283.504882812 190.829101562 290.171875 192.49609375 296.504882812 193.49609375 c 0
 302.837890625 194.49609375 309.004882812 194.99609375 315.004882812 194.99609375 c 0
 322.337890625 194.99609375 329.337890625 193.829101562 336.004882812 191.49609375 c 0
 342.671875 189.163085938 348.671875 184.330078125 354.004882812 176.997070312 c 0
 359.337890625 169.6640625 361.670898438 160.6640625 361.00390625 149.997070312 c 0
EndSplineSet
Validated: 524289
EndChar

StartChar: semicolon
Encoding: 59 59 38
Width: 650
GlyphClass: 2
Flags: HMW
VStem: 176.006 300.994
LayerCount: 2
Fore
SplineSet
477 375 m 0
 473.666992188 353 465.671875 329.666015625 453.004882812 304.999023438 c 0
 447.004882812 291.666015625 438.004882812 281.499023438 426.004882812 274.499023438 c 0
 415.048828125 268.108398438 405.204101562 264.912109375 396.470703125 264.912109375 c 0
 395.638671875 264.912109375 394.81640625 264.94140625 394.004882812 264.999023438 c 0
 386.004882812 265.666015625 378.171875 267.499023438 370.504882812 270.499023438 c 0
 362.837890625 273.499023438 356.170898438 278.666015625 350.50390625 285.999023438 c 0
 344.836914062 293.33203125 342.669921875 301.999023438 344.002929688 311.999023438 c 0
 346.669921875 329.999023438 352.002929688 352.999023438 360.002929688 380.999023438 c 0
 362.002929688 388.999023438 365.8359375 395.999023438 371.502929688 401.999023438 c 0
 377.169921875 407.999023438 383.669921875 412.166015625 391.002929688 414.499023438 c 0
 398.3359375 416.83203125 405.3359375 418.499023438 412.002929688 419.499023438 c 0
 418.669921875 420.499023438 424.669921875 420.666015625 430.002929688 419.999023438 c 0
 436.002929688 419.999023438 441.669921875 419.499023438 447.002929688 418.499023438 c 0
 452.3359375 417.499023438 457.668945312 415.33203125 463.001953125 411.999023438 c 0
 468.334960938 408.666015625 472.16796875 403.833007812 474.500976562 397.5 c 0
 476.833984375 391.166992188 477.666992188 383.666992188 477 375 c 0
389.004882812 73.9990234375 m 0
 382.337890625 52.666015625 342.005859375 -34.3349609375 268.005859375 -187.001953125 c 0
 261.338867188 -201.001953125 252.838867188 -211.168945312 242.505859375 -217.501953125 c 0
 233.157226562 -223.231445312 223.9453125 -226.096679688 214.869140625 -226.096679688 c 0
 213.913085938 -226.096679688 212.958984375 -226.064453125 212.005859375 -226.000976562 c 0
 199.338867188 -225.333984375 189.005859375 -221.000976562 181.005859375 -213.000976562 c 0
 175.953125 -207.948242188 173.426757812 -201.69921875 173.426757812 -194.252929688 c 0
 173.426757812 -189.909179688 174.286132812 -185.159179688 176.005859375 -180.000976562 c 0
 180.672851562 -164.000976562 196.172851562 -125.000976562 222.505859375 -63.0009765625 c 0
 248.838867188 -1.0009765625 269.338867188 46.33203125 284.005859375 78.9990234375 c 0
 288.672851562 88.9990234375 293.505859375 96.9990234375 298.505859375 102.999023438 c 0
 303.505859375 108.999023438 308.338867188 112.999023438 313.005859375 114.999023438 c 0
 317.672851562 116.999023438 322.672851562 118.33203125 328.005859375 118.999023438 c 0
 333.338867188 119.666015625 338.005859375 119.666015625 342.005859375 118.999023438 c 0
 348.005859375 118.999023438 354.005859375 118.166015625 360.005859375 116.499023438 c 0
 366.005859375 114.83203125 371.838867188 112.499023438 377.505859375 109.499023438 c 0
 383.172851562 106.499023438 387.172851562 101.999023438 389.505859375 95.9990234375 c 0
 391.838867188 89.9990234375 391.671875 82.666015625 389.004882812 73.9990234375 c 0
EndSplineSet
Validated: 524289
EndChar

StartChar: less
Encoding: 60 60 39
Width: 650
GlyphClass: 2
Flags: W
HStem: -12.3984 21G<386.175 391.908>
LayerCount: 2
Fore
SplineSet
442 14 m 0
 437.333007812 7.3330078125 431.500976562 1.66796875 424.500976562 -2.9990234375 c 0
 417.500976562 -7.666015625 408.500976562 -10.666015625 397.500976562 -11.9990234375 c 0
 395.301757812 -12.265625 393.0546875 -12.3984375 390.76171875 -12.3984375 c 0
 381.587890625 -12.3984375 371.66796875 -10.265625 361.000976562 -5.9990234375 c 0
 347.000976562 -0.666015625 330.66796875 11.0009765625 312.000976562 29.0009765625 c 0
 293.333984375 47.0009765625 273.666992188 68.5009765625 253 93.5009765625 c 0
 232.333007812 118.500976562 212 144.000976562 192 170.000976562 c 0
 172 196.000976562 150.833007812 222.833984375 128.5 250.500976562 c 0
 106.166992188 278.16796875 86.6669921875 299.66796875 70 315.000976562 c 0
 63.3330078125 321.000976562 60 330.000976562 60 342.000976562 c 0
 60 354.000976562 62.8330078125 365.500976562 68.5 376.500976562 c 0
 74.1669921875 387.500976562 81.333984375 395.333984375 90.0009765625 400.000976562 c 0
 131.333984375 428.000976562 180.833984375 463.16796875 238.500976562 505.500976562 c 0
 296.16796875 547.833984375 348.66796875 586.166992188 396.000976562 620.5 c 0
 443.333984375 654.833007812 484.666992188 682 520 702 c 0
 531.333007812 708.666992188 541.333007812 712.166992188 550 712.5 c 0
 558.666992188 712.833007812 565.666992188 711.166015625 571 707.499023438 c 0
 576.333007812 703.83203125 580.5 699.33203125 583.5 693.999023438 c 0
 586.5 688.666015625 588.666992188 682.999023438 590 676.999023438 c 0
 590.592773438 674.48046875 590.888671875 671.953125 590.888671875 669.41796875 c 0
 590.888671875 660.545898438 587.259765625 651.573242188 580.000976562 642.499023438 c 0
 570.66796875 630.83203125 553.66796875 616.999023438 529.000976562 600.999023438 c 0
 488.333984375 574.999023438 425.666992188 532.33203125 341 472.999023438 c 0
 256.333007812 413.666015625 202.666015625 375.999023438 179.999023438 359.999023438 c 1
 199.33203125 339.999023438 220.499023438 315.83203125 243.499023438 287.499023438 c 0
 266.499023438 259.166015625 286.499023438 233.499023438 303.499023438 210.499023438 c 0
 320.499023438 187.499023438 339.33203125 163.999023438 359.999023438 139.999023438 c 0
 380.666015625 115.999023438 399.333007812 96.9990234375 416 82.9990234375 c 0
 432.666992188 68.9990234375 443 56.83203125 447 46.4990234375 c 0
 448.412109375 42.8525390625 449.1171875 39.142578125 449.1171875 35.3720703125 c 0
 449.1171875 28.45703125 446.745117188 21.3330078125 442 14 c 0
EndSplineSet
Validated: 524289
EndChar

StartChar: equal
Encoding: 61 61 40
Width: 650
GlyphClass: 2
Flags: HMW
HStem: 246.996 83<152.332 180.999> 442.999 85.001
LayerCount: 2
Fore
SplineSet
224 528 m 0
 259.333007812 526.666992188 295.499023438 525.99609375 332.499023438 525.99609375 c 0
 369.499023438 525.99609375 404.33203125 526.329101562 436.999023438 526.99609375 c 0
 469.666015625 527.663085938 489.333007812 527.99609375 496 527.99609375 c 0
 510.666992188 527.99609375 520 524.663085938 524 517.99609375 c 0
 528 511.329101562 529 502.329101562 527 490.99609375 c 0
 525.666992188 484.99609375 524 479.49609375 522 474.49609375 c 0
 520 469.49609375 517 464.663085938 513 459.99609375 c 0
 509 455.329101562 504 451.829101562 498 449.49609375 c 0
 492 447.163085938 485.333007812 446.330078125 478 446.997070312 c 0
 463.326171875 447.442382812 447.985351562 447.6640625 431.9765625 447.6640625 c 0
 423.984375 447.6640625 415.825195312 447.609375 407.5 447.498046875 c 0
 382.5 447.165039062 348.166992188 446.33203125 304.5 444.999023438 c 0
 260.833007812 443.666015625 229 442.999023438 209 442.999023438 c 0
 193.666992188 442.999023438 182.5 446.999023438 175.5 454.999023438 c 0
 168.5 462.999023438 166.333007812 472.666015625 169 483.999023438 c 0
 171 496.666015625 176.833007812 507.333007812 186.5 516 c 0
 195.4765625 524.047851562 206.89453125 528.071289062 220.756835938 528.071289062 c 0
 221.823242188 528.071289062 222.904296875 528.047851562 224 528 c 0
180.999023438 329.99609375 m 0
 197.25 329.7734375 214.430664062 329.662109375 232.541015625 329.662109375 c 0
 268.663085938 329.662109375 308.481445312 330.10546875 351.998046875 330.993164062 c 0
 417.331054688 332.326171875 450.331054688 332.993164062 450.998046875 332.993164062 c 0
 465.665039062 332.993164062 474.998046875 329.493164062 478.998046875 322.493164062 c 0
 482.998046875 315.493164062 483.998046875 306.326171875 481.998046875 294.993164062 c 0
 480.665039062 288.993164062 478.83203125 283.493164062 476.499023438 278.493164062 c 0
 474.166015625 273.493164062 471.166015625 268.66015625 467.499023438 263.993164062 c 0
 463.83203125 259.326171875 458.999023438 255.826171875 452.999023438 253.493164062 c 0
 446.999023438 251.16015625 440.33203125 250.327148438 432.999023438 250.994140625 c 0
 418.325195312 251.439453125 402.8359375 251.661132812 386.53125 251.661132812 c 0
 378.390625 251.661132812 370.045898438 251.606445312 361.499023438 251.495117188 c 0
 335.83203125 251.162109375 300.83203125 250.329101562 256.499023438 248.99609375 c 0
 212.166015625 247.663085938 179.999023438 246.99609375 159.999023438 246.99609375 c 0
 144.666015625 246.99609375 134.166015625 251.163085938 128.499023438 259.49609375 c 0
 124.645507812 265.162109375 122.71875 271.676757812 122.71875 279.0390625 c 0
 122.71875 282.50390625 123.145507812 286.15625 123.999023438 289.99609375 c 0
 125.999023438 301.329101562 131.999023438 310.829101562 141.999023438 318.49609375 c 0
 151.999023438 326.163085938 164.999023438 329.99609375 180.999023438 329.99609375 c 0
EndSplineSet
Validated: 524289
EndChar

StartChar: greater
Encoding: 62 62 41
Width: 650
GlyphClass: 2
Flags: W
LayerCount: 2
Fore
SplineSet
131 5 m 0
 120.333007812 -1 110.499023438 -4.333984375 101.499023438 -5.0009765625 c 0
 92.4990234375 -5.66796875 85.33203125 -4.16796875 79.9990234375 -0.5009765625 c 0
 74.666015625 3.166015625 70.4990234375 7.666015625 67.4990234375 12.9990234375 c 0
 64.4990234375 18.33203125 62.33203125 23.9990234375 60.9990234375 29.9990234375 c 0
 60.40625 32.517578125 60.1103515625 35.044921875 60.1103515625 37.580078125 c 0
 60.1103515625 46.4521484375 63.7392578125 55.4248046875 70.998046875 64.4990234375 c 0
 80.3310546875 76.166015625 97.6640625 89.9990234375 122.997070312 105.999023438 c 0
 163.6640625 131.999023438 226.1640625 174.666015625 310.497070312 233.999023438 c 0
 394.830078125 293.33203125 448.663085938 330.999023438 471.99609375 346.999023438 c 1
 452.663085938 366.999023438 431.330078125 391.166015625 407.997070312 419.499023438 c 0
 384.6640625 447.83203125 364.331054688 473.499023438 346.998046875 496.499023438 c 0
 329.665039062 519.499023438 310.83203125 542.999023438 290.499023438 566.999023438 c 0
 270.166015625 590.999023438 251.666015625 609.999023438 234.999023438 623.999023438 c 0
 218.33203125 637.999023438 207.999023438 650.166015625 203.999023438 660.499023438 c 0
 202.586914062 664.145507812 201.881835938 667.85546875 201.881835938 671.625976562 c 0
 201.881835938 678.541015625 204.25390625 685.665039062 208.999023438 692.998046875 c 0
 213.666015625 699.665039062 219.499023438 705.33203125 226.499023438 709.999023438 c 0
 233.499023438 714.666015625 242.499023438 717.666015625 253.499023438 718.999023438 c 0
 255.698242188 719.265625 257.9453125 719.3984375 260.23828125 719.3984375 c 0
 269.412109375 719.3984375 279.33203125 717.265625 289.999023438 712.999023438 c 0
 303.999023438 707.666015625 320.499023438 696.166015625 339.499023438 678.499023438 c 0
 358.499023438 660.83203125 378.166015625 639.33203125 398.499023438 613.999023438 c 0
 418.83203125 588.666015625 438.999023438 562.999023438 458.999023438 536.999023438 c 0
 478.999023438 510.999023438 500.166015625 484.33203125 522.499023438 456.999023438 c 0
 544.83203125 429.666015625 564.665039062 407.999023438 581.998046875 391.999023438 c 0
 587.998046875 385.999023438 590.831054688 376.999023438 590.498046875 364.999023438 c 0
 590.165039062 352.999023438 587.33203125 341.499023438 581.999023438 330.499023438 c 0
 576.666015625 319.499023438 569.666015625 311.666015625 560.999023438 306.999023438 c 0
 519.666015625 278.999023438 470.166015625 243.83203125 412.499023438 201.499023438 c 0
 354.83203125 159.166015625 302.33203125 120.833007812 254.999023438 86.5 c 0
 207.666015625 52.1669921875 166.333007812 25 131 5 c 0
EndSplineSet
Validated: 524289
EndChar

StartChar: question
Encoding: 63 63 42
Width: 650
GlyphClass: 2
Flags: HMW
HStem: -14.0039 153.998 637.999 84.001<350.667 363.331>
VStem: 125.001 151 200.999 95.001
LayerCount: 2
Fore
SplineSet
296 262 m 0xd0
 289.333007812 244.666992188 280.499023438 231.330078125 269.499023438 221.997070312 c 0
 262.166015625 215.775390625 253.721679688 212.6640625 244.166992188 212.6640625 c 0
 239.388671875 212.6640625 234.333007812 213.442382812 228.999023438 214.998046875 c 0
 212.999023438 219.665039062 203.666015625 228.33203125 200.999023438 240.999023438 c 0
 200.4375 243.666015625 200.157226562 246.524414062 200.157226562 249.576171875 c 0
 200.157226562 261.016601562 204.104492188 275.157226562 211.999023438 291.999023438 c 0
 220.666015625 309.999023438 230.999023438 326.999023438 242.999023438 342.999023438 c 0
 254.999023438 358.999023438 267.166015625 372.666015625 279.499023438 383.999023438 c 0
 291.83203125 395.33203125 304.665039062 406.165039062 317.998046875 416.498046875 c 0
 331.331054688 426.831054688 343.998046875 436.498046875 355.998046875 445.498046875 c 0
 367.998046875 454.498046875 379.165039062 463.665039062 389.498046875 472.998046875 c 0
 399.831054688 482.331054688 408.6640625 492.498046875 415.997070312 503.498046875 c 0
 423.330078125 514.498046875 428.330078125 526.331054688 430.997070312 538.998046875 c 0
 433.779296875 551.055664062 435.170898438 561.96484375 435.170898438 571.724609375 c 0
 435.170898438 590.0234375 430.279296875 604.28125 420.497070312 614.499023438 c 0
 405.497070312 630.166015625 380.6640625 637.999023438 345.997070312 637.999023438 c 0
 337.330078125 637.999023438 327.997070312 635.83203125 317.997070312 631.499023438 c 0
 307.997070312 627.166015625 299.330078125 622.333007812 291.997070312 617 c 0
 284.6640625 611.666992188 276.1640625 604.5 266.497070312 595.5 c 0
 256.830078125 586.5 249.330078125 578.833007812 243.997070312 572.5 c 0
 238.6640625 566.166992188 232.331054688 558.666992188 224.998046875 550 c 0
 217.665039062 541.333007812 210.83203125 534.5 204.499023438 529.5 c 0
 198.166015625 524.5 192.333007812 521.833007812 187 521.5 c 0
 181.666992188 521.166992188 176.833984375 521.5 172.500976562 522.5 c 0
 168.16796875 523.5 162.66796875 525.666992188 156.000976562 529 c 0
 146.66796875 535 142.16796875 543.666992188 142.500976562 555 c 0
 142.833984375 566.333007812 149.000976562 581 161.000976562 599 c 0
 171.000976562 613 182.333984375 626.5 195.000976562 639.5 c 0
 207.66796875 652.5 222.66796875 665.5 240.000976562 678.5 c 0
 257.333984375 691.5 276.666992188 702 298 710 c 0
 319.333007812 718 340.333007812 722 361 722 c 0
 428.333007812 722 475.5 705.333007812 502.5 672 c 0
 519.720703125 650.740234375 528.330078125 622.701171875 528.330078125 587.881835938 c 0
 528.330078125 568.107421875 525.553710938 546.147460938 520 522 c 0
 516 504 509.5 487.666992188 500.5 473 c 0
 491.5 458.333007812 481.5 445.666015625 470.5 434.999023438 c 0
 459.5 424.33203125 447.5 414.33203125 434.5 404.999023438 c 0
 421.5 395.666015625 408.333007812 386.333007812 395 377 c 0
 381.666992188 367.666992188 368.833984375 358 356.500976562 348 c 0
 344.16796875 338 332.66796875 325.5 322.000976562 310.5 c 0
 311.333984375 295.5 302.666992188 279.333007812 296 262 c 0xd0
184.999023438 -14.00390625 m 0
 181.62890625 -14.3779296875 178.390625 -14.5654296875 175.284179688 -14.5654296875 c 0
 156.263671875 -14.5654296875 142.170898438 -7.5478515625 133.001953125 6.4921875 c 0
 125.890625 17.380859375 122.334960938 29.5302734375 122.334960938 42.9375 c 0
 122.334960938 49.6416015625 123.223632812 56.6591796875 125.000976562 63.9921875 c 0
 129.66796875 84.6591796875 141.66796875 102.326171875 161.000976562 116.993164062 c 0
 180.333984375 131.66015625 200.000976562 139.327148438 220.000976562 139.994140625 c 0
 220.979492188 140.0234375 221.946289062 140.0390625 222.901367188 140.0390625 c 0
 243.426757812 140.0390625 258.626953125 133.190429688 268.500976562 119.495117188 c 0
 275.31640625 110.041015625 278.724609375 98.919921875 278.724609375 86.1298828125 c 0
 278.724609375 79.529296875 277.81640625 72.484375 276.000976562 64.9951171875 c 0xe0
 271.333984375 43.662109375 260.666992188 25.8291015625 244 11.49609375 c 0
 227.333007812 -2.8369140625 207.666015625 -11.3369140625 184.999023438 -14.00390625 c 0
EndSplineSet
Validated: 524289
EndChar

StartChar: at
Encoding: 64 64 43
Width: 650
GlyphClass: 2
Flags: HMW
HStem: -129 84.9961<204.673 253.004> 102.002 77.9951<405.673 448.671> 118.002 79.9941<286.671 295.006> 612.994 90.0078<418.337 422.006>
VStem: 54.5039 85.501 371.005 81 521.506 75.499
LayerCount: 2
Fore
SplineSet
452 5 m 0xde
 446.666992188 -4.3330078125 441.340820312 -12.5009765625 436.0078125 -19.5009765625 c 0
 430.674804688 -26.5009765625 424.0078125 -35.16796875 416.0078125 -45.5009765625 c 0
 408.0078125 -55.833984375 399.674804688 -64.6669921875 391.0078125 -72 c 0
 382.340820312 -79.3330078125 372.0078125 -86.8330078125 360.0078125 -94.5 c 0
 348.0078125 -102.166992188 335.340820312 -108.5 322.0078125 -113.5 c 0
 308.674804688 -118.5 293.174804688 -122.5 275.5078125 -125.5 c 0
 261.053710938 -127.954101562 246.264648438 -129.181640625 231.140625 -129.181640625 c 0
 227.779296875 -129.181640625 224.401367188 -129.12109375 221.006835938 -129 c 0
 188.33984375 -129 159.672851562 -120.333007812 135.005859375 -103 c 0
 110.338867188 -85.6669921875 91.171875 -61.5 77.5048828125 -30.5 c 0
 63.837890625 0.5 56.1708984375 38.1669921875 54.50390625 82.5 c 0
 54.30078125 87.9072265625 54.19921875 93.3759765625 54.19921875 98.9072265625 c 0
 54.19921875 138.725585938 59.4677734375 181.756835938 70.00390625 228 c 0
 84.00390625 286.666992188 101.00390625 341.333984375 121.00390625 392.000976562 c 0
 141.00390625 442.66796875 163.170898438 486.834960938 187.50390625 524.501953125 c 0
 211.836914062 562.168945312 237.50390625 594.501953125 264.50390625 621.501953125 c 0
 291.50390625 648.501953125 319.336914062 668.834960938 348.00390625 682.501953125 c 0
 376.670898438 696.168945312 404.670898438 703.001953125 432.00390625 703.001953125 c 0
 452.670898438 703.001953125 471.170898438 701.168945312 487.50390625 697.501953125 c 0
 503.836914062 693.834960938 519.00390625 687.834960938 533.00390625 679.501953125 c 0
 547.00390625 671.168945312 558.336914062 660.001953125 567.00390625 646.001953125 c 0
 575.670898438 632.001953125 582.837890625 614.501953125 588.504882812 593.501953125 c 0
 594.171875 572.501953125 597.004882812 548.001953125 597.004882812 520.001953125 c 0
 597.004882812 492.001953125 594.337890625 459.001953125 589.004882812 421.001953125 c 0
 583.671875 383.001953125 575.671875 340.334960938 565.004882812 293.001953125 c 0
 559.671875 269.001953125 552.838867188 246.168945312 544.505859375 224.501953125 c 0
 536.172851562 202.834960938 526.33984375 182.501953125 515.006835938 163.501953125 c 0
 503.673828125 144.501953125 490.506835938 129.501953125 475.506835938 118.501953125 c 0
 460.506835938 107.501953125 444.673828125 102.001953125 428.006835938 102.001953125 c 0xde
 389.638671875 102.001953125 370.455078125 122.662109375 370.455078125 163.981445312 c 0
 370.455078125 170.764648438 370.971679688 178.104492188 372.005859375 186.001953125 c 1
 347.338867188 140.668945312 315.005859375 118.001953125 275.005859375 118.001953125 c 0
 238.338867188 118.001953125 212.671875 130.334960938 198.004882812 155.001953125 c 0
 189.938476562 168.568359375 185.904296875 186.068359375 185.904296875 207.5 c 0
 185.904296875 225.03515625 188.604492188 245.202148438 194.004882812 268.002929688 c 0
 200.004882812 293.3359375 208.004882812 316.668945312 218.004882812 338.001953125 c 0
 228.004882812 359.334960938 239.171875 377.501953125 251.504882812 392.501953125 c 0
 263.837890625 407.501953125 277.337890625 420.168945312 292.004882812 430.501953125 c 0
 306.671875 440.834960938 321.504882812 448.16796875 336.504882812 452.500976562 c 0
 349.50390625 456.255859375 362.502929688 458.133789062 375.501953125 458.133789062 c 0
 381.504882812 458 l 0
 396.504882812 457.333007812 410.671875 453.666015625 424.004882812 446.999023438 c 0
 437.337890625 440.999023438 447.004882812 432.999023438 453.004882812 422.999023438 c 0
 459.004882812 412.999023438 459.004882812 403.999023438 453.004882812 395.999023438 c 0
 449.671875 390.666015625 446.004882812 386.333007812 442.004882812 383 c 0
 438.004882812 379.666992188 433.671875 377.333984375 429.004882812 376.000976562 c 0
 424.337890625 374.66796875 420.170898438 373.66796875 416.50390625 373.000976562 c 0
 412.836914062 372.333984375 408.169921875 372.500976562 402.502929688 373.500976562 c 0
 396.8359375 374.500976562 392.502929688 375.333984375 389.502929688 376.000976562 c 0
 386.502929688 376.66796875 382.3359375 378.000976562 377.002929688 380.000976562 c 0
 369.669921875 381.333984375 361.836914062 381.666992188 353.50390625 381 c 0
 345.170898438 380.333007812 336.837890625 377.5 328.504882812 372.5 c 0
 320.171875 367.5 312.171875 361.166992188 304.504882812 353.5 c 0
 296.837890625 345.833007812 289.837890625 335.666015625 283.504882812 322.999023438 c 0
 277.171875 310.33203125 272.004882812 295.999023438 268.004882812 279.999023438 c 0
 266.004882812 271.33203125 264.671875 263.165039062 264.004882812 255.498046875 c 0
 263.337890625 247.831054688 263.170898438 239.1640625 263.50390625 229.497070312 c 0
 263.836914062 219.830078125 266.336914062 212.163085938 271.00390625 206.49609375 c 0
 275.670898438 200.829101562 282.337890625 197.99609375 291.004882812 197.99609375 c 0xbe
 310.337890625 197.99609375 326.004882812 206.163085938 338.004882812 222.49609375 c 0
 350.004882812 238.829101562 361.004882812 265.99609375 371.004882812 303.99609375 c 0
 373.671875 314.663085938 383.671875 323.330078125 401.004882812 329.997070312 c 0
 411.8125 334.2421875 421.278320312 336.365234375 429.404296875 336.365234375 c 0
 435.314453125 336.365234375 440.514648438 335.2421875 445.005859375 332.997070312 c 0
 452.338867188 329.6640625 454.671875 322.997070312 452.004882812 312.997070312 c 0
 440.004882812 277.6640625 432.671875 250.1640625 430.004882812 230.497070312 c 0
 428.671875 220.6640625 428.004882812 212.4140625 428.004882812 205.747070312 c 0
 428.004882812 199.080078125 428.671875 193.997070312 430.004882812 190.497070312 c 0
 432.671875 183.497070312 438.004882812 179.997070312 446.004882812 179.997070312 c 0
 451.337890625 179.997070312 456.837890625 184.330078125 462.504882812 192.997070312 c 0
 468.171875 201.6640625 473.338867188 212.997070312 478.005859375 226.997070312 c 0
 482.672851562 240.997070312 486.505859375 253.330078125 489.505859375 263.997070312 c 0
 492.505859375 274.6640625 495.005859375 284.997070312 497.005859375 294.997070312 c 0
 505.005859375 328.997070312 511.005859375 360.330078125 515.005859375 388.997070312 c 0
 519.005859375 417.6640625 521.172851562 442.1640625 521.505859375 462.497070312 c 0
 521.5390625 464.529296875 521.555664062 466.541015625 521.555664062 468.533203125 c 0
 521.555664062 486.474609375 520.206054688 502.794921875 517.505859375 517.49609375 c 0
 514.505859375 533.829101562 511.172851562 547.162109375 507.505859375 557.495117188 c 0
 503.838867188 567.828125 498.505859375 576.661132812 491.505859375 583.994140625 c 0
 484.505859375 591.327148438 478.172851562 596.827148438 472.505859375 600.494140625 c 0
 466.838867188 604.161132812 460.005859375 606.994140625 452.005859375 608.994140625 c 0
 444.005859375 610.994140625 438.005859375 612.161132812 434.005859375 612.494140625 c 0
 430.005859375 612.827148438 425.005859375 612.994140625 419.005859375 612.994140625 c 0
 394.338867188 612.994140625 369.171875 604.661132812 343.504882812 587.994140625 c 0
 317.837890625 571.327148438 293.504882812 548.16015625 270.504882812 518.493164062 c 0
 247.504882812 488.826171875 226.171875 451.993164062 206.504882812 407.993164062 c 0
 186.837890625 363.993164062 171.004882812 315.993164062 159.004882812 263.993164062 c 0
 148.337890625 218.66015625 142.004882812 177.827148438 140.004882812 141.494140625 c 0
 139.458984375 131.5859375 139.186523438 122.198242188 139.186523438 113.330078125 c 0
 139.186523438 89.6826171875 141.125976562 69.7373046875 145.004882812 53.4951171875 c 0
 150.337890625 31.162109375 158.170898438 12.3291015625 168.50390625 -3.00390625 c 0
 178.836914062 -18.3369140625 190.336914062 -29.00390625 203.00390625 -35.00390625 c 0
 215.670898438 -41.00390625 229.670898438 -44.00390625 245.00390625 -44.00390625 c 0
 261.00390625 -44.00390625 276.170898438 -42.3369140625 290.50390625 -39.00390625 c 0
 304.836914062 -35.6708984375 317.00390625 -31.6708984375 327.00390625 -27.00390625 c 0
 337.00390625 -22.3369140625 346.836914062 -16.00390625 356.50390625 -8.00390625 c 0
 366.170898438 -0.00390625 374.170898438 7.3291015625 380.50390625 13.99609375 c 0
 386.836914062 20.6630859375 394.00390625 29.330078125 402.00390625 39.9970703125 c 0
 405.336914062 44.6640625 408.169921875 48.3310546875 410.502929688 50.998046875 c 0
 412.8359375 53.6650390625 415.668945312 56.83203125 419.001953125 60.4990234375 c 0
 422.334960938 64.166015625 425.16796875 66.8330078125 427.500976562 68.5 c 0
 429.833984375 70.1669921875 432.500976562 71.6669921875 435.500976562 73 c 0
 438.500976562 74.3330078125 441.500976562 75 444.500976562 75 c 0
 447.500976562 75 450.333984375 74.3330078125 453.000976562 73 c 0
 457.66796875 71 461.16796875 68.5 463.500976562 65.5 c 0
 465.833984375 62.5 467.500976562 58.5 468.500976562 53.5 c 0
 469.500976562 48.5 468.66796875 41.8330078125 466.000976562 33.5 c 0
 463.333984375 25.1669921875 458.666992188 15.6669921875 452 5 c 0xde
EndSplineSet
Validated: 524289
EndChar

StartChar: A
Encoding: 65 65 44
Width: 650
GlyphClass: 2
Flags: HMW
HStem: 251 81.0059
VStem: 476 91.501
LayerCount: 2
Fore
SplineSet
157 41 m 2
 146.333007812 20.3330078125 134.333007812 6.671875 121 0.0048828125 c 0
 113.592773438 -3.69921875 106.69921875 -5.55078125 100.3203125 -5.55078125 c 0
 95.2177734375 -5.55078125 90.4443359375 -4.3662109375 86 -1.99609375 c 0
 75.806640625 3.6279296875 70.708984375 13.330078125 70.708984375 27.109375 c 0
 70.708984375 39.4638671875 74.806640625 55.0947265625 83 74.00390625 c 0
 91.6669921875 95.3369140625 121.666992188 147.336914062 173 230.00390625 c 1
 165.741210938 236.225585938 162.112304688 243.456054688 162.112304688 251.694335938 c 0
 162.112304688 254.048828125 162.408203125 256.485351562 163.000976562 259.00390625 c 0
 164.333984375 268.336914062 170.333984375 277.169921875 181.000976562 285.502929688 c 0
 191.66796875 293.8359375 204.000976562 300.3359375 218.000976562 305.002929688 c 1
 338.000976562 495.669921875 426.000976562 623.002929688 482.000976562 687.002929688 c 0
 494.000976562 700.3359375 504.333984375 710.002929688 513.000976562 716.002929688 c 0
 521.66796875 722.002929688 530.334960938 725.002929688 539.001953125 725.002929688 c 0
 541.18359375 725.245117188 543.3046875 725.366210938 545.365234375 725.366210938 c 0
 554.637695312 725.366210938 562.68359375 722.912109375 569.501953125 718.002929688 c 0
 576.685546875 712.830078125 580.27734375 704.4375 580.27734375 692.823242188 c 0
 580.27734375 690.965820312 580.185546875 689.025390625 580.001953125 687.002929688 c 0
 573.334960938 604.3359375 568.001953125 487.168945312 564.001953125 335.501953125 c 0
 562.501953125 278.625 561.751953125 230.819335938 561.751953125 192.083984375 c 0
 561.751953125 127.528320312 563.834960938 88.16796875 568.001953125 74.0009765625 c 0
 569.588867188 67.9697265625 570.3828125 62.203125 570.3828125 56.701171875 c 0
 570.3828125 50.6474609375 569.421875 44.9140625 567.500976562 39.5009765625 c 0
 563.833984375 29.16796875 558.666992188 20.5009765625 552 13.5009765625 c 0
 545.333007812 6.5009765625 538 1.333984375 530 -1.9990234375 c 0
 524.208984375 -4.4365234375 518.663085938 -5.65625 513.359375 -5.65625 c 0
 507.0625 -5.65625 501.109375 -3.9365234375 495.5 -0.4990234375 c 0
 485.166992188 5.833984375 478.666992188 19.6669921875 476 41 c 0
 474.93359375 49.2666015625 474.399414062 65.4267578125 474.399414062 89.4794921875 c 0
 474.399414062 125.559570312 475.599609375 179.399414062 478 251 c 1
 398 247.666992188 325.666992188 240.666992188 261 230 c 1
 157 41 l 2
493 602.005859375 m 1
 455.666992188 557.338867188 395 462.672851562 311 318.005859375 c 1
 375.666992188 326.005859375 432.666992188 330.672851562 482 332.005859375 c 1
 493 602.005859375 l 1
EndSplineSet
Validated: 524289
EndChar

StartChar: B
Encoding: 66 66 45
Width: 650
GlyphClass: 2
Flags: HMW
HStem: -22.9961 21G<110.336 116.669> 297.005 72<299.003 303.002> 630.005 78.998<383 397.336>
LayerCount: 2
Fore
SplineSet
229 -14 m 0
 218.333007812 -14.6669921875 206.502929688 -15.662109375 193.502929688 -16.9951171875 c 0
 180.502929688 -18.328125 169.8359375 -19.328125 161.502929688 -19.9951171875 c 0
 153.169921875 -20.662109375 144.669921875 -21.3291015625 136.002929688 -21.99609375 c 0
 127.3359375 -22.6630859375 119.8359375 -22.99609375 113.502929688 -22.99609375 c 0
 107.169921875 -22.99609375 101.669921875 -22.3291015625 97.0029296875 -20.99609375 c 2
 93.0029296875 -20.99609375 l 2
 80.3359375 -20.99609375 71.1689453125 -16.49609375 65.501953125 -7.49609375 c 0
 62.39453125 -2.560546875 60.8408203125 3.427734375 60.8408203125 10.4677734375 c 0
 60.8408203125 16.265625 61.89453125 22.7783203125 64.001953125 30.00390625 c 0
 72.6689453125 58.00390625 85.6689453125 111.336914062 103.001953125 190.00390625 c 0
 120.334960938 268.670898438 137.334960938 349.670898438 154.001953125 433.00390625 c 0
 163.334960938 477.670898438 169.66796875 507.670898438 173.000976562 523.00390625 c 0
 176.333984375 538.336914062 181.500976562 559.00390625 188.500976562 585.00390625 c 0
 195.500976562 611.00390625 200.333984375 629.00390625 203.000976562 639.00390625 c 0
 207.66796875 657.00390625 215.500976562 670.50390625 226.500976562 679.50390625 c 0
 237.500976562 688.50390625 249.333984375 693.00390625 262.000976562 693.00390625 c 2
 265.000976562 693.00390625 l 2
 275.66796875 696.336914062 286.834960938 699.169921875 298.501953125 701.502929688 c 0
 310.168945312 703.8359375 320.668945312 705.502929688 330.001953125 706.502929688 c 0
 339.334960938 707.502929688 349.16796875 708.169921875 359.500976562 708.502929688 c 0
 369.833984375 708.8359375 377.666992188 709.002929688 383 709.002929688 c 2
 401.5 709.002929688 l 1
 412 709.002929688 l 2
 454 709.002929688 489.5 700.669921875 518.5 684.002929688 c 0
 547.5 667.3359375 568 643.168945312 580 611.501953125 c 0
 586.75 593.689453125 590.125 574.2421875 590.125 553.16015625 c 0
 590.125 536.762695312 588.083007812 519.376953125 584 501.001953125 c 0
 575.333007812 462.334960938 559.333007812 429.16796875 536 401.500976562 c 0
 512.666992188 373.833984375 485 353.666992188 453 341 c 1
 472.333007812 333.666992188 490.5 322.833984375 507.5 308.500976562 c 0
 524.5 294.16796875 537.666992188 278.16796875 547 260.500976562 c 0
 553.876953125 247.483398438 557.315429688 235.098632812 557.315429688 223.34765625 c 0
 557.315429688 219.151367188 556.876953125 215.036132812 556 211.000976562 c 0
 550.666992188 185.66796875 539 160.500976562 521 135.500976562 c 0
 503 110.500976562 480.166992188 87.66796875 452.5 67.0009765625 c 0
 424.833007812 46.333984375 391.5 28.6669921875 352.5 14 c 0
 313.5 -0.6669921875 272.333007812 -10 229 -14 c 0
392.002929688 630.004882812 m 0
 358.669921875 630.004882812 325.001953125 625.671875 291.001953125 617.004882812 c 1
 287.668945312 604.337890625 282.3359375 584.004882812 275.002929688 556.004882812 c 0
 267.669921875 528.004882812 260.169921875 498.337890625 252.502929688 467.004882812 c 0
 244.8359375 435.671875 237.3359375 403.671875 230.002929688 371.004882812 c 1
 258.669921875 369.671875 286.002929688 369.004882812 312.002929688 369.004882812 c 0
 330.669921875 369.004882812 348.169921875 370.671875 364.502929688 374.004882812 c 0
 380.8359375 377.337890625 394.8359375 381.670898438 406.502929688 387.00390625 c 0
 418.169921875 392.336914062 429.002929688 398.836914062 439.002929688 406.50390625 c 0
 449.002929688 414.170898438 457.3359375 422.00390625 464.002929688 430.00390625 c 0
 470.669921875 438.00390625 476.502929688 446.836914062 481.502929688 456.50390625 c 0
 486.502929688 466.170898438 490.3359375 474.837890625 493.002929688 482.504882812 c 0
 495.669921875 490.171875 498.002929688 498.338867188 500.002929688 507.005859375 c 0
 502.2890625 516.91015625 503.431640625 526.379882812 503.431640625 535.4140625 c 0
 503.431640625 542.189453125 502.7890625 548.719726562 501.502929688 555.005859375 c 0
 498.502929688 569.672851562 493.169921875 581.505859375 485.502929688 590.505859375 c 0
 477.8359375 599.505859375 468.502929688 607.172851562 457.502929688 613.505859375 c 0
 446.502929688 619.838867188 435.502929688 624.171875 424.502929688 626.504882812 c 0
 413.502929688 628.837890625 402.669921875 630.004882812 392.002929688 630.004882812 c 0
303.001953125 297.004882812 m 1
 257.668945312 297.004882812 228 296.670898438 214 296.00390625 c 1
 192 188.670898438 176.666992188 112.337890625 168 67.0048828125 c 1
 174.666992188 67.0048828125 185.833984375 67.337890625 201.500976562 68.0048828125 c 0
 217.16796875 68.671875 229.334960938 69.0048828125 238.001953125 69.0048828125 c 0
 266.668945312 70.337890625 294.668945312 75.6708984375 322.001953125 85.00390625 c 0
 349.334960938 94.3369140625 372.334960938 105.50390625 391.001953125 118.50390625 c 0
 409.668945312 131.50390625 425.168945312 145.170898438 437.501953125 159.50390625 c 0
 449.834960938 173.836914062 457.66796875 187.00390625 461.000976562 199.00390625 c 0
 463.000976562 207.670898438 461.500976562 216.337890625 456.500976562 225.004882812 c 0
 451.500976562 233.671875 443.333984375 242.671875 432.000976562 252.004882812 c 0
 420.66796875 261.337890625 403.834960938 270.004882812 381.501953125 278.004882812 c 0
 359.168945312 286.004882812 333.001953125 292.337890625 303.001953125 297.004882812 c 1
EndSplineSet
Validated: 524289
EndChar

StartChar: C
Encoding: 67 67 46
Width: 650
GlyphClass: 2
Flags: HMW
HStem: -31.002 90.0029<176.333 230.999> 632.001 80.9961<461.333 463.333>
VStem: 500.999 77
LayerCount: 2
Fore
SplineSet
457 64 m 0
 391.01953125 0.607421875 304.954101562 -31.0908203125 198.803710938 -31.0908203125 c 0
 195.553710938 -31.0908203125 192.286132812 -31.0615234375 188.999023438 -31.001953125 c 0
 163.666015625 -31.001953125 140.833007812 -26.3349609375 120.5 -17.001953125 c 0
 100.166992188 -7.6689453125 83.6669921875 4.6640625 71 19.9970703125 c 0
 58.3330078125 35.330078125 48.3330078125 53.1630859375 41 73.49609375 c 0
 33.6669921875 93.8291015625 29.6669921875 115.49609375 29 138.49609375 c 0
 28.93359375 140.796875 28.900390625 143.099609375 28.900390625 145.403320312 c 0
 28.900390625 166.1328125 31.6005859375 186.997070312 37 207.99609375 c 0
 48.3330078125 256.663085938 63.8330078125 303.663085938 83.5 348.99609375 c 0
 103.166992188 394.329101562 125.166992188 435.329101562 149.5 471.99609375 c 0
 173.833007812 508.663085938 200.166015625 542.330078125 228.499023438 572.997070312 c 0
 256.83203125 603.6640625 284.999023438 629.1640625 312.999023438 649.497070312 c 0
 340.999023438 669.830078125 368.83203125 685.497070312 396.499023438 696.497070312 c 0
 424.166015625 707.497070312 449.666015625 712.997070312 472.999023438 712.997070312 c 0
 495.666015625 712.997070312 515.999023438 710.330078125 533.999023438 704.997070312 c 1
 538.666015625 714.997070312 545.166015625 723.1640625 553.499023438 729.497070312 c 0
 561.83203125 735.830078125 570.665039062 739.330078125 579.998046875 739.997070312 c 0
 590.665039062 741.997070312 600.33203125 739.497070312 608.999023438 732.497070312 c 0
 617.666015625 725.497070312 621.999023438 715.330078125 621.999023438 701.997070312 c 0
 621.999023438 691.997070312 621.33203125 682.1640625 619.999023438 672.497070312 c 0
 618.666015625 662.830078125 617.166015625 653.330078125 615.499023438 643.997070312 c 0
 613.83203125 634.6640625 612.33203125 626.997070312 610.999023438 620.997070312 c 0
 609.666015625 614.997070312 607.999023438 607.997070312 605.999023438 599.997070312 c 0
 603.999023438 591.997070312 602.666015625 586.997070312 601.999023438 584.997070312 c 0
 598.666015625 570.997070312 590.666015625 556.830078125 577.999023438 542.497070312 c 0
 565.33203125 528.1640625 553.665039062 520.331054688 542.998046875 518.998046875 c 0
 540.67578125 518.611328125 538.403320312 518.416992188 536.180664062 518.416992188 c 0
 526.918945312 518.416992188 518.524414062 521.77734375 510.998046875 528.498046875 c 0
 503.739257812 534.979492188 500.110351562 543.174804688 500.110351562 553.083007812 c 0
 500.110351562 555.915039062 500.40625 558.88671875 500.999023438 561.998046875 c 0
 502.33203125 567.331054688 506.33203125 581.331054688 512.999023438 603.998046875 c 0
 512.33203125 604.665039062 509.83203125 606.83203125 505.499023438 610.499023438 c 0
 501.166015625 614.166015625 497.999023438 616.833007812 495.999023438 618.5 c 0
 493.999023438 620.166992188 490.83203125 622.333984375 486.499023438 625.000976562 c 0
 482.166015625 627.66796875 477.999023438 629.500976562 473.999023438 630.500976562 c 0
 469.999023438 631.500976562 465.666015625 632.000976562 460.999023438 632.000976562 c 0
 441.666015625 632.000976562 419.499023438 625.333984375 394.499023438 612.000976562 c 0
 369.499023438 598.66796875 343.999023438 579.66796875 317.999023438 555.000976562 c 0
 291.999023438 530.333984375 267.166015625 502.000976562 243.499023438 470.000976562 c 0
 219.83203125 438.000976562 198.33203125 401.833984375 178.999023438 361.500976562 c 0
 159.666015625 321.16796875 145.666015625 280.66796875 136.999023438 240.000976562 c 0
 132.958007812 222.22265625 130.9375 204.688476562 130.9375 187.399414062 c 0
 130.9375 176.163085938 131.791015625 165.030273438 133.498046875 154.000976562 c 0
 137.831054688 126.000976562 147.831054688 103.16796875 163.498046875 85.5009765625 c 0
 179.165039062 67.833984375 198.33203125 59.0009765625 220.999023438 59.0009765625 c 0
 240.999023438 59.0009765625 260.999023438 61.16796875 280.999023438 65.5009765625 c 0
 300.999023438 69.833984375 319.33203125 75.5009765625 335.999023438 82.5009765625 c 0
 352.666015625 89.5009765625 367.333007812 96.5009765625 380 103.500976562 c 0
 392.666992188 110.500976562 404.666992188 118.000976562 416 126.000976562 c 0
 425.333007812 132.000976562 433.333007812 136.66796875 440 140.000976562 c 0
 446.666992188 143.333984375 453.5 145.000976562 460.5 145.000976562 c 0
 467.5 145.000976562 473.333007812 142.66796875 478 138.000976562 c 0
 484.788085938 131.212890625 488.181640625 123.631835938 488.181640625 115.256835938 c 0
 488.181640625 100.600585938 477.788085938 83.515625 457 64 c 0
EndSplineSet
Validated: 524289
EndChar

StartChar: D
Encoding: 68 68 47
Width: 650
GlyphClass: 2
Flags: HMW
HStem: -31 85.998<310.997 322.667> 694.001 20G<248.665 258.998>
LayerCount: 2
Fore
SplineSet
310 -31 m 0
 279.333007812 -31 249.49609375 -29.5 220.49609375 -26.5 c 0
 191.49609375 -23.5 168.663085938 -20 151.99609375 -16 c 0
 135.329101562 -12 120.829101562 -8.3330078125 108.49609375 -5 c 0
 96.1630859375 -1.6669921875 88.99609375 0 86.99609375 0 c 0
 74.3291015625 0 65.162109375 4.5 59.4951171875 13.5 c 0
 56.3876953125 18.435546875 54.833984375 24.423828125 54.833984375 31.4638671875 c 0
 54.833984375 37.26171875 55.8876953125 43.7744140625 57.9951171875 51 c 0
 67.328125 83 80.9951171875 139.833007812 98.9951171875 221.5 c 0
 116.995117188 303.166992188 135.662109375 391.666992188 154.995117188 487 c 0
 162.995117188 524.333007812 168.328125 548.833007812 170.995117188 560.5 c 0
 173.662109375 572.166992188 178.329101562 590.333984375 184.99609375 615.000976562 c 0
 191.663085938 639.66796875 195.663085938 654.66796875 196.99609375 660.000976562 c 0
 201.663085938 678.000976562 209.330078125 691.500976562 219.997070312 700.500976562 c 0
 230.6640625 709.500976562 242.331054688 714.000976562 254.998046875 714.000976562 c 0
 262.998046875 714.000976562 272.998046875 713.333984375 284.998046875 712.000976562 c 0
 296.998046875 710.66796875 312.498046875 708.000976562 331.498046875 704.000976562 c 0
 350.498046875 700.000976562 369.498046875 694.500976562 388.498046875 687.500976562 c 0
 407.498046875 680.500976562 427.331054688 670.66796875 447.998046875 658.000976562 c 0
 468.665039062 645.333984375 487.665039062 630.666992188 504.998046875 614 c 0
 522.331054688 597.333007812 538.1640625 576.5 552.497070312 551.5 c 0
 566.830078125 526.5 577.830078125 499.166992188 585.497070312 469.5 c 0
 592.55078125 442.20703125 596.077148438 410.119140625 596.077148438 373.235351562 c 0
 596.077148438 370.026367188 596.05078125 366.78125 595.997070312 363.5 c 0
 595.330078125 322.5 589.330078125 278.333007812 577.997070312 231 c 0
 572.6640625 207.666992188 564.331054688 184 552.998046875 160 c 0
 541.665039062 136 527.33203125 112.5 509.999023438 89.5 c 0
 492.666015625 66.5 473.833007812 46 453.5 28 c 0
 433.166992188 10 410.5 -4.3330078125 385.5 -15 c 0
 360.5 -25.6669921875 335.333007812 -31 310 -31 c 0
213.99609375 348 m 0
 207.99609375 319.333007812 199.1640625 276.165039062 187.497070312 218.498046875 c 0
 175.830078125 160.831054688 167.330078125 117.331054688 161.997070312 87.998046875 c 1
 184.6640625 75.998046875 209.1640625 67.498046875 235.497070312 62.498046875 c 0
 261.830078125 57.498046875 292.997070312 54.998046875 328.997070312 54.998046875 c 0
 346.330078125 54.998046875 363.997070312 61.1650390625 381.997070312 73.498046875 c 0
 399.997070312 85.8310546875 416.330078125 101.831054688 430.997070312 121.498046875 c 0
 445.6640625 141.165039062 458.6640625 162.83203125 469.997070312 186.499023438 c 0
 481.330078125 210.166015625 489.663085938 233.333007812 494.99609375 256 c 0
 502.55859375 289.063476562 506.33984375 320.0625 506.33984375 348.99609375 c 0
 506.33984375 429.743164062 476.891601562 494.411132812 417.99609375 543 c 0
 389.329101562 566.333007812 345.99609375 590.333007812 287.99609375 615 c 1
 287.99609375 616 l 1
 286.99609375 616 l 1
 285.99609375 616 l 1
 284.99609375 617 l 1
 283.99609375 617 l 1
 282.99609375 618 l 1
 281.99609375 618 l 1
 280.99609375 618 l 1
 280.99609375 619 l 1
 279.99609375 619 l 1
 278.99609375 619 l 1
 277.99609375 620 l 1
 276.99609375 620 l 1
 275.99609375 620 l 1
 275.99609375 621 l 1
 253.99609375 534.333007812 233.329101562 443.333007812 213.99609375 348 c 0
EndSplineSet
Validated: 524289
EndChar

StartChar: E
Encoding: 69 69 48
Width: 650
GlyphClass: 2
Flags: HMW
HStem: -17.498 87.4961 -6 90.4971 312.001 85.999<174.001 215.672> 332.001 80.999<488.335 520.337> 614.501 82.5
LayerCount: 2
Fore
SplineSet
423 -6 m 0x48
 421.05859375 -5.87890625 418.565429688 -5.818359375 415.51953125 -5.818359375 c 0
 401.83203125 -5.818359375 376.994140625 -7.0439453125 341.002929688 -9.498046875 c 0
 297.002929688 -12.498046875 249.002929688 -15.1650390625 197.002929688 -17.498046875 c 0
 169.001953125 -18.75390625 144.48046875 -19.3828125 123.438476562 -19.3828125 c 0
 105.404296875 -19.3828125 89.92578125 -18.9208984375 77.0029296875 -17.998046875 c 0
 63.0029296875 -17.3310546875 50.669921875 -9.8310546875 40.0029296875 4.501953125 c 0
 31.0205078125 16.5712890625 26.529296875 30.8876953125 26.529296875 47.44921875 c 0
 26.529296875 50.5546875 26.6875 53.73828125 27.0029296875 57.001953125 c 0
 29.0029296875 74.3349609375 35.169921875 105.501953125 45.5029296875 150.501953125 c 0
 55.8359375 195.501953125 67.1689453125 243.334960938 79.501953125 294.001953125 c 0
 91.8349609375 344.668945312 104.334960938 401.668945312 117.001953125 465.001953125 c 0
 125.668945312 505.001953125 131.501953125 531.501953125 134.501953125 544.501953125 c 0
 137.501953125 557.501953125 142.334960938 576.668945312 149.001953125 602.001953125 c 0
 155.668945312 627.334960938 160.001953125 643.001953125 162.001953125 649.001953125 c 0
 166.668945312 667.001953125 174.3359375 680.668945312 185.002929688 690.001953125 c 0
 195.669921875 699.334960938 207.336914062 704.001953125 220.00390625 704.001953125 c 0
 220.881835938 704.037109375 221.744140625 704.0546875 222.591796875 704.0546875 c 0
 237.849609375 704.0546875 248.319335938 698.370117188 254.00390625 687.001953125 c 1
 290.670898438 692.334960938 332.837890625 695.66796875 380.504882812 697.000976562 c 0
 404.337890625 697.66796875 426.754882812 698.000976562 447.754882812 698.000976562 c 0
 468.754882812 698.000976562 488.337890625 697.666992188 506.504882812 697.000976562 c 0
 542.837890625 695.66796875 571.337890625 693.66796875 592.004882812 691.000976562 c 0
 606.004882812 689.000976562 615.337890625 685.000976562 620.004882812 679.000976562 c 0
 624.671875 673.000976562 625.671875 664.66796875 623.004882812 654.000976562 c 0
 621.671875 648.000976562 619.838867188 642.333984375 617.505859375 637.000976562 c 0
 615.172851562 631.66796875 612.172851562 626.834960938 608.505859375 622.501953125 c 0
 604.838867188 618.168945312 600.005859375 614.668945312 594.005859375 612.001953125 c 0
 588.005859375 609.334960938 581.005859375 608.66796875 573.005859375 610.000976562 c 0
 530.76171875 613.439453125 487.974609375 615.159179688 444.645507812 615.159179688 c 0
 429.16796875 615.159179688 413.622070312 614.939453125 398.006835938 614.500976562 c 0
 338.673828125 612.833984375 287.006835938 608.666992188 243.006835938 602 c 1
 224.33984375 532.666992188 207.672851562 464.666992188 193.005859375 398 c 1xa8
 238.338867188 398 300.671875 400.5 380.004882812 405.5 c 0
 459.337890625 410.5 503.670898438 413 513.00390625 413 c 0
 527.670898438 413 537.170898438 409.666992188 541.50390625 403 c 0
 545.836914062 396.333007812 546.669921875 387 544.002929688 375 c 0
 537.484375 346.319335938 521.405273438 331.978515625 495.765625 331.978515625 c 0
 495.182617188 331.978515625 494.594726562 331.986328125 494.001953125 332.000976562 c 0x18
 482.668945312 332.000976562 434.168945312 328.66796875 348.501953125 322.000976562 c 0
 262.834960938 315.333984375 204.66796875 312.000976562 174.000976562 312.000976562 c 1
 170.66796875 297.333984375 166.334960938 278.166992188 161.001953125 254.5 c 0
 155.668945312 230.833007812 151.168945312 210.5 147.501953125 193.5 c 0
 143.834960938 176.5 140.16796875 159 136.500976562 141 c 0
 132.833984375 123 130.166992188 108.166992188 128.5 96.5 c 0
 126.833007812 84.8330078125 126.333007812 76.666015625 127 71.9990234375 c 1
 135.556640625 69.2763671875 155.513671875 67.9150390625 186.872070312 67.9150390625 c 0
 209.266601562 67.9150390625 237.4765625 68.609375 271.500976562 69.998046875 c 0xa8
 353.16796875 73.3310546875 406.000976562 77.6640625 430.000976562 82.9970703125 c 0
 439.333984375 84.330078125 447.166992188 84.830078125 453.5 84.4970703125 c 0
 459.833007812 84.1640625 465 82.8310546875 469 80.498046875 c 0
 473 78.1650390625 476 75.6650390625 478 72.998046875 c 0
 480 70.3310546875 481.333007812 66.8310546875 482 62.498046875 c 0
 482.666992188 58.1650390625 483 54.33203125 483 50.9990234375 c 0
 483 47.666015625 482.666992188 44.3330078125 482 41 c 0
 479.333007812 28.3330078125 472.833007812 17 462.5 7 c 0
 453.3828125 -1.8232421875 442.05859375 -6.2353515625 428.528320312 -6.2353515625 c 0
 426.724609375 -6.2353515625 424.881835938 -6.1572265625 423 -6 c 0x48
EndSplineSet
Validated: 524289
EndChar

StartChar: F
Encoding: 70 70 49
Width: 650
GlyphClass: 2
Flags: HMW
HStem: 316 86.002 619.002 86.999
LayerCount: 2
Fore
SplineSet
119 24 m 0
 114.333007812 10 105.5 -1.166015625 92.5 -9.4990234375 c 0
 80.4638671875 -17.21484375 68.2841796875 -21.072265625 55.9619140625 -21.072265625 c 0
 54.9755859375 -21.072265625 53.98828125 -21.0478515625 53 -20.998046875 c 0
 40.3330078125 -20.998046875 31.166015625 -16.498046875 25.4990234375 -7.498046875 c 0
 22.3916015625 -2.5625 20.837890625 3.42578125 20.837890625 10.4658203125 c 0
 20.837890625 16.263671875 21.8916015625 22.7763671875 23.9990234375 30.001953125 c 0
 32.666015625 59.3349609375 46.166015625 115.501953125 64.4990234375 198.501953125 c 0
 82.83203125 281.501953125 100.665039062 367.001953125 117.998046875 455.001953125 c 0
 127.331054688 499.668945312 133.831054688 529.668945312 137.498046875 545.001953125 c 0
 141.165039062 560.334960938 146.498046875 581.001953125 153.498046875 607.001953125 c 0
 160.498046875 633.001953125 165.331054688 650.668945312 167.998046875 660.001953125 c 0
 172.665039062 678.001953125 180.33203125 691.501953125 190.999023438 700.501953125 c 0
 201.666015625 709.501953125 213.333007812 714.001953125 226 714.001953125 c 0
 227.650390625 714.12890625 229.249023438 714.192382812 230.796875 714.192382812 c 0
 245.502929688 714.192382812 255.571289062 708.461914062 261 697.000976562 c 1
 323 701.66796875 385 704.66796875 447 706.000976562 c 0
 462.499023438 706.333984375 477.26953125 706.500976562 491.310546875 706.500976562 c 0
 533.436523438 706.500976562 568.999023438 705.000976562 598 702.000976562 c 0
 612 700.66796875 621.166992188 696.834960938 625.5 690.501953125 c 0
 629.833007812 684.168945312 631 675.3359375 629 664.002929688 c 0
 626.333007812 651.3359375 620.5 640.668945312 611.5 632.001953125 c 0
 602.5 623.334960938 590.333007812 619.001953125 575 619.001953125 c 0
 540.680664062 620.856445312 505.15234375 621.784179688 468.413085938 621.784179688 c 0
 399.528320312 621.784179688 326.390625 618.5234375 248.999023438 612.001953125 c 1
 246.33203125 600.668945312 241.665039062 582.501953125 234.998046875 557.501953125 c 0
 228.331054688 532.501953125 221.831054688 507.001953125 215.498046875 481.001953125 c 0
 209.165039062 455.001953125 202.998046875 428.668945312 196.998046875 402.001953125 c 1
 225.568359375 405.430664062 256.83203125 407.14453125 290.790039062 407.14453125 c 0
 296.451171875 407.14453125 302.1875 407.09765625 307.998046875 407.001953125 c 0
 348.665039062 406.334960938 384.998046875 404.501953125 416.998046875 401.501953125 c 0
 448.998046875 398.501953125 474.331054688 395.334960938 492.998046875 392.001953125 c 0
 506.998046875 389.334960938 516.165039062 385.001953125 520.498046875 379.001953125 c 0
 524.831054688 373.001953125 525.998046875 364.668945312 523.998046875 354.001953125 c 0
 522.665039062 348.001953125 520.83203125 342.501953125 518.499023438 337.501953125 c 0
 516.166015625 332.501953125 512.999023438 327.668945312 508.999023438 323.001953125 c 0
 504.999023438 318.334960938 500.166015625 314.834960938 494.499023438 312.501953125 c 0
 488.83203125 310.168945312 481.999023438 309.3359375 473.999023438 310.002929688 c 0
 455.999023438 313.3359375 430.33203125 316.168945312 396.999023438 318.501953125 c 0
 363.666015625 320.834960938 325.833007812 322.16796875 283.5 322.500976562 c 0
 280.680664062 322.5234375 277.892578125 322.534179688 275.13671875 322.534179688 c 0
 236.514648438 322.534179688 204.134765625 320.356445312 178 316 c 1
 142 139.333007812 122.333007812 42 119 24 c 0
EndSplineSet
Validated: 524289
EndChar

StartChar: G
Encoding: 71 71 50
Width: 650
GlyphClass: 2
Flags: HMW
HStem: -30.9971 89.9971<178.333 229.333> 643.002 80.999<465.332 470.664>
LayerCount: 2
Fore
SplineSet
501 244 m 0
 496.333007812 230 488.666015625 213.669921875 477.999023438 195.002929688 c 0
 467.33203125 176.3359375 454.499023438 156.502929688 439.499023438 135.502929688 c 0
 424.499023438 114.502929688 407.33203125 94.169921875 387.999023438 74.5029296875 c 0
 368.666015625 54.8359375 348.666015625 37.0029296875 327.999023438 21.0029296875 c 0
 307.33203125 5.0029296875 284.83203125 -7.830078125 260.499023438 -17.4970703125 c 0
 237.736328125 -26.5400390625 215.994140625 -31.0615234375 195.2734375 -31.0615234375 c 0
 193.84375 -31.0615234375 192.418945312 -31.0400390625 190.999023438 -30.9970703125 c 0
 165.666015625 -30.9970703125 142.833007812 -26.330078125 122.5 -16.9970703125 c 0
 102.166992188 -7.6640625 85.6669921875 4.6689453125 73 20.001953125 c 0
 60.3330078125 35.3349609375 50.3330078125 53.16796875 43 73.5009765625 c 0
 35.6669921875 93.833984375 31.6669921875 115.500976562 31 138.500976562 c 0
 30.92578125 141.057617188 30.888671875 143.616210938 30.888671875 146.177734375 c 0
 30.888671875 166.653320312 33.2587890625 187.26171875 37.9990234375 208.000976562 c 0
 49.33203125 257.333984375 65.1650390625 305.333984375 85.498046875 352.000976562 c 0
 105.831054688 398.66796875 127.998046875 440.66796875 151.998046875 478.000976562 c 0
 175.998046875 515.333984375 202.331054688 549.500976562 230.998046875 580.500976562 c 0
 259.665039062 611.500976562 288.165039062 637.500976562 316.498046875 658.500976562 c 0
 344.831054688 679.500976562 372.831054688 695.66796875 400.498046875 707.000976562 c 0
 428.165039062 718.333984375 453.665039062 724.000976562 476.998046875 724.000976562 c 0
 502.998046875 724.000976562 530.498046875 717.500976562 559.498046875 704.500976562 c 0
 588.498046875 691.500976562 606.331054688 680.333984375 612.998046875 671.000976562 c 0
 617.874023438 664.295898438 620.3125 656.685546875 620.3125 648.169921875 c 0
 620.3125 638.056640625 616.874023438 626.666992188 609.998046875 614.000976562 c 0
 605.998046875 605.333984375 598.831054688 599.000976562 588.498046875 595.000976562 c 0
 578.165039062 591.000976562 568.665039062 591.000976562 559.998046875 595.000976562 c 0
 556.665039062 596.333984375 549.165039062 601.333984375 537.498046875 610.000976562 c 0
 525.831054688 618.66796875 513.6640625 626.334960938 500.997070312 633.001953125 c 0
 488.330078125 639.668945312 476.330078125 643.001953125 464.997070312 643.001953125 c 0
 445.6640625 643.001953125 423.331054688 636.168945312 397.998046875 622.501953125 c 0
 372.665039062 608.834960938 346.998046875 589.16796875 320.998046875 563.500976562 c 0
 294.998046875 537.833984375 269.998046875 508.666992188 245.998046875 476 c 0
 221.998046875 443.333007812 200.331054688 406.333007812 180.998046875 365 c 0
 161.665039062 323.666992188 147.33203125 282 137.999023438 240 c 0
 133.958007812 222.221679688 131.9375 204.6875 131.9375 187.3984375 c 0
 131.9375 176.162109375 132.791015625 165.029296875 134.498046875 154 c 0
 138.831054688 126 148.831054688 103.166992188 164.498046875 85.5 c 0
 180.165039062 67.8330078125 199.33203125 59 221.999023438 59 c 0
 236.666015625 59 253.166015625 64.1669921875 271.499023438 74.5 c 0
 289.83203125 84.8330078125 307.165039062 98 323.498046875 114 c 0
 339.831054688 130 355.831054688 148 371.498046875 168 c 0
 387.165039062 188 400.83203125 207.333007812 412.499023438 226 c 0
 424.166015625 244.666992188 433.666015625 262 440.999023438 278 c 1
 401.666015625 276 362.666015625 272.333007812 323.999023438 267 c 0
 285.33203125 261.666992188 257.999023438 254.666992188 241.999023438 246 c 0
 236.314453125 243.158203125 231.079101562 241.736328125 226.291992188 241.736328125 c 0
 220.973632812 241.736328125 216.209960938 243.491210938 211.999023438 247 c 0
 203.999023438 253.666992188 200.666015625 262.666992188 201.999023438 274 c 0
 203.999023438 299.333007812 220.33203125 319 250.999023438 333 c 0
 270.999023438 342.333007812 310.499023438 349.5 369.499023438 354.5 c 0
 411.641601562 358.071289062 447.237304688 359.857421875 476.28515625 359.857421875 c 0
 487.904296875 359.857421875 498.475585938 359.571289062 507.999023438 359 c 0
 523.33203125 358.333007812 533.33203125 355.5 537.999023438 350.5 c 0
 542.666015625 345.5 544.666015625 337.666992188 543.999023438 327 c 0
 541.33203125 302.333007812 531.33203125 287 513.999023438 281 c 0
 513.33203125 279 511.33203125 273.666992188 507.999023438 265 c 0
 504.666015625 256.333007812 502.333007812 249.333007812 501 244 c 0
EndSplineSet
Validated: 524289
EndChar

StartChar: H
Encoding: 72 72 51
Width: 650
GlyphClass: 2
Flags: HMW
HStem: 311.999 86.001<192.999 230.331>
LayerCount: 2
Fore
SplineSet
467 24 m 0
 462.333007812 10 453.66796875 -1.16796875 441.000976562 -9.5009765625 c 0
 429.272460938 -17.216796875 417.258789062 -21.07421875 404.959960938 -21.07421875 c 0
 403.975585938 -21.07421875 402.989257812 -21.0498046875 402.000976562 -21 c 0
 389.333984375 -21 380.166992188 -16.5 374.5 -7.5 c 0
 371.392578125 -2.564453125 369.838867188 3.423828125 369.838867188 10.4638671875 c 0
 369.838867188 16.26171875 370.892578125 22.7744140625 373 30 c 0
 400.333007812 122.666992188 427 226.666992188 453 342 c 1
 442.333007812 341.333007812 403.166015625 336.166015625 335.499023438 326.499023438 c 0
 267.83203125 316.83203125 220.33203125 311.999023438 192.999023438 311.999023438 c 0
 192.33203125 309.999023438 191.33203125 306.499023438 189.999023438 301.499023438 c 0
 188.666015625 296.499023438 187.666015625 292.999023438 186.999023438 290.999023438 c 0
 168.33203125 224.999023438 147.665039062 135.999023438 124.998046875 23.9990234375 c 0
 120.331054688 9.9990234375 111.498046875 -1.16796875 98.498046875 -9.5009765625 c 0
 86.4619140625 -17.216796875 74.568359375 -21.07421875 62.8173828125 -21.07421875 c 0
 61.876953125 -21.07421875 60.9365234375 -21.0498046875 59.998046875 -21 c 0
 47.998046875 -21 38.8310546875 -16.5 32.498046875 -7.5 c 0
 29.060546875 -2.6142578125 27.3408203125 3.302734375 27.3408203125 10.251953125 c 0
 27.3408203125 16.1025390625 28.560546875 22.685546875 30.998046875 30 c 0
 33.6650390625 39.3330078125 37.6650390625 54.3330078125 42.998046875 75 c 0
 48.3310546875 95.6669921875 54.998046875 123.333984375 62.998046875 158.000976562 c 0
 70.998046875 192.66796875 78.3310546875 224.000976562 84.998046875 252.000976562 c 0
 90.3310546875 274.66796875 98.498046875 307.16796875 109.498046875 349.500976562 c 0
 120.498046875 391.833984375 128.331054688 423.166992188 132.998046875 443.5 c 2
 153.998046875 535 l 2
 159.998046875 565 163.998046875 584.166992188 165.998046875 592.5 c 0
 167.998046875 600.833007812 170.998046875 612.333007812 174.998046875 627 c 2
 183.998046875 660 l 2
 188.665039062 678 196.498046875 691.5 207.498046875 700.5 c 0
 218.498046875 709.5 230.331054688 714 242.998046875 714 c 0
 244.03515625 714.049804688 245.053710938 714.07421875 246.052734375 714.07421875 c 0
 258.53515625 714.07421875 268.016601562 710.216796875 274.498046875 702.500976562 c 0
 278.952148438 697.198242188 281.1796875 689.9375 281.1796875 680.719726562 c 0
 281.1796875 675.453125 280.452148438 669.546875 278.998046875 663.000976562 c 0
 277.665039062 656.333984375 273.498046875 642.000976562 266.498046875 620.000976562 c 0
 259.498046875 598.000976562 253.998046875 577.66796875 249.998046875 559.000976562 c 0
 245.998046875 541.66796875 240.165039062 515.16796875 232.498046875 479.500976562 c 0
 224.831054688 443.833984375 218.6640625 416.666992188 213.997070312 398 c 1
 246.6640625 398 280.6640625 400 315.997070312 404 c 0
 351.330078125 408 383.330078125 412 411.997070312 416 c 0
 440.6640625 420 460.6640625 422.666992188 471.997070312 424 c 1
 472.6640625 428.666992188 473.831054688 435.5 475.498046875 444.5 c 0
 477.165039062 453.5 478.665039062 460.333007812 479.998046875 465 c 0
 489.331054688 506.333007812 495.331054688 533.666015625 497.998046875 546.999023438 c 0
 500.665039062 560.33203125 505.665039062 580.999023438 512.998046875 608.999023438 c 0
 520.331054688 636.999023438 524.998046875 653.999023438 526.998046875 659.999023438 c 0
 531.665039062 677.999023438 539.33203125 691.499023438 549.999023438 700.499023438 c 0
 560.666015625 709.499023438 572.333007812 713.999023438 585 713.999023438 c 0
 586.037109375 714.048828125 587.055664062 714.073242188 588.0546875 714.073242188 c 0
 600.537109375 714.073242188 610.018554688 710.215820312 616.5 702.5 c 0
 620.954101562 697.197265625 623.181640625 689.936523438 623.181640625 680.71875 c 0
 623.181640625 675.452148438 622.454101562 669.545898438 621 663 c 0
 618.333007812 650.333007812 612 624.333007812 602 585 c 0
 592 545.666992188 583.5 511.166992188 576.5 481.5 c 0
 569.5 451.833007812 560 409 548 353 c 0
 538.666992188 306.333007812 524 245 504 169 c 0
 484 93 471.666992188 44.6669921875 467 24 c 0
EndSplineSet
Validated: 524289
EndChar

StartChar: I
Encoding: 73 73 52
Width: 650
GlyphClass: 2
Flags: HMW
HStem: -13.998 80.001 -6.49902 77.999 612.001 89.001 625.002 82.999<205.328 231.995 223.662 231.995 223.662 347.994>
LayerCount: 2
Fore
SplineSet
438 -11 m 0x60
 422.666992188 -8.3330078125 396.821289062 -6.83203125 360.48828125 -6.4990234375 c 0x60
 353.225585938 -6.4326171875 345.983398438 -6.3994140625 338.760742188 -6.3994140625 c 0
 309.850585938 -6.3994140625 281.259765625 -6.9326171875 252.989257812 -7.9990234375 c 0
 217.65625 -9.33203125 180.323242188 -10.6650390625 140.990234375 -11.998046875 c 0
 101.657226562 -13.3310546875 74.32421875 -13.998046875 58.9912109375 -13.998046875 c 0
 42.9912109375 -13.998046875 31.82421875 -10.6650390625 25.4912109375 -3.998046875 c 0
 19.158203125 2.6689453125 17.3251953125 11.3359375 19.9921875 22.0029296875 c 0
 21.9921875 34.0029296875 27.6591796875 44.169921875 36.9921875 52.5029296875 c 0
 46.3251953125 60.8359375 58.9921875 65.3359375 74.9921875 66.0029296875 c 0
 101.659179688 67.3359375 147.659179688 69.0029296875 212.9921875 71.0029296875 c 1
 245.659179688 185.002929688 275.326171875 305.669921875 301.993164062 433.002929688 c 0
 306.66015625 457.002929688 311.493164062 479.669921875 316.493164062 501.002929688 c 0
 321.493164062 522.3359375 324.993164062 537.668945312 326.993164062 547.001953125 c 0
 328.993164062 556.334960938 332.826171875 570.834960938 338.493164062 590.501953125 c 0
 344.16015625 610.168945312 347.327148438 621.668945312 347.994140625 625.001953125 c 1
 319.994140625 625.66796875 294.744140625 626.001953125 272.244140625 626.001953125 c 0
 249.744140625 626.001953125 229.994140625 625.66796875 212.994140625 625.001953125 c 0
 197.661132812 625.001953125 186.828125 628.668945312 180.495117188 636.001953125 c 0
 174.162109375 643.334960938 171.995117188 652.66796875 173.995117188 664.000976562 c 0
 175.995117188 676.000976562 181.995117188 686.333984375 191.995117188 695.000976562 c 0
 201.995117188 703.66796875 215.328125 708.000976562 231.995117188 708.000976562 c 0x90
 284.220703125 709.556640625 332.594726562 710.334960938 377.116210938 710.334960938 c 0
 466.1484375 710.334960938 539.775390625 707.223632812 597.995117188 701.001953125 c 0
 620.690429688 698.732421875 632.038085938 688.495117188 632.038085938 670.291015625 c 0
 632.038085938 667.104492188 631.690429688 663.674804688 630.995117188 660.000976562 c 0
 629.662109375 654.000976562 627.495117188 648.16796875 624.495117188 642.500976562 c 0
 621.495117188 636.833984375 617.828125 631.333984375 613.495117188 626.000976562 c 0
 609.162109375 620.66796875 603.662109375 616.500976562 596.995117188 613.500976562 c 0
 590.328125 610.500976562 582.995117188 610.000976562 574.995117188 612.000976562 c 0
 557.662109375 615.333984375 513.329101562 619.000976562 441.99609375 623.000976562 c 1
 440.663085938 617.66796875 436.830078125 602.66796875 430.497070312 578.000976562 c 0
 424.1640625 553.333984375 419.1640625 533.666992188 415.497070312 519 c 0
 411.830078125 504.333007812 406.997070312 483.333007812 400.997070312 456 c 0
 394.997070312 428.666992188 388.997070312 401.666992188 382.997070312 375 c 0
 372.997070312 327.666992188 358.830078125 268.666992188 340.497070312 198 c 0
 322.1640625 127.333007812 311.331054688 85.3330078125 307.998046875 72 c 1
 335.331054688 72 366.331054688 71.8330078125 400.998046875 71.5 c 0
 435.665039062 71.1669921875 454.33203125 71 456.999023438 71 c 0
 471.666015625 71 480.999023438 67.5 484.999023438 60.5 c 0
 488.999023438 53.5 489.999023438 44.3330078125 487.999023438 33 c 0
 486.666015625 27 484.999023438 21.5 482.999023438 16.5 c 0
 480.999023438 11.5 477.999023438 6.5 473.999023438 1.5 c 0
 469.999023438 -3.5 464.83203125 -7.1669921875 458.499023438 -9.5 c 0
 452.166015625 -11.8330078125 445.333007812 -12.3330078125 438 -11 c 0x60
EndSplineSet
Validated: 524289
EndChar

StartChar: J
Encoding: 74 74 53
Width: 650
GlyphClass: 2
Flags: HMW
HStem: -35.001 101.001<207.669 215.002> 625 82.999<190.336 216.002>
VStem: 34.0029 87.501 47.0029 77
LayerCount: 2
Fore
SplineSet
372 215 m 0xe0
 353.333007812 155 334.834960938 106.33203125 316.501953125 68.9990234375 c 0
 298.168945312 31.666015625 280.001953125 4.9990234375 262.001953125 -11.0009765625 c 0
 244.001953125 -27.0009765625 225.001953125 -35.0009765625 205.001953125 -35.0009765625 c 0
 183.668945312 -35.0009765625 164.001953125 -31.0009765625 146.001953125 -23.0009765625 c 0
 128.001953125 -15.0009765625 112.834960938 -4.333984375 100.501953125 8.9990234375 c 0
 88.1689453125 22.33203125 77.3359375 36.83203125 68.0029296875 52.4990234375 c 0
 58.669921875 68.166015625 51.5029296875 83.8330078125 46.5029296875 99.5 c 0
 41.5029296875 115.166992188 38.0029296875 129.166992188 36.0029296875 141.5 c 0
 34.0029296875 153.833007812 33.3359375 163.666015625 34.0029296875 170.999023438 c 0xe0
 34.0029296875 176.999023438 35.3359375 184.166015625 38.0029296875 192.499023438 c 0
 40.669921875 200.83203125 43.669921875 208.665039062 47.0029296875 215.998046875 c 0
 50.3359375 223.331054688 55.5029296875 229.831054688 62.5029296875 235.498046875 c 0
 69.5029296875 241.165039062 78.0029296875 244.665039062 88.0029296875 245.998046875 c 0
 91.55859375 246.64453125 94.8701171875 246.967773438 97.9365234375 246.967773438 c 0
 107.516601562 246.967773438 114.705078125 243.811523438 119.502929688 237.499023438 c 0
 123.65234375 232.0390625 125.7265625 225.649414062 125.7265625 218.329101562 c 0
 125.7265625 214.4765625 125.15234375 210.3671875 124.002929688 205.999023438 c 0xd0
 123.950195312 205.706054688 121.454101562 191.61328125 121.454101562 176.352539062 c 0
 121.454101562 166.751953125 122.803710938 155.80078125 125.50390625 143.5 c 0
 128.50390625 129.833007812 133.170898438 117.333007812 139.50390625 106 c 0
 145.836914062 94.6669921875 155.669921875 85.1669921875 169.002929688 77.5 c 0
 182.3359375 69.8330078125 198.3359375 66 217.002929688 66 c 0
 239.002929688 66 265.3359375 124 296.002929688 240 c 0
 299.3359375 254.666992188 309.502929688 301.666992188 326.502929688 381 c 0
 343.502929688 460.333007812 362.002929688 541.333007812 382.002929688 624 c 1
 340.803710938 625.200195312 302.244140625 625.799804688 266.325195312 625.799804688 c 0
 242.377929688 625.799804688 219.603515625 625.533203125 198.002929688 625 c 0
 182.669921875 625 171.669921875 628.666992188 165.002929688 636 c 0
 158.3359375 643.333007812 156.3359375 652.666015625 159.002929688 663.999023438 c 0
 161.002929688 675.999023438 167.169921875 686.33203125 177.502929688 694.999023438 c 0
 187.8359375 703.666015625 200.668945312 707.999023438 216.001953125 707.999023438 c 0
 268.227539062 709.5546875 316.638671875 710.333007812 361.233398438 710.333007812 c 0
 450.415039062 710.333007812 524.336914062 707.221679688 583.001953125 701 c 0
 605.697265625 698.73046875 617.044921875 688.493164062 617.044921875 670.2890625 c 0
 617.044921875 667.102539062 616.697265625 663.672851562 616.001953125 659.999023438 c 0
 614.668945312 653.999023438 612.501953125 648.166015625 609.501953125 642.499023438 c 0
 606.501953125 636.83203125 602.668945312 631.33203125 598.001953125 625.999023438 c 0
 593.334960938 620.666015625 587.66796875 616.499023438 581.000976562 613.499023438 c 0
 574.333984375 610.499023438 567.333984375 609.999023438 560.000976562 611.999023438 c 0
 539.333984375 615.33203125 506.666992188 618.33203125 462 620.999023438 c 1
 457.333007812 601.666015625 451.166015625 572.333007812 443.499023438 533 c 0
 435.83203125 493.666992188 428.83203125 457.833984375 422.499023438 425.500976562 c 0
 416.166015625 393.16796875 408.333007812 357.16796875 399 317.500976562 c 0
 389.666992188 277.833984375 380.666992188 243.666992188 372 215 c 0xe0
EndSplineSet
Validated: 524289
EndChar

StartChar: K
Encoding: 75 75 54
Width: 650
GlyphClass: 2
Flags: W
HStem: -21.0752 21G<73.4688 80.123 437.313 447.822> 694.072 20G<246.557 253.298>
LayerCount: 2
Fore
SplineSet
137 24 m 0
 132.333007812 10 123.5 -1.1689453125 110.5 -9.501953125 c 0
 98.4638671875 -17.2177734375 86.2841796875 -21.0751953125 73.9619140625 -21.0751953125 c 0
 72.9755859375 -21.0751953125 71.98828125 -21.05078125 71 -21.0009765625 c 0
 58.3330078125 -21.0009765625 49.166015625 -16.5009765625 43.4990234375 -7.5009765625 c 0
 40.3916015625 -2.5654296875 38.837890625 3.4228515625 38.837890625 10.462890625 c 0
 38.837890625 16.2607421875 39.8916015625 22.7734375 41.9990234375 29.9990234375 c 0
 50.666015625 59.33203125 64.3330078125 115.499023438 83 198.499023438 c 0
 101.666992188 281.499023438 119.666992188 366.999023438 137 454.999023438 c 0
 145.666992188 497.666015625 151.666992188 526.499023438 155 541.499023438 c 0
 158.333007812 556.499023438 163.833007812 578.166015625 171.5 606.499023438 c 0
 179.166992188 634.83203125 184 652.665039062 186 659.998046875 c 0
 190.666992188 677.998046875 198.333984375 691.498046875 209.000976562 700.498046875 c 0
 219.66796875 709.498046875 231.334960938 713.998046875 244.001953125 713.998046875 c 0
 245.0390625 714.047851562 246.057617188 714.072265625 247.056640625 714.072265625 c 0
 259.5390625 714.072265625 269.020507812 710.21484375 275.501953125 702.499023438 c 0
 279.956054688 697.196289062 282.18359375 689.935546875 282.18359375 680.717773438 c 0
 282.18359375 675.451171875 281.456054688 669.544921875 280.001953125 662.999023438 c 0
 276.668945312 646.999023438 268.001953125 611.999023438 254.001953125 557.999023438 c 0
 240.001953125 503.999023438 228.668945312 459.33203125 220.001953125 423.999023438 c 1
 248.001953125 447.33203125 290.001953125 482.665039062 346.001953125 529.998046875 c 0
 402.001953125 577.331054688 446.334960938 614.831054688 479.001953125 642.498046875 c 0
 511.668945312 670.165039062 532.668945312 687.33203125 542.001953125 693.999023438 c 0
 552.668945312 702.666015625 562.3359375 708.499023438 571.002929688 711.499023438 c 0
 579.669921875 714.499023438 586.836914062 715.166015625 592.50390625 713.499023438 c 0
 598.170898438 711.83203125 603.00390625 708.33203125 607.00390625 702.999023438 c 0
 610.544921875 697.490234375 612.315429688 691.576171875 612.315429688 685.254882812 c 0
 612.315429688 670.155273438 602.211914062 652.736328125 582.00390625 632.999023438 c 0
 570.00390625 620.999023438 528.836914062 584.499023438 458.50390625 523.499023438 c 0
 388.170898438 462.499023438 326.00390625 409.33203125 272.00390625 363.999023438 c 1
 287.336914062 339.999023438 314.336914062 302.499023438 353.00390625 251.499023438 c 0
 391.670898438 200.499023438 425.170898438 155.666015625 453.50390625 116.999023438 c 0
 471.276367188 92.744140625 498.108398438 56.1259765625 498.108398438 40.0419921875 c 0
 498.108398438 28.9599609375 495.573242188 18.9462890625 490.502929688 9.9990234375 c 0
 484.8359375 -0.0009765625 477.668945312 -7.66796875 469.001953125 -13.0009765625 c 0
 459.997070312 -18.5986328125 451.658203125 -21.3974609375 443.985351562 -21.3974609375 c 0
 430.641601562 -21.3974609375 419.313476562 -12.931640625 410.000976562 4 c 0
 405.333984375 12.6669921875 388.500976562 35.6669921875 359.500976562 73 c 0
 330.500976562 110.333007812 299.16796875 151.5 265.500976562 196.5 c 0
 231.833984375 241.5 207.666992188 277.333007812 193 304 c 1
 188 284 l 2
 186 272.666992188 169 186 137 24 c 0
EndSplineSet
Validated: 524289
EndChar

StartChar: L
Encoding: 76 76 55
Width: 650
GlyphClass: 2
Flags: HMW
HStem: -9.00488 81.0029
LayerCount: 2
Fore
SplineSet
509 10 m 0
 465 1.3330078125 399.672851562 -5.0048828125 313.005859375 -9.0048828125 c 0
 226.338867188 -13.0048828125 163.005859375 -15.0048828125 123.005859375 -15.0048828125 c 0
 110.338867188 -15.0048828125 101.171875 -10.5048828125 95.5048828125 -1.5048828125 c 0
 92.3974609375 3.4306640625 90.84375 9.4189453125 90.84375 16.458984375 c 0
 90.84375 22.2568359375 91.8974609375 28.76953125 94.0048828125 35.9951171875 c 0
 95.337890625 41.328125 107.670898438 79.4951171875 131.00390625 150.495117188 c 0
 154.336914062 221.495117188 175.336914062 289.995117188 194.00390625 355.995117188 c 0
 202.670898438 385.995117188 215.670898438 440.995117188 233.00390625 520.995117188 c 0
 250.336914062 600.995117188 259.669921875 644.328125 261.002929688 650.995117188 c 0
 265.669921875 668.995117188 273.502929688 682.662109375 284.502929688 691.995117188 c 0
 295.502929688 701.328125 307.002929688 705.995117188 319.002929688 705.995117188 c 0
 320.040039062 706.044921875 321.059570312 706.069335938 322.060546875 706.069335938 c 0
 334.565429688 706.069335938 344.212890625 702.211914062 351.002929688 694.49609375 c 0
 355.484375 689.404296875 357.724609375 682.506835938 357.724609375 673.8046875 c 0
 357.724609375 668.265625 356.817382812 661.997070312 355.001953125 654.99609375 c 0
 350.334960938 635.663085938 343.66796875 609.330078125 335.000976562 575.997070312 c 0
 326.333984375 542.6640625 315.333984375 500.6640625 302.000976562 449.997070312 c 0
 288.66796875 399.330078125 277.334960938 355.330078125 268.001953125 317.997070312 c 0
 260.668945312 289.997070312 248.8359375 249.330078125 232.502929688 195.997070312 c 0
 216.169921875 142.6640625 204.669921875 101.331054688 198.002929688 71.998046875 c 1
 202.526367188 71.9404296875 207.119140625 71.9111328125 211.780273438 71.9111328125 c 0
 260.713867188 71.9111328125 317.288085938 75.107421875 381.502929688 81.498046875 c 0
 451.8359375 88.498046875 499.3359375 95.3310546875 524.002929688 101.998046875 c 0
 532.002929688 103.998046875 538.669921875 103.665039062 544.002929688 100.998046875 c 0
 549.3359375 98.3310546875 553.168945312 94.3310546875 555.501953125 88.998046875 c 0
 557.834960938 83.6650390625 559.16796875 77.83203125 559.500976562 71.4990234375 c 0
 559.833984375 65.166015625 559.666992188 59.3330078125 559 54 c 0
 556.333007812 42 551.333007812 32.3330078125 544 25 c 0
 536.666992188 17.6669921875 525 12.6669921875 509 10 c 0
EndSplineSet
Validated: 524289
EndChar

StartChar: M
Encoding: 77 77 56
Width: 650
GlyphClass: 2
Flags: HMW
HStem: -9.99414 21G<54.001 60.001>
VStem: 223.998 97.001 440.998 89.001
LayerCount: 2
Fore
SplineSet
114 59 m 0
 110 37.6669921875 102.000976562 20.8388671875 90.0009765625 8.505859375 c 0
 78.0009765625 -3.8271484375 66.0009765625 -9.994140625 54.0009765625 -9.994140625 c 0
 39.1845703125 -9.544921875 31.7763671875 1.7900390625 31.7763671875 24.009765625 c 0
 31.7763671875 34.783203125 33.517578125 48.115234375 37.0009765625 64.0068359375 c 0
 39.0009765625 72.0068359375 43.16796875 85.673828125 49.5009765625 105.006835938 c 0
 55.833984375 124.33984375 64.0009765625 149.672851562 74.0009765625 181.005859375 c 0
 84.0009765625 212.338867188 92.66796875 239.671875 100.000976562 263.004882812 c 0
 102.000976562 271.004882812 105.66796875 283.337890625 111.000976562 300.004882812 c 0
 125.66796875 349.337890625 137.500976562 387.837890625 146.500976562 415.504882812 c 0
 155.500976562 443.171875 166.66796875 477.671875 180.000976562 519.004882812 c 0
 193.333984375 560.337890625 204.666992188 592.837890625 214 616.504882812 c 0
 223.333007812 640.171875 231.333007812 656.671875 238 666.004882812 c 0
 247.333007812 680.004882812 259.333007812 690.171875 274 696.504882812 c 0
 286.116210938 701.736328125 297.095703125 704.352539062 306.936523438 704.352539062 c 0
 309.008789062 704.352539062 311.029296875 704.236328125 313 704.004882812 c 0
 341 704.004882812 355 691.671875 355 667.004882812 c 0
 355.060546875 664.336914062 355.090820312 661.510742188 355.090820312 658.526367188 c 0
 355.090820312 628.69140625 352.060546875 583.017578125 346 521.504882812 c 0
 339.333007812 453.837890625 330.666015625 376.670898438 319.999023438 290.00390625 c 0
 309.33203125 203.336914062 302.33203125 146.00390625 298.999023438 118.00390625 c 1
 326.999023438 212.00390625 353.666015625 296.670898438 378.999023438 372.00390625 c 0
 396.999023438 427.336914062 417.33203125 483.00390625 439.999023438 539.00390625 c 0
 462.666015625 595.00390625 480.999023438 637.670898438 494.999023438 667.00390625 c 0
 499.666015625 677.00390625 506.666015625 685.170898438 515.999023438 691.50390625 c 0
 525.33203125 697.836914062 534.33203125 701.669921875 542.999023438 703.002929688 c 0
 551.666015625 704.3359375 559.999023438 704.668945312 567.999023438 704.001953125 c 2
 571.999023438 704.001953125 l 1
 584.499023438 704.001953125 l 2
 587.499023438 704.001953125 591.666015625 703.168945312 596.999023438 701.501953125 c 0
 602.33203125 699.834960938 606.499023438 697.66796875 609.499023438 695.000976562 c 0
 612.499023438 692.333984375 614.999023438 688.166992188 616.999023438 682.5 c 0
 618.999023438 676.833007812 619.666015625 670 618.999023438 662 c 0
 616.999023438 642 601.666015625 544.333007812 572.999023438 369 c 0
 544.33203125 193.666992188 529.999023438 94.6669921875 529.999023438 72 c 0
 529.33203125 32 516.665039062 6.6669921875 491.998046875 -4 c 0
 485.903320312 -6.4375 480.19140625 -7.6572265625 474.862304688 -7.6572265625 c 0
 468.534179688 -7.6572265625 462.74609375 -5.9375 457.498046875 -2.5 c 0
 447.831054688 3.8330078125 442.331054688 17.666015625 440.998046875 38.9990234375 c 0
 440.899414062 40.6533203125 440.849609375 42.513671875 440.849609375 44.580078125 c 0
 440.849609375 98.29296875 474.232421875 291.099609375 540.997070312 623 c 1
 500.997070312 526.333007812 469.330078125 438.333007812 445.997070312 359 c 0
 422.6640625 283 398.331054688 210.833007812 372.998046875 142.5 c 0
 347.665039062 74.1669921875 330.33203125 32.333984375 320.999023438 17.0009765625 c 0
 310.33203125 1.0009765625 290.999023438 -6.9990234375 262.999023438 -6.9990234375 c 0
 250.33203125 -7.666015625 240.665039062 -5.666015625 233.998046875 -0.9990234375 c 0
 227.331054688 3.66796875 223.998046875 10.3349609375 223.998046875 19.001953125 c 0
 223.998046875 51.001953125 228.665039062 124.501953125 237.998046875 239.501953125 c 0
 247.331054688 354.501953125 256.998046875 464.668945312 266.998046875 570.001953125 c 1
 244.498046875 498.001953125 l 2
 236.165039062 471.334960938 229.165039062 448.16796875 223.498046875 428.500976562 c 0
 217.831054688 408.833984375 209.331054688 379.666992188 197.998046875 341 c 0
 186.665039062 302.333007812 177.998046875 273 171.998046875 253 c 0
 163.998046875 225 155.331054688 196.166992188 145.998046875 166.5 c 0
 136.665039062 136.833007812 129.33203125 113.5 123.999023438 96.5 c 0
 118.666015625 79.5 115.333007812 67 114 59 c 0
EndSplineSet
Validated: 524289
EndChar

StartChar: N
Encoding: 78 78 57
Width: 650
GlyphClass: 2
Flags: W
HStem: -12.0664 21G<50.9688 57.25>
LayerCount: 2
Fore
SplineSet
404 -14 m 0
 392 -14.6669921875 382.826171875 -12.5029296875 376.493164062 -7.5029296875 c 0
 370.16015625 -2.5029296875 366.327148438 4.330078125 364.994140625 12.9970703125 c 0
 362.327148438 26.330078125 354.16015625 55.6630859375 340.493164062 100.99609375 c 0
 326.826171875 146.329101562 312.826171875 193.49609375 298.493164062 242.49609375 c 0
 284.16015625 291.49609375 269.827148438 346.329101562 255.494140625 406.99609375 c 0
 241.161132812 467.663085938 231.994140625 519.330078125 227.994140625 561.997070312 c 1
 214.661132812 489.330078125 200.328125 421.663085938 184.995117188 358.99609375 c 0
 169.662109375 296.329101562 153.495117188 232.49609375 136.495117188 167.49609375 c 0
 119.495117188 102.49609375 109.662109375 62.99609375 106.995117188 48.99609375 c 0
 102.995117188 27.6630859375 95.4951171875 11.99609375 84.4951171875 1.99609375 c 0
 74.1826171875 -7.37890625 63.138671875 -12.06640625 51.361328125 -12.06640625 c 0
 50.576171875 -12.06640625 49.787109375 -12.0458984375 48.9951171875 -12.00390625 c 0
 36.328125 -12.00390625 28.9951171875 -6.3369140625 26.9951171875 4.99609375 c 0
 26.3955078125 8.396484375 26.0947265625 12.2763671875 26.0947265625 16.63671875 c 0
 26.0947265625 26.8095703125 27.728515625 39.5966796875 30.9951171875 54.99609375 c 0
 33.662109375 68.3291015625 46.3291015625 119.99609375 68.99609375 209.99609375 c 0
 91.6630859375 299.99609375 111.330078125 378.663085938 127.997070312 445.99609375 c 0
 144.6640625 513.329101562 158.997070312 577.99609375 170.997070312 639.99609375 c 0
 172.997070312 653.329101562 176.997070312 664.662109375 182.997070312 673.995117188 c 0
 188.997070312 683.328125 195.997070312 690.161132812 203.997070312 694.494140625 c 0
 211.997070312 698.827148438 219.997070312 701.827148438 227.997070312 703.494140625 c 0
 235.997070312 705.161132812 243.6640625 705.328125 250.997070312 703.995117188 c 0
 278.330078125 703.995117188 292.663085938 691.662109375 293.99609375 666.995117188 c 0
 296.663085938 622.995117188 313.830078125 541.995117188 345.497070312 423.995117188 c 0
 377.1640625 305.995117188 404.997070312 210.662109375 428.997070312 137.995117188 c 1
 445.6640625 200.662109375 467.331054688 291.829101562 493.998046875 411.49609375 c 0
 520.665039062 531.163085938 535.998046875 609.99609375 539.998046875 647.99609375 c 0
 541.998046875 663.99609375 548.165039062 677.49609375 558.498046875 688.49609375 c 0
 568.831054688 699.49609375 579.998046875 704.99609375 591.998046875 704.99609375 c 0
 598.665039062 704.99609375 604.33203125 704.163085938 608.999023438 702.49609375 c 0
 613.666015625 700.829101562 617.166015625 698.829101562 619.499023438 696.49609375 c 0
 621.83203125 694.163085938 623.33203125 690.330078125 623.999023438 684.997070312 c 0
 624.666015625 679.6640625 624.833007812 674.831054688 624.5 670.498046875 c 0
 624.166992188 666.165039062 623.666992188 659.33203125 623 649.999023438 c 0
 622.333007812 639.33203125 611 585.83203125 589 489.499023438 c 0
 567 393.166015625 542.833007812 293.333007812 516.5 190 c 0
 490.166992188 86.6669921875 471.666992188 27 461 11 c 0
 451 -5.6669921875 432 -14 404 -14 c 0
EndSplineSet
Validated: 524289
EndChar

StartChar: O
Encoding: 79 79 58
Width: 650
GlyphClass: 2
Flags: HMW
HStem: -24 83.998<221.663 222.667> 636.997 81.001<410.665 422.331>
LayerCount: 2
Fore
SplineSet
210 -24 m 0
 172 -23.3330078125 140.663085938 -10.8349609375 115.99609375 13.498046875 c 0
 91.3291015625 37.8310546875 75.49609375 70.498046875 68.49609375 111.498046875 c 0
 65.9169921875 126.603515625 64.6279296875 142.228515625 64.6279296875 158.375 c 0
 64.6279296875 186.053710938 68.4169921875 215.260742188 75.99609375 245.998046875 c 0
 76.6630859375 249.331054688 77.99609375 254.998046875 79.99609375 262.998046875 c 0
 86.6630859375 292.998046875 92.330078125 316.998046875 96.9970703125 334.998046875 c 0
 101.6640625 352.998046875 108.497070312 376.998046875 117.497070312 406.998046875 c 0
 126.497070312 436.998046875 136.6640625 465.498046875 147.997070312 492.498046875 c 0
 159.330078125 519.498046875 171.997070312 544.998046875 185.997070312 568.998046875 c 0
 211.997070312 612.331054688 247.830078125 647.998046875 293.497070312 675.998046875 c 0
 339.1640625 703.998046875 386.331054688 717.998046875 434.998046875 717.998046875 c 0
 459.665039062 717.998046875 482.33203125 712.831054688 502.999023438 702.498046875 c 0
 523.666015625 692.165039062 540.833007812 677.33203125 554.5 657.999023438 c 0
 568.166992188 638.666015625 577.5 613.999023438 582.5 583.999023438 c 0
 584.918945312 569.483398438 586.12890625 554.108398438 586.12890625 537.875976562 c 0
 586.12890625 520.560546875 584.752929688 502.267578125 582 482.999023438 c 0
 576.666992188 449.666015625 569.833984375 413.999023438 561.500976562 375.999023438 c 0
 553.16796875 337.999023438 543.16796875 299.499023438 531.500976562 260.499023438 c 0
 519.833984375 221.499023438 508.666992188 190.666015625 498 167.999023438 c 0
 483.333007812 136.666015625 467.333007812 109.666015625 450 86.9990234375 c 0
 432.666992188 64.33203125 415.166992188 45.83203125 397.5 31.4990234375 c 0
 379.833007812 17.166015625 360.666015625 5.8330078125 339.999023438 -2.5 c 0
 319.33203125 -10.8330078125 298.83203125 -16.5 278.499023438 -19.5 c 0
 258.166015625 -22.5 235.333007812 -24 210 -24 c 0
228.99609375 59.998046875 m 0
 245.663085938 59.998046875 262.330078125 62.1650390625 278.997070312 66.498046875 c 0
 295.6640625 70.8310546875 311.997070312 77.8310546875 327.997070312 87.498046875 c 0
 343.997070312 97.1650390625 359.497070312 109.998046875 374.497070312 125.998046875 c 0
 389.497070312 141.998046875 402.330078125 160.665039062 412.997070312 181.998046875 c 0
 416.997070312 190.665039062 424.1640625 210.665039062 434.497070312 241.998046875 c 0
 444.830078125 273.331054688 455.663085938 310.6640625 466.99609375 353.997070312 c 0
 478.329101562 397.330078125 487.329101562 439.997070312 493.99609375 481.997070312 c 0
 495.928710938 494.750976562 496.89453125 506.903320312 496.89453125 518.453125 c 0
 496.89453125 546.748046875 491.095703125 571.4296875 479.497070312 592.497070312 c 0
 463.1640625 622.1640625 438.6640625 636.997070312 405.997070312 636.997070312 c 0
 372.6640625 636.997070312 341.6640625 623.830078125 312.997070312 597.497070312 c 0
 284.330078125 571.1640625 259.330078125 534.331054688 237.997070312 486.998046875 c 0
 209.330078125 423.665039062 186.663085938 348.665039062 169.99609375 261.998046875 c 0
 165.99609375 240.665039062 163.163085938 220.998046875 161.49609375 202.998046875 c 0
 160.454101562 191.749023438 159.93359375 180.499023438 159.93359375 169.25 c 0
 159.93359375 162.499023438 160.12109375 155.749023438 160.49609375 148.998046875 c 0
 161.49609375 130.998046875 164.329101562 115.498046875 168.99609375 102.498046875 c 0
 173.663085938 89.498046875 181.163085938 79.1650390625 191.49609375 71.498046875 c 0
 201.829101562 63.8310546875 214.329101562 59.998046875 228.99609375 59.998046875 c 0
EndSplineSet
Validated: 524289
EndChar

StartChar: P
Encoding: 80 80 59
Width: 650
GlyphClass: 2
Flags: HMW
HStem: 230.001 82<290.998 299.998 290.998 316.664> 630.003 80.998<387.33 437.997>
LayerCount: 2
Fore
SplineSet
152 24 m 0
 149.333007812 10 141.49609375 -0.830078125 128.49609375 -8.4970703125 c 0
 116.536132812 -15.55078125 104.435546875 -19.0771484375 92.1943359375 -19.0771484375 c 0
 91.12890625 -19.0771484375 90.0634765625 -19.05078125 88.99609375 -18.9970703125 c 0
 75.6630859375 -18.9970703125 65.830078125 -14.830078125 59.4970703125 -6.4970703125 c 0
 56.0595703125 -1.9736328125 54.33984375 3.6796875 54.33984375 10.462890625 c 0
 54.33984375 16.17578125 55.5595703125 22.6884765625 57.9970703125 30.0029296875 c 0
 60.6640625 40.669921875 64.6640625 56.5029296875 69.9970703125 77.5029296875 c 0
 75.330078125 98.5029296875 81.330078125 124.502929688 87.9970703125 155.502929688 c 0
 94.6640625 186.502929688 100.997070312 216.502929688 106.997070312 245.502929688 c 0
 112.997070312 274.502929688 120.330078125 310.002929688 128.997070312 352.002929688 c 0
 137.6640625 394.002929688 144.997070312 429.002929688 150.997070312 457.002929688 c 0
 160.330078125 500.3359375 173.997070312 557.668945312 191.997070312 629.001953125 c 1
 187.997070312 634.001953125 l 2
 185.330078125 642.001953125 185.663085938 650.168945312 188.99609375 658.501953125 c 0
 192.329101562 666.834960938 197.329101562 674.334960938 203.99609375 681.001953125 c 0
 210.663085938 687.668945312 217.330078125 691.668945312 223.997070312 693.001953125 c 0
 247.997070312 698.334960938 281.997070312 702.66796875 325.997070312 706.000976562 c 0
 369.997070312 709.333984375 400.330078125 711.000976562 416.997070312 711.000976562 c 0
 458.997070312 711.000976562 494.6640625 703.000976562 523.997070312 687.000976562 c 0
 553.330078125 671.000976562 573.997070312 646.833984375 585.997070312 614.500976562 c 0
 592.747070312 596.313476562 596.122070312 576.174804688 596.122070312 554.0859375 c 0
 596.122070312 536.904296875 594.080078125 518.54296875 589.997070312 499.000976562 c 0
 581.330078125 461.66796875 567.497070312 426.500976562 548.497070312 393.500976562 c 0
 529.497070312 360.500976562 507.497070312 332.000976562 482.497070312 308.000976562 c 0
 457.497070312 284.000976562 429.1640625 265.000976562 397.497070312 251.000976562 c 0
 365.830078125 237.000976562 333.330078125 230.000976562 299.997070312 230.000976562 c 0
 251.330078125 230.000976562 213.997070312 233.66796875 187.997070312 241.000976562 c 1
 182.6640625 213.000976562 177.831054688 186.16796875 173.498046875 160.500976562 c 0
 169.165039062 134.833984375 164.83203125 108.166992188 160.499023438 80.5 c 0
 156.166015625 52.8330078125 153.333007812 34 152 24 c 0
397.99609375 630.002929688 m 0
 376.663085938 630.002929688 336.99609375 627.333984375 278.99609375 622.000976562 c 1
 275.663085938 608.66796875 269.330078125 584.000976562 259.997070312 548.000976562 c 0
 250.6640625 512.000976562 241.331054688 475.000976562 231.998046875 437.000976562 c 0
 222.665039062 399.000976562 213.998046875 362.000976562 205.998046875 326.000976562 c 1
 227.248046875 316.625976562 253.477539062 311.938476562 284.6875 311.938476562 c 0
 286.768554688 311.938476562 288.872070312 311.958984375 290.998046875 312.000976562 c 0
 308.998046875 312.000976562 325.665039062 313.333984375 340.998046875 316.000976562 c 0
 356.331054688 318.66796875 369.998046875 322.334960938 381.998046875 327.001953125 c 0
 393.998046875 331.668945312 405.331054688 337.8359375 415.998046875 345.502929688 c 0
 426.665039062 353.169921875 435.665039062 360.836914062 442.998046875 368.50390625 c 0
 450.331054688 376.170898438 457.1640625 385.170898438 463.497070312 395.50390625 c 0
 469.830078125 405.836914062 474.997070312 415.169921875 478.997070312 423.502929688 c 0
 482.997070312 431.8359375 486.830078125 441.502929688 490.497070312 452.502929688 c 0
 494.1640625 463.502929688 496.997070312 472.502929688 498.997070312 479.502929688 c 0
 500.997070312 486.502929688 503.330078125 495.002929688 505.997070312 505.002929688 c 0
 508.397460938 516.203125 509.59765625 526.743164062 509.59765625 536.623046875 c 0
 509.59765625 543.209960938 509.063476562 549.502929688 507.997070312 555.502929688 c 0
 505.330078125 570.502929688 500.163085938 582.502929688 492.49609375 591.502929688 c 0
 484.829101562 600.502929688 475.49609375 608.002929688 464.49609375 614.002929688 c 0
 453.49609375 620.002929688 442.329101562 624.169921875 430.99609375 626.502929688 c 0
 419.663085938 628.8359375 408.663085938 630.002929688 397.99609375 630.002929688 c 0
EndSplineSet
Validated: 524289
EndChar

StartChar: Q
Encoding: 81 81 60
Width: 650
GlyphClass: 2
Flags: HMW
HStem: -23.9961 84.002<217.999 261.999> 637.005 80.9971<409.667 421.332>
LayerCount: 2
Fore
SplineSet
411 -206 m 0
 403.446289062 -210.443359375 396.041015625 -212.6640625 388.783203125 -212.6640625 c 0
 385.151367188 -212.6640625 381.556640625 -212.107421875 377.999023438 -210.99609375 c 0
 367.33203125 -207.663085938 358.999023438 -199.99609375 352.999023438 -187.99609375 c 0
 346.999023438 -175.99609375 337.499023438 -153.663085938 324.499023438 -120.99609375 c 0
 311.499023438 -88.3291015625 298.999023438 -54.99609375 286.999023438 -20.99609375 c 1
 273.666015625 -23.1298828125 259.267578125 -24.1962890625 243.802734375 -24.1962890625 c 0
 239.934570312 -24.1962890625 236 -24.1298828125 231.999023438 -23.99609375 c 0
 203.999023438 -23.99609375 179.666015625 -19.3291015625 158.999023438 -9.99609375 c 0
 138.33203125 -0.6630859375 121.33203125 12.3369140625 107.999023438 29.00390625 c 0
 94.666015625 45.6708984375 84.4990234375 65.50390625 77.4990234375 88.50390625 c 0
 70.08984375 112.848632812 66.47265625 138.78515625 66.47265625 166.670898438 c 0
 66.47265625 191.768554688 69.314453125 218.212890625 74.9990234375 246.002929688 c 0
 100.33203125 375.3359375 136.999023438 481.668945312 184.999023438 565.001953125 c 0
 210.999023438 609.001953125 246.83203125 645.501953125 292.499023438 674.501953125 c 0
 338.166015625 703.501953125 385.333007812 718.001953125 434 718.001953125 c 0
 459.333007812 718.001953125 482 713.334960938 502 704.001953125 c 0
 522 694.668945312 538.833007812 681.001953125 552.5 663.001953125 c 0
 566.166992188 645.001953125 575.5 620.668945312 580.5 590.001953125 c 0
 582.918945312 575.163085938 584.12890625 559.154296875 584.12890625 541.974609375 c 0
 584.12890625 523.6484375 582.752929688 503.991210938 580 483.000976562 c 0
 574 437.000976562 562.666992188 380.833984375 546 314.500976562 c 0
 529.333007812 248.16796875 513.666015625 197.66796875 498.999023438 163.000976562 c 0
 468.999023438 91.0009765625 426.666015625 39.66796875 371.999023438 9.0009765625 c 1
 379.999023438 -10.33203125 388.666015625 -29.9990234375 397.999023438 -49.9990234375 c 0
 407.33203125 -69.9990234375 416.33203125 -88.666015625 424.999023438 -105.999023438 c 0
 433.666015625 -123.33203125 439.666015625 -134.999023438 442.999023438 -140.999023438 c 0
 445.666015625 -148.33203125 445.333007812 -156.33203125 442 -164.999023438 c 0
 438.666992188 -173.666015625 434 -181.833007812 428 -189.5 c 0
 422 -197.166992188 416.333007812 -202.666992188 411 -206 c 0
168.999023438 262.004882812 m 0
 164.958984375 238.974609375 162.938476562 217.353515625 162.938476562 197.139648438 c 0
 162.938476562 184 163.791992188 171.456054688 165.499023438 159.505859375 c 0
 169.83203125 129.172851562 179.33203125 105.005859375 193.999023438 87.005859375 c 0
 208.666015625 69.005859375 227.999023438 60.005859375 251.999023438 60.005859375 c 2
 261.999023438 60.005859375 l 1
 253.999023438 90.005859375 248.666015625 113.338867188 245.999023438 130.005859375 c 0
 245.220703125 136.561523438 244.83203125 142.802734375 244.83203125 148.729492188 c 0
 244.83203125 178.358398438 254.553710938 200.1171875 273.998046875 214.005859375 c 0
 280.665039062 218.672851562 287.33203125 221.505859375 293.999023438 222.505859375 c 0
 300.666015625 223.505859375 306.499023438 221.505859375 311.499023438 216.505859375 c 0
 316.499023438 211.505859375 319.33203125 204.005859375 319.999023438 194.005859375 c 0
 323.33203125 160.672851562 331.33203125 124.33984375 343.999023438 85.0068359375 c 1
 375.33203125 104.33984375 399.999023438 135.33984375 417.999023438 178.006835938 c 0
 421.999023438 188.006835938 428.499023438 208.173828125 437.499023438 238.506835938 c 0
 446.499023438 268.83984375 456.666015625 306.672851562 467.999023438 352.005859375 c 0
 479.33203125 397.338867188 487.665039062 440.671875 492.998046875 482.004882812 c 0
 494.634765625 494.9140625 495.452148438 507.103515625 495.452148438 518.575195312 c 0
 495.452148438 549.1640625 489.634765625 574.641601562 477.998046875 595.004882812 c 0
 461.998046875 623.004882812 437.665039062 637.004882812 404.998046875 637.004882812 c 0
 370.998046875 637.004882812 339.498046875 624.004882812 310.498046875 598.004882812 c 0
 281.498046875 572.004882812 256.665039062 535.671875 235.998046875 489.004882812 c 0
 204.665039062 419.671875 182.33203125 344.004882812 168.999023438 262.004882812 c 0
EndSplineSet
Validated: 524289
EndChar

StartChar: R
Encoding: 82 82 61
Width: 650
GlyphClass: 2
Flags: W
HStem: -19.0801 21G<90.7935 97.7402 445 457.445> 694.06 20G<247.051 253.953>
VStem: 508.897 88.5586<409.03 519.094>
LayerCount: 2
Fore
SplineSet
151 24 m 0
 148.333007812 10 140.66796875 -0.8330078125 128.000976562 -8.5 c 0
 116.34765625 -15.5537109375 104.130859375 -19.080078125 91.349609375 -19.080078125 c 0
 90.2373046875 -19.080078125 89.12109375 -19.0537109375 88.0009765625 -19 c 0
 75.333984375 -19 65.6669921875 -14.8330078125 59 -6.5 c 0
 55.2958984375 -1.8701171875 53.4443359375 3.9423828125 53.4443359375 10.939453125 c 0
 53.4443359375 16.5361328125 54.62890625 22.8896484375 56.9990234375 30 c 0
 67.666015625 64.6669921875 75.8330078125 94.1669921875 81.5 118.5 c 0
 87.1669921875 142.833007812 100.333984375 202.666015625 121.000976562 297.999023438 c 0
 123.66796875 310.666015625 130.66796875 337.833007812 142.000976562 379.5 c 0
 153.333984375 421.166992188 162.333984375 460.666992188 169.000976562 498 c 0
 173.66796875 520.666992188 179.16796875 551.333984375 185.500976562 590.000976562 c 0
 191.833984375 628.66796875 196.000976562 652.000976562 198.000976562 660.000976562 c 2
 199.000976562 666.000976562 l 2
 201.000976562 678.66796875 207.66796875 689.66796875 219.000976562 699.000976562 c 0
 229.040039062 709.040039062 240.555664062 714.059570312 253.546875 714.059570312 c 0
 254.359375 714.059570312 255.176757812 714.040039062 256.000976562 714.000976562 c 0
 268.000976562 714.000976562 277.333984375 711.333984375 284.000976562 706.000976562 c 1
 334.66796875 703.333984375 379.66796875 696.166992188 419.000976562 684.5 c 0
 458.333984375 672.833007812 490.000976562 658.333007812 514.000976562 641 c 0
 538.000976562 623.666992188 557.000976562 604 571.000976562 582 c 0
 585.000976562 560 593.333984375 538 596.000976562 516 c 0
 596.970703125 508 597.456054688 499.955078125 597.456054688 491.8671875 c 0
 597.456054688 477.712890625 595.970703125 463.423828125 593.000976562 449 c 0
 589.000976562 432.333007812 583.333984375 417 576.000976562 403 c 0
 568.66796875 389 560.16796875 376.833007812 550.500976562 366.5 c 0
 540.833984375 356.166992188 529.166992188 347 515.5 339 c 0
 501.833007812 331 487.666015625 324.166992188 472.999023438 318.5 c 0
 458.33203125 312.833007812 441.33203125 307.833007812 421.999023438 303.5 c 0
 402.666015625 299.166992188 383.833007812 295.833984375 365.5 293.500976562 c 0
 347.166992188 291.16796875 326.333984375 289.000976562 303.000976562 287.000976562 c 1
 357.66796875 252.333984375 403.500976562 211.833984375 440.500976562 165.500976562 c 0
 441.370117188 164.413085938 507.106445312 81.5439453125 507.106445312 43.2431640625 c 0
 507.106445312 32.6953125 504.571289062 22.9482421875 499.500976562 14.0009765625 c 0
 493.833984375 4.0009765625 486.333984375 -3.9990234375 477.000976562 -9.9990234375 c 0
 469.178710938 -15.3759765625 461.356445312 -18.0654296875 453.534179688 -18.0654296875 c 0
 445 -16.998046875 l 0
 434.333007812 -14.3310546875 426 -6.3310546875 420 7.001953125 c 0
 413.333007812 21.001953125 403.166015625 38.1689453125 389.499023438 58.501953125 c 0
 375.83203125 78.8349609375 358.999023438 101.501953125 338.999023438 126.501953125 c 0
 318.999023438 151.501953125 295.33203125 176.168945312 267.999023438 200.501953125 c 0
 240.666015625 224.834960938 213.333007812 244.334960938 186 259.001953125 c 1
 178.666992188 220.334960938 171.5 174.66796875 164.5 122.000976562 c 0
 157.5 69.333984375 153 36.6669921875 151 24 c 0
253.001953125 498 m 0
 251.668945312 490.666992188 249.172851562 480.833984375 245.505859375 468.500976562 c 0
 241.838867188 456.16796875 238.505859375 445.16796875 235.505859375 435.500976562 c 0
 232.505859375 425.833984375 228.338867188 412.500976562 223.005859375 395.500976562 c 0
 217.672851562 378.500976562 213.672851562 366.333984375 211.005859375 359.000976562 c 1
 218.244140625 357.4765625 227.658203125 356.71484375 239.25 356.71484375 c 0
 247.943359375 356.71484375 257.862304688 357.143554688 269.005859375 358.000976562 c 0
 294.338867188 359.333984375 316.171875 360.833984375 334.504882812 362.500976562 c 0
 352.837890625 364.16796875 371.004882812 366.500976562 389.004882812 369.500976562 c 0
 407.004882812 372.500976562 422.171875 376.000976562 434.504882812 380.000976562 c 0
 446.837890625 384.000976562 458.170898438 389.000976562 468.50390625 395.000976562 c 0
 478.836914062 401.000976562 487.169921875 408.16796875 493.502929688 416.500976562 c 0
 499.8359375 424.833984375 504.3359375 434.333984375 507.002929688 445.000976562 c 0
 508.266601562 450.895507812 508.897460938 456.724609375 508.897460938 462.486328125 c 0
 508.897460938 474.969726562 505.932617188 487.141601562 500.002929688 499.000976562 c 0
 491.3359375 516.333984375 478.668945312 531.666992188 462.001953125 545 c 0
 445.334960938 558.333007812 425.834960938 570.5 403.501953125 581.5 c 0
 381.168945312 592.5 359.501953125 601.333007812 338.501953125 608 c 0
 317.501953125 614.666992188 297.334960938 620 278.001953125 624 c 1
 268.001953125 575.333007812 259.668945312 533.333007812 253.001953125 498 c 0
EndSplineSet
Validated: 524289
EndChar

StartChar: S
Encoding: 83 83 62
Width: 650
GlyphClass: 2
Flags: HMW
HStem: -29 85<207.337 211.001> 632 76.002 645.001 79.001<456 456.001>
LayerCount: 2
Fore
SplineSet
33 66 m 0xa0
 31.71875 72.91796875 31.0791015625 79.3447265625 31.0791015625 85.2783203125 c 0
 31.0791015625 94.7841796875 32.7216796875 103.026367188 36.0048828125 110.00390625 c 0
 41.337890625 121.336914062 49.6708984375 130.00390625 61.00390625 136.00390625 c 0
 69.00390625 139.336914062 75.50390625 141.669921875 80.50390625 143.002929688 c 0
 85.50390625 144.3359375 90.50390625 144.668945312 95.50390625 144.001953125 c 0
 100.50390625 143.334960938 105.00390625 140.66796875 109.00390625 136.000976562 c 0
 113.00390625 131.333984375 117.00390625 124.666992188 121.00390625 116 c 0
 127.670898438 98 139.50390625 83.5 156.50390625 72.5 c 0
 173.50390625 61.5 194.670898438 56 220.00390625 56 c 0
 234.670898438 56 250.670898438 58.1669921875 268.00390625 62.5 c 0
 285.336914062 66.8330078125 302.669921875 73.5 320.002929688 82.5 c 0
 337.3359375 91.5 353.668945312 102 369.001953125 114 c 0
 384.334960938 126 397.501953125 140.166992188 408.501953125 156.5 c 0
 419.501953125 172.833007812 427.001953125 190 431.001953125 208 c 0
 433.001953125 218 434.501953125 227 435.501953125 235 c 0
 436.501953125 243 436.334960938 251.666992188 435.001953125 261 c 0
 433.668945312 270.333007812 431.001953125 278.833007812 427.001953125 286.5 c 0
 423.001953125 294.166992188 416.501953125 301.833984375 407.501953125 309.500976562 c 0
 398.501953125 317.16796875 387.668945312 324.000976562 375.001953125 330.000976562 c 0
 362.334960938 336.000976562 346.16796875 341.500976562 326.500976562 346.500976562 c 0
 306.833984375 351.500976562 284.666992188 355.333984375 260 358.000976562 c 0
 238.666992188 360.66796875 220 367.000976562 204 377.000976562 c 0
 188 387.000976562 176 399.16796875 168 413.500976562 c 0
 160 427.833984375 154.833007812 442.833984375 152.5 458.500976562 c 0
 151.5390625 464.952148438 151.05859375 471.430664062 151.05859375 477.938476562 c 0
 151.05859375 487.235351562 152.0390625 496.588867188 154 506.000976562 c 0
 159.333007812 528.66796875 168 550.500976562 180 571.500976562 c 0
 192 592.500976562 207.666992188 612.333984375 227 631.000976562 c 0
 246.333007812 649.66796875 268 665.834960938 292 679.501953125 c 0
 316 693.168945312 343.666992188 704.001953125 375 712.001953125 c 0
 406.333007812 720.001953125 439 724.001953125 473 724.001953125 c 0xa0
 489.666992188 724.001953125 512.166992188 722.501953125 540.5 719.501953125 c 0
 568.833007812 716.501953125 588 712.668945312 598 708.001953125 c 0
 608.666992188 703.334960938 615.333984375 696.001953125 618.000976562 686.001953125 c 0
 619.067382812 682.001953125 619.6015625 677.895507812 619.6015625 673.681640625 c 0
 619.6015625 667.362304688 618.401367188 660.801757812 616.000976562 654.001953125 c 0
 613.333984375 646.001953125 609.333984375 639.668945312 604.000976562 635.001953125 c 0
 598.66796875 630.334960938 593.000976562 627.66796875 587.000976562 627.000976562 c 0
 581.000976562 626.333984375 575.500976562 626.166992188 570.500976562 626.5 c 0
 565.500976562 626.833007812 560.333984375 628 555.000976562 630 c 0
 554.333984375 630 552.333984375 630.666992188 549.000976562 632 c 0xc0
 539.000976562 634.666992188 531.000976562 636.833984375 525.000976562 638.500976562 c 0
 519.000976562 640.16796875 509.000976562 641.66796875 495.000976562 643.000976562 c 0
 481.000976562 644.333984375 465.000976562 645.000976562 447.000976562 645.000976562 c 0
 419.000976562 645.000976562 391.16796875 640.500976562 363.500976562 631.500976562 c 0
 335.833984375 622.500976562 311.833984375 609.000976562 291.500976562 591.000976562 c 0
 271.16796875 573.000976562 258.66796875 553.000976562 254.000976562 531.000976562 c 0
 252.413085938 524.118164062 251.618164062 517.516601562 251.618164062 511.194335938 c 0
 251.618164062 493.633789062 257.74609375 478.236328125 270.000976562 465.000976562 c 0
 286.66796875 447.000976562 314.000976562 437.333984375 352.000976562 436.000976562 c 0
 386.000976562 434.000976562 415.333984375 428.16796875 440.000976562 418.500976562 c 0
 464.66796875 408.833984375 483.500976562 397.166992188 496.500976562 383.5 c 0
 509.500976562 369.833007812 519.16796875 353.833007812 525.500976562 335.5 c 0
 531.833984375 317.166992188 535.000976562 299 535.000976562 281 c 0
 535.000976562 263 532.66796875 244.333007812 528.000976562 225 c 0
 520.66796875 194.333007812 509.000976562 165.5 493.000976562 138.5 c 0
 477.000976562 111.5 458.16796875 87.8330078125 436.500976562 67.5 c 0
 414.833984375 47.1669921875 390.833984375 29.6669921875 364.500976562 15 c 0
 338.16796875 0.3330078125 310.66796875 -10.6669921875 282.000976562 -18 c 0
 253.333984375 -25.3330078125 225.000976562 -29 197.000976562 -29 c 0
 153.66796875 -29 117.16796875 -19.8330078125 87.5009765625 -1.5 c 0
 57.833984375 16.8330078125 39.6669921875 39.3330078125 33 66 c 0xa0
EndSplineSet
Validated: 524289
EndChar

